<?xml version="1.0" encoding="utf-8"?>
<!-- Generator: Adobe Illustrator 21.1.0, SVG Export Plug-In . SVG Version: 6.00 Build 0)  -->
<svg version="1.1" id="Layer_1" xmlns="http://www.w3.org/2000/svg" xmlns:xlink="http://www.w3.org/1999/xlink" x="0px" y="0px"
	 viewBox="0 0 1924.2 1079.5" style="enable-background:new 0 0 1924.2 1079.5;" xml:space="preserve">
<style type="text/css">
	.st0{fill:#202E42;}
	.st1{opacity:0.62;fill:#6E6E6E;enable-background:new    ;}
	.st2{fill:#505C6F;}
	.st3{fill:#505C6E;}
	.st4{fill:#223044;}
	.st5{fill:none;}
	.st6{fill:#EBD513;}
	.st7{font-family:'DIN-Bold';}
	.st8{font-size:22.668px;}
	.st9{fill:none;stroke:#FEFF18;stroke-width:3;stroke-miterlimit:10;}
	.st10{fill:none;stroke:#4FFFFF;stroke-width:3;stroke-miterlimit:10;}
	.st11{fill:none;stroke:#4FFFFF;stroke-width:3;stroke-miterlimit:10;stroke-dasharray:7.17,7.17;}
	.st12{fill:#FFFFFF;}
	.st13{fill:none;stroke:#FF8200;stroke-width:3;stroke-miterlimit:10;}
	.st14{font-size:20px;}
	.st15{font-family:'DIN-MediumAlternate';}
	.st16{font-size:14px;}
</style>
<g id="Others">
	<g id="Background">
		<title>map1</title>
		<g id="Layer_1_1_">
			<rect x="-10.8" y="-0.7" class="st0" width="1925.9" height="1082"/>
			<path class="st1" d="M1010.6,137.5c0.2,0.2,0.3,0.7,0.5,0.7c4.5,0.8,9.1,1.5,13.6,2.3c0.7,0.1,1.5,0,2,0.2
				c7.4,1.6,14.6,4,21.5,6.9c8,3.6,16,8.4,24.5,10c9.4,1.8,15.9,7.3,23.2,11.9c6.1,3.9,10.9,9.4,16.8,13.7
				c11.1,8.2,22.2,16.2,33.8,23.8c4.4,2.7,7.9,6.7,10,11.6c0.5,1.1,1.5,2.8,2.5,3.1c7.7,1.1,13.3,6.1,19.7,9.6
				c16.7,9,34.1,16.5,51.6,24.3c7.6,3.4,15.9,5.1,23.6,8.3c10.2,4.2,20.2,9,30.1,13.6c1.4,0.6,2,2.4,3.1,3.5
				c-6.6,5.1-15.3,5.9-20.5,12.2c-0.8,1-2.7,1.2-4.2,1.6c-4.2,0.8-5.7,2.8-5.6,6.9c0.1,1.6-1,3.3-1,4.8c0,1.9,0.2,4.2,1.4,5.6
				c3.1,3.6,3.2,4.2-0.8,7.1c-2.8,2-5.6,4.4-8.6,6.2c-1.9,1.1-4.1,1.9-6.2,2.5c-3.4,0.9-4.5,3.2-5.2,6.2c-0.6,1.8-1.5,3.4-2.7,4.9
				c-0.5,0.6-1.7,0.7-2.2,1.4c-3.5,4.6-8.3,5-13.4,3.7c-2.3,4-8.5,5.4-14.3,3.7v-4.4c-4.6,2.7-9.3,5.1-13.6,8
				c-1.4,0.9-2.8,3.5-2.3,4.6c1.2,2.6,3.5,4.9,5.9,7.9c-6.3-2.6-10.2,0.8-14.1,4c-0.8,0.6-1.7,0.8-2.7,0.7c-1.4-0.2-3.2-1.8-4-1.5
				c-3.7,1.8-7.4,3.9-10.8,6.1c-0.5,0.3-0.5,2,0,2.8c1.2,2.6,2.8,5.2,4.2,7.7c-3.4,3.4-6.8,6.2-5.6,11.3c0.2,0.8-2,2-3.1,3.2
				c-1,1-2,2.2-2.8,3.3c-5,3.5-11.4,5.2-15.4,10.5c-3.9,5-2.5,13.3,2.3,17.7c2,1.9,2.7,5.3,3.9,8c0.9,2,0.9,4.6,2.4,6
				c3.3,2.7,5,6.9,4.6,11.1c-0.2,2.7,1.7,5.1,4.5,5.4c0.1,0,0.2,0,0.3,0c4,0.1,3.3,1.6,1.6,3.7c-0.6,1.1-1.1,2.3-1.4,3.4
				c-7.5,2.6-11.8,1.1-16.5-5.7c-1.4-1.9-2.3-4.2-5.7-3.2c-0.8,0.2-2.2-1.1-3.1-1.9c-3.5-2.9-6-3.3-9.5-0.5
				c-4.1,3.2-7.3,6.9-7.3,12.5c0,1.2-1.6,2.6-2.7,4.2l-2.5-2.7l-6,6.3c-0.1-1.2-0.2-1.6-0.1-1.9c0.1-1.7,0.3-3.4,0.5-5
				c-1.4,0.5-2.6,1-4.1,1.5c-0.8,0.3-1.7,0.3-2.5,0.2c-2.6-0.8-5.1-1.2-6.1,3.1l-0.9-1.1c0-0.9,0-1.7,0-2.6c0-3.4-0.1-6.8-0.1-10.2
				c0-1.5-0.1-3.4,0.8-4.2c3.6-3.5,3.7-7.9,4.1-12.2c0.3-5,0.8-9.9,0.8-14.8c-0.2-1.7-1-3.2-2.4-4.3c-2.9-2.5-4.5-7.9-2.7-11.3
				c2.9-5.8,2.8-6.1-4.8-9c-1,2.6-2,5.1-3.1,7.7c-0.1,0.2,0.1,0.7-0.1,0.8c-0.7,0.7-1.9,2-2.2,1.9c-3.6-2.3-5.9,7.9-10.3,1
				c-0.8-1.2-4.4-2.3-5.8-1.7c-3.2,1.5-4.3-0.2-5.8-1.9c-2.3-2.7-3.4-6.1-7.8-7c-1.6-0.3-2.7-4-3.5-6.3c-1.4-4.4-0.5-9.9-6.3-12.2
				c-0.6-0.2-0.6-1.8-0.9-2.6c-1.6-3.3-3.3-6.7-5-9.9c-1.9-3.6-4-7.3-6.1-10.9c-2.9-5.2-6.1-10.3-9-15.5c-3.5-6.5-7-12.9-10.1-19.6
				c-1-2.6-3.9-4.1-6.6-3.3c-2.5,0.6-6.6-0.2-5.7,4.9c0.3,1.9-1.7,4.3-3.2,7.6c-2.4-3.7-4.2-6.2-5.6-9c-3.7-7.5-7.1-15.2-11-22.7
				c-4.2-8.2-5.9-16.9-6.3-25.8c-0.2-5,1.2-10.1,1.8-15.1c0.2-1.4-0.2-2.7,0-4c0.3-2.2,1-4.3,1.5-6.6c0.3-1.2,0.6-2.5,0.7-3.7
				c-0.1-0.8-0.3-1.6-0.8-2.4c-3.3-6.3-3.3-12.2,2.6-17.1c-3.6-5.8-3.6-5.8,0.3-14.3l-5.4-0.7c0.3-1.4,0.6-2.6,0.9-3.6
				c2.2-6.1,1.6-13-1.6-18.7c-0.8-1.4-0.8-3.1-1.4-4.6c-0.2-0.8-0.7-2-1.4-2.3c-4.6-2.3-7-6.3-9.6-10.3c-4.2-6.6-8.2-7.9-16.2-6.3
				c-1.4,0.2-2.8,0.8-4.2,1c-7.7,1.4-8,8.3-3.9,12.6c0.9,1,2,1.8,3.1,2.7c-0.5,2.7-1.7,3.7-4.5,2.6c-4.1-1.6-7.9-2.3-8.4-8.3
				c-0.5-6.3-5.2-8-12.6-6.3c-2.9,7.8-2,10.9-19.5,10.7l-5,10.9c0.9,1.8,1.5,2.9,2,4.2l-5.2,1.1c-2.2,4.8-2.2,4.8,3.3,5.7
				c2.5,0.3,5,0.8,7.4,1.5c0.8,0.3,1.9,2.6,1.5,3.1c-2.7,3.9-0.6,7.5,0.1,11.1c0.6,2.5,1.5,4.9,2.6,7.1c0.9,1.6,1.9,3.2,3.2,4.5
				c2.3,3.2,4.6,6.1,6.8,9.3c1.1,1.6,2.5,3.2,2.8,5c0.5,2.5,0.8,5.6-0.3,7.7c-1.6,3.3-4.4,6-6.8,9c-0.6,5.4,4.3,10.5,2.6,17
				c-0.7,2.8,1.1,6.2,1.6,9.4c0.6,2.2,0.8,4.4,0.8,6.6c-0.2,2.5,0.9,3.6,2.8,5c2.8,2,6,3.5,5.7,8.7c-0.2,4.1,4.5,7.7,9,9.7
				c3.4,1.6,7,2.5,10.4,4.1c2.2,1,4.2,2.4,6,3.9c1.8,1.4,2.4,4.3,5.7,3.2c0.1,0,0.2,0.1,0.3,0.2c3.4,3.6,7.6,6.9,10.1,11.1
				c1.7,2.9,3.3,5.6,6.6,6.6c5.9,1.7,6.7,7.3,9.3,11.2c0.6,0.9-1.8,3.5-3.1,5.9l4.9,2.3c0.3,3.6,0.2,7.8,1.1,11.8c0.5,2,2.4,4,4,5.6
				c2.3,2.4,2.8,4.4-0.2,6.7l4.3,8c-2.7,2.8-1,4.6,1.9,7.1c3.3,2.8,5.4,6.9,8,10.4c1.4,1.7,2.7,3.4,4,5.2c0.8,1,1.5,1.9,2.2,2.9
				c0.5,0.7,0.8,1.6,1.4,1.9c3.4,1.6,7,3.1,10.8,4.6c0.2,1.4,0.5,2.9,0.7,4.4c-5.8,4-5.7,4-1.2,9.1c1.8,2,4.8,4.2,1.4,7.4
				c-0.2,0.2-0.2,0.5-0.2,0.8c2.4,3.4,0.2,4.3-2.9,4.1c2.3,7,0,11.2-6.9,13.7c-4.8,1.7-6.6,4.3-6.5,9.2c0,0.1,0,0.2,0,0.5
				c-0.6,1.2-0.7,2.8-1.6,3.7c-2.9,3.1-5.7,7.3-9.4,8.6c-4.1,1.4-7.7,2.7-10.7,5.8c-0.6,0.5-1.1,0.8-1.7,1.1l-8.6-12
				c-2.5,3.6-3.9,6.3-1.4,9.9c1.4,1.8,2.2,4,2.2,6.1c-0.2,3.4-0.7,3.4-8.4,5.6c-1.9-2.4-3.4-5-5.7-7c-1.1-1-3.4-1-5.2-1
				c-2.4,0-4.8,0.6-7.3,0.7c-3.5,0.1-6.8-1.6-8.6-4.5c-1.8-2.6-4.4-4.6-6.3-7.1c-0.7-0.8-0.3-2.4-0.3-3.6c0-1.2,0.2-2.4,0.3-3.5
				c-2.3-0.1-4.3-3.7-6.7-0.1c-1.5,2.3-2,4.4,0.2,6.3c2.5,2.2,2.5,4.9,0.8,7c-1.7,2.2-4.8,1.9-7,0.2c-2.5-2-4.2-0.9-5.8,1
				c-2.8,3.3-6,3.3-9.4,1c-1.9-1.1-4.1-1.5-6.2-1.1c-7.4,1.4-9.7,1.1-15.3-2.8l-3.3,1.8l-19.3-2.2l0.9-1.1c-0.3-2.2-0.2-4.5-1.4-6.3
				c-1.5-2.5-0.9-4,0.9-5.9c0.7-0.7,0.6-2,0.9-3.2c-1.4,0-3.4-0.6-3.9,0c-1.7,2-3.7,1.4-5.8,1.5c-3.2,0.2-6.2,0.7-9.3,1.4
				c-3.6,0.8-7.3,2.4-9.3-1.6c-1.5-2.5-2.7-5.1-3.9-7.8c-1.2-3.5-3.7-6.3-7-8.2c-2.3-1.4-1.7-9.5,0.7-11.2c1.2-0.9,3.4-0.6,4.2-0.7
				c-1.6-6.3-3.2-13.3-5.1-19.9c-1.2-3.9-2.8-7.6-4.8-11.1c-1.8-3.7-0.6-6.8,1.4-10.1c1.6-2.6,2.3-5.8,3.6-8.5
				c0.9-2.2,2.3-4.3,3.7-6.1c3.2-3.5,2.8-5.6-1.8-6.8c-2.7-0.7-4.2-1.5-3.2-4.5c0.2-0.7-1.5-2.5-2.6-2.9c-2.4-0.9-3.6-1.8-3.4-4.8
				c0.2-2.2-1.2-4.5-1.9-6.7c-1.8,0.8-3.5,2.3-4.4,1.9c-3.6-1.4-6.1,0.7-8.7,2.3c-1.1,0.7-2.5,1.9-3.3,1.7c-4.9-1.4-6,1.5-6.5,5.2
				l-1.1,0.2c-2.2-3.5-4.3-7-6.5-10.7c-0.9-1.5-1.2-3.3-2.4-4.3c-3.5-3.1-6.2-6.3-6.2-11.2c0-2.2-1.1-3.4-3.6-3.1
				c-3.2,0.5-4.3-1.5-4.3-3.9c-0.1-6-4.6-9-8.7-12c-1.1-0.9-3.3-0.7-5-0.6c-2.4,0.1-4.8,0.5-7.6,0.8c-0.9,2.4,4.8,5.9-0.3,8.8
				c-0.6-0.6-1.2-1-1.9-1.4c-0.8-0.5-1.7-0.6-2.6-0.3c-0.7,0.6-1,1.4-1,2.3c0.1,3.7,0.3,7.5,0.5,11.1l-6.2,0.8
				c0,2.9-0.3,5.3,0.1,7.6c0.5,2.3,1.9,4.1,2.4,6.2c0.7,3.6,3.2,2.3,5.4,2.7c3.4,0.6,6.6,2,9.2,4.3c1.5,1.5,0.9,5,1.2,7.6l-1.2,0.3
				c-0.6-0.5-1.1-1.2-1.7-1.4c-1.1,0-2.4,0.1-3.5,0.3c0.6,3.9-3.2,7.5-0.5,11.7c1,1.6,0.3,4.1,0.6,6.1c0.1,1.4,0.2,2.8,0.3,4.2
				c2.2-0.1,4.3-0.5,6.5-0.9c0.8-0.2,1.2-1.4,1.4-1.5c2.3,2.2,4.5,4.3,6.7,6.5c1.8,1.8,3.6,3.7,5.7,6c-3.2,2-6.3,3.4-3.6,6.8
				c0.5,0.6,1,1.5,1.4,1.4c3.1-0.6,4.4,1.5,4.1,3.4c-0.5,2.6-1.6,5.9-3.6,7.4c-3.5,2.5-4.2,4.4-2.4,8.2c1.8,3.7,4.3,4.1,8,2.7
				c0,1,0.2,1.9,0,2.3c-3.2,3.2-1.7,5.9,0.3,9.1c2.6,4,1.9,5.7-2,8.6c-0.8,0.6-0.7,2.4-0.8,3.6c-0.1,1-0.2,2-0.2,2.9
				c-1-0.5-2.2-0.9-3.2-1.5c-1.9-1.2-3.9-2.3-5.9-3.3c-2.6-1-5.3-1.8-8.2-2.3c-3.2-0.2-6.3-0.2-9.5-0.1c-0.1-1.8-0.2-4.2-0.3-6.6
				c0-0.8,0.2-2-0.1-2.4c-5.3-3.9-2.5-10.5-5.9-15.1c-0.3-0.6,0.2-1.7-0.1-2.4c-0.7-1.5-1.4-3.7-2.5-4c-3.4-0.6-4.4-2.9-6.2-5.1
				c-5.3-6.1-7.3-13.8-7.4-20.7c-0.2-7.3-6-12-5.8-19c0.1-2.3,0.3-3.9,1.6-5.4c2.2-2.6,1.9-4.5-1-6.6c-1.4-0.9-2.2-2.7-4-5.1
				c-0.3,2.3-1.2,4-0.8,5.3c1.8,6.1,2.5,12.2,0.7,18.5c-0.5,1.1-0.9,2.4-1.5,3.5l-4.6-2.4c0,4.6,0.5,9-0.1,13.1
				c-0.6,4.4-2.2,8.7-3.5,13c-0.2,0.8-1.2,1.9-1.9,2c-7.5,0.8-11.7,6.3-16.7,10.5c-3.7,3.1-8,3.3-12,5c-0.2,0.1-0.8,0-0.8-0.1
				c-1.9-4.3-8.6-4.2-9.6-9.7c-0.8-5-3.2-9.6-1.6-15c0.6-1.8-0.5-4.1-0.8-6c-1-5.4-2.3-10.8-3.3-16.1c-0.2-0.9-0.1-1.9,0.3-2.8
				c2.9-4.2,1.1-8.5,0.9-12.8c-0.1-1.9,0.5-3.9,1.6-5.6c1.4-1.8,3.6-3.1,5.4-4.8c3.3-3.1,6.3-6.2,9.3-9.6c1.9-2.3,2.7-5.3,6.3-6
				c0.9-0.2,1.8-2,2-3.2c0.7-5.1,1.2-10.2,6.6-13.3c0.6-0.3,1-1,1.1-1.7c0.7-4,1.1-8,2-12.1c0.8-3.9,0-7.9,3.5-11.2
				c1.2-1.1,1.1-3.6,1.7-5.4c1.4-4.5,2.2-9.3,7.7-11.8c2.4-1,4-3.6,6-5.3c2.3-1.8,4.9-3.4,7.1-5.2c4.4-3.6,8.8-7.1,12.8-11.1
				c1.4-1.4,1.6-3.9,2.6-6.6c1-0.2,2-0.7,2.8-1.5c2.6-3.4,6.3-4.8,10.2-6.5c1.9-0.8,2.8-4.1,4-6.2c2.3-4,4.4-8,6.7-12
				c0.2-0.5,0.9-1.1,0.7-1.5c-1.9-5.1,3.1-6,5.2-9c5.1-6.8,13.9-8,19.9-13.7c3.6-3.4,10-4.1,14.8-6.6c5.1-2.7,10.4-5.6,14.6-9.4
				c2.6-2.4,3.5-6.6,4.5-10.1c0.2-0.9-1.5-2.6-2.6-3.5c-1.9-1.4-4-2.6-6-3.7c2.3-0.6,3.3-1,4.2-0.9c16.9,1.4,27.4-6.7,29.7-22.7
				c0.3-1,0.9-1.9,1.8-2.7c2-2.4,4.2-4.6,6.5-6.7c5.6-4.9,2.7-10.8,2.5-16.4L1010.6,137.5z M1130.8,315.7l1.4,0.6
				c1.2-3.2,2.6-6.3,3.7-9.5c0.2-0.7,0-2.3-0.3-2.4c-1-0.3-2.2-0.3-3.2,0.1c-0.8,0.3-1.2,1.4-2,2.3c-1.7-2.9-2.4-5.3,0.9-7.4
				c2.6-1.6,2.9-3.5,1.4-6.2c-2.5-4.3-4.4-8.8-2.5-14.1c1.5-4.2-0.5-5.9-5.9-5.2c0.8-2.9,1.6-5.7,2-8.4c0.2-1.4,0.5-3.4-0.5-4.2
				c-2-1.8-4.2-3.5-6.5-5.1c-2.7,1.6-4.4,3.3-6.1,3.4c-6.3,0.6-7.1,1.7-4.1,7.1c0.9,1.4,1.9,2.7,3.1,4c0.6,0.6,0.9,1.2,1.2,2
				c0.7,2.6,1.2,5.3,1.8,7.9c0.8,3.9,6,6.3,3.9,11.2c-0.7,1.4-1.4,2.8-2,4.2c-1.5,3.2,2,9.2,5.8,10.3c1.4,0.3,2.5,1.1,3.4,2.3
				C1127.8,310.8,1129.3,313.3,1130.8,315.7z M1055.5,326.2c-2-3.9-3.3-8.4-6.3-11.1c-2.3-1.9-4-4.4-4.9-7.3c-1.4-4.3-2-9.2-8.3-9.6
				c-0.7-0.1-1.5-1.2-1.9-2c-1.7-2.6-4.5-3.3-6.7-1.8c-3.1,2.3-6.3,5.1-7.6,8.4c-1.1,2.8,1.1,6,4.8,7.4c0.7,0.2,1.1,1.1,1.4,1.5
				l-12.8,2.9c0,0.5,0,0.9,0,1.4c4.5-1.9,7.4,0.5,9.4,3.4c2.6-0.6,2.4-4.6,6.1-2.3c4.6,3.1,10.7,4,13.8,9.2c0.8,1.4,2.4,2.2,4,3.6
				C1047.8,323.6,1052.1,327.9,1055.5,326.2z M1206.7,270.7l10-1.6l4.5,4l3.2-2.6c-6.6-5-6.6-5-11.6-2.3l-3.5-2.2L1206.7,270.7z
				 M1083.3,249.9c-5.8-4.4,0.2-8.7-1.2-13.1c-2,2.2-4.3,4.3-4.8,6.7c-0.5,2.5,0.8,5.1,1.4,8L1083.3,249.9z M1020.3,191.1l-0.9,1.1
				c1.1,1,2.3,2.8,3.5,2.9c1.6,0.1,4.2-0.7,4.9-1.8c1-1.7,1.4-4.3-2-5.3l-1.8,3.3L1020.3,191.1z M930.6,370.5
				c11,7.9,12.9,8.5,14.5,4.1L930.6,370.5z M1040.4,177.7l7.4-3.7c-0.7-1.6-1-3.7-4.5-2.7C1038.7,172.6,1038.9,175,1040.4,177.7z
				 M862,219.7c1.7,2,3.2,4.1,4.8,5.8c0.7,0.6,1.5,0.7,2.3,0.5c0.7-0.6,1.1-1.5,1.1-2.4C869.9,221.2,865.3,218.9,862,219.7
				L862,219.7z M1005.9,286.7c-1.7-1.4-3.5-2.5-5.4-3.5c-0.5-0.2-2.5,1.9-2.4,2c0.9,1.5,2.2,2.8,3.6,3.9
				C1002.1,289.3,1003.7,287.9,1005.9,286.7L1005.9,286.7z M717,313.4l-2.6-4.8l-5.4,8.3l0.9,0.8L717,313.4z M1114.7,217.1
				c-1.1,1.4-2.3,2.4-2,2.6c1.5,1.9,3.1,3.7,4.6,5.6c0.7-0.6,1.9-1.5,1.8-1.6C1117.9,221.6,1116.5,219.7,1114.7,217.1z
				 M1118.3,421.3l1.1,0.6l5.7-8.2l-1.9-1L1118.3,421.3z M676.5,418.6c0.3-1.9,0.6-3.9,0.9-5.8C673.8,414.4,673.2,416.3,676.5,418.6
				z"/>
			<path class="st1" d="M998.5,629.3c-3.1,5.9-5.9,11.8-9.3,17.6c-5,8.7,1.1,13.5,7.6,17.9c4.9,3.3,9.4,1.9,14.3-1.2
				c7.3-4.8,14.3-4.4,15.9,5.4c1.4,8,6.7,9.7,13.8,11.3c-1.6,1-3.3,1.9-5,2.6c-7.1,2.2-10.9,7.5-12.7,13.6c-2.5,9-3.5,18.4-5.7,27.5
				c-2.9,12.6-5.8,25.3-9.9,37.6c-1.7,4.9-6.5,9.1-10.5,12.9c-5.4,5.2-3.7,13-1.6,18.2c1.4,3.3,3.7,6.2,5.9,9.2
				c0.7,0.9,1.7,1.6,2.8,1.9c4.4,1.4,6.8,4.2,6.9,8.5c0.1,4.3,3.6,6,5.8,8.8c1,1.2,1.1,3.2,1.6,4.9c0.7,2,1.9,4.2,1.8,6.2
				c-0.1,3.5,2.3,3.3,4.6,4.2c4.3,1.6,8.3,3.9,12.1,5.8c-0.9,2.5-3.3,5.9-2.4,7.1c2.3,3.2,0.1,10.9,8.2,8.5
				c2.3,10,0.3,18.1-9.3,22.9c0.9,2.2,1.9,4.2,3.3,6.2c1.8,2.4,0.3,3.9-0.6,5.9c-0.9,1.8-1.7,4.2-1.1,6c1.2,4.4-0.6,7.4-3.9,10.2
				c-1.4,1.2-2.4,2.8-3.1,4.5c-1.1,2.9-2.2,5.7-5.8,6.6c-1.1,0.2-1.8,1.7-2.8,2.6c1,0.7,1.9,1.4,2.9,2.2c1.4,1,2.7,2.2,4,3.2
				c2.2,1.9,4.2,4.2,6.7,5.4c0.9,0.5,3.9-0.7,4.5-1.9c3.3-5.2,8-5.8,13.6-4.5c3.2,0.7,6.2,0.9,7-3.4h1.2c0.2,1,1.1,2.3,0.7,2.9
				c-2.2,4-4.5,7.7-7,11.6c-2.3,3.5-5.3,6.7-6.6,10.4c-1.2,4-3.6,7.6-6.8,10.3c-2,1.7-4.3,3.6-2.5,6.7c2.2,3.7,6.5,5.6,10,4.5
				c0.5-0.1,0.8-0.1,1.2-0.2c-0.1,0.3-0.2,0.8-0.5,1.1c2.3,0.9,4.5,2.5,6.8,2.6c3.4,0.2,4.1-2.9,5.7-5.3c2.3-3.3,5.1-7.3,8.7-8.5
				c9.1-3.1,12.5-10.1,16.3-17.2c0.9-1.8,2-3.5,3.4-5.1c2.3-2.8,4.9-5.6,7.6-7.9c2.7-2.3,6.1-3.7,9.2-5.7l3.1-1.8
				c5,0.2,5.8,3.3,5.2,7.3c0,0.1,0,0.2,0,0.5c0.9,5.8,12.7,17.9,18.7,18.7c4.2,0.6,8.4,0.1,13.5,0.1c1.1,0.8,2.3,1.6,3.4,2.5
				c0.9,0.8,2.5,1.9,2.4,2.8c-0.6,4.6,2.3,7.7,5.6,10.5c-2.7,3.5-5.1,6.8-7.8,9.7c-0.7,0.7-2.4,0.5-3.6,0.7c-2,0.3-4.5,0.2-6,1.4
				c-0.9,0.7-0.5,3.2-0.6,4.9c-0.1,1.7-0.2,3.4-0.6,5c-0.8,3.2-3.3,6-0.2,9.6c0.8,1-0.1,4.1-1.1,5.6c-2.9,4.4-6.5,8.5-9.5,12.8
				c-0.8,1.1-1.1,3.3-0.5,4.2c0.7,0.9,2.8,0.9,4.3,0.8c5.2-0.7,10.3-1.8,15.4-2.2c0.9-0.1,2.8,2.5,3.1,4.1c0.2,2.8,0.3,5.7,0.1,8.4
				l-13.8,4.9h-39.1c1.6-1.1,3.2-2.3,4.8-3.6c1.1-1.1,2.9-2.7,2.7-3.9c-1-5.4-9.7-9.3-15.2-6.7c-0.1,1.8-0.1,3.5,0,5.3
				c0.3,3.2-1,4.5-4.1,3.2c-2.7-1.1-5.4-2.6-7.8-4.3c-1-0.8-1.9-3.6-1.4-4.1c3.9-3.6,0.7-4.2-2-5.1c-1.6-0.6-3.4-1.7-4.9-1.4
				c-2.8,0.5-6.2,1.1-8.2,2.9c-1.2,1.1-1.1,4.9,0,6.6c2.3,3.9,5.4,7.3,8.3,10.9h-7.8c0.2-0.9,0.6-1.9,0.8-2.8
				c0.2-0.9,0.5-2.8,0.2-2.8c-3.9-1.2-7.9-3.6-11.6-2.9c-2,0.5-4.2,0.5-6.1-0.1c-4.5-1.4-7.5-5.3-12.5-6.5c-7-1.6-9.5-1.4-12.8,5
				c-0.3,0.6-0.7,1.2-0.9,1.8c-2.3,5.1-2,5.7,2.9,8.5h-47.8c-0.6-1.4-1.1-2.7-2-5c2.2,0.7,4.4,1.2,6.7,1.7c1.6,0.2,4.1,0.3,4.6-0.5
				c2.4-3.5,5-6.8,4.4-11.7s-2.6-6.6-7.3-7.8c-4.1-1.1-7.7-4-11.6-6c-2.5-1.2-5-2.4-8.3-4l9.6-6.9c1.6,3.4,3.6,5.3,7.5,2.8
				c0.7-0.5,2.4,0.5,3.6,0.9c3.2,1,4.3,0,4-2.9c0-1.2,0.2-2.4,0.6-3.6c1,0.6,2,1,3.1,1.6c1.5,0.9,2.9,1.8,4.5,2.7
				c-4.5,3.9-6.2,12.6-3.2,15.5c4.4,4.3,11.4,4.3,15.8-0.1c0.5-0.5,0.8-0.9,1.1-1.4c-0.6-2.5-1-4.5-1.5-6.7l0.9-0.7
				c4,2.7,6.1,0.8,7.7-2.3c1.7-3.4,3.9-6.8,4.9-10.4c1.8-6-1.8-9.6-8.4-10.9c-5-1-9.6-3.4-14.5-5.2s-9.9-3.4-14.8-5
				c-2.2-0.7-4.4-1-6.3-2.4l-9.1,0.7c-2.5,6.7-7.7,0.8-11.6,2.4c-0.1-0.3-0.3-0.7-0.5-1c0.7-0.6,1.4-1,2-1.5
				c2.7-1.5,2.8-3.2,0.7-5.2c-0.9-0.7-1.6-1.6-2.2-2.5c-1.1-2.7-2.7-4.4-6.2-3.7c-3.9,0.7-6.9,2.5-7.9,6.1c-0.3,1.1,1.6,2.9,2.9,5.3
				c-0.9,3.5-3.3,0.6-5.4-0.2v-4.1c-3.7-0.2-7.4-0.6-11-0.8c-3.9-0.2-6.2,2.3-5.3,5.7c-7.1,1.7-13.1-1.4-17.6-5.6
				c-2.6-2.4-0.6-8.4-5-11c1.2-1.2,2.4-2.9,3.9-3.5c5.6-1.9,6.5-2.7,8.2-9.6l-8.8,4.1c-0.3-4-0.9-7.6-6.3-5.2
				c-3.5-8.2-9.7-13.1-18.5-15.1c-5-1.1-6-0.3-7.7,4.3c-0.2,0.7-1.8,1-2.8,1.4c-2.6,0.9-5.9,1.1-7.7,2.8c-1.8,1.7-2,4.5-2.9,7
				c-8.6-1.9-16.2-12.7-14.5-22.4c0.6-2.9-0.3-4.2-2.9-4.9s-3.6-2.5-2.5-4.8c2-4,4.8-7.7,6.2-11.9c0.9-2.6,0.2-5.8-0.1-8.6
				c-0.2-1.4-0.8-2.7-1.8-3.7c-6.3-7.7-2-16.4-2.8-24.6c-0.8-8.5,2.3-16.3,3.1-24.5c0.3-3.9,1.1-7.7,1.4-11.4
				c0.3-6.9,1.4-13.7,5.4-19.7c1.6-2.5,2.8-5.1,4-7.5c2.3,0.9,4.8,2.8,6.7,2.5c3.5-0.8,6.8-2.2,9.6-4.2c1-0.7,0.9-3.3,0.9-4.9
				c0-2.6-0.5-5.3-0.8-7.9l1.2-0.5c1.5,1.5,2.9,3.2,4.3,4.8c3.2,4.3,7.9,5.7,12.2,2.4c7.4-5.4,16.1-10,19-19.4c1-3.2,1-6.7,1.6-10
				c0.3-2,0.3-4.3,1.4-6c3.4-5.7,3.1-8.6-1.6-13.5c-1.9-1.9-3.1-4.5-4.5-6.9l-4.5,2.7c0.2-0.9,0.6-1.7,0.9-2.5
				c5-6.1,2.7-12.6,1-18.9c-3.5-13.4-7.4-26.5-10.5-39.9c-0.9-3.7-0.2-7.9,0.3-11.9c1.4-8.2,3.1-16.2,4.8-24.8
				c2.2,1,4.5,2.6,7.1,3.4c3.5,0.8,7.1,1.4,10.7,1.7c1.1,0,2.3-0.1,3.4-0.2c7.9-0.2,13-4.5,16.8-10.8c0.9-1.6,2.3-2.9,3.2-4.5
				c3.2-5.4,7.6-8.2,14.4-8c6.3,0.1,9.1-4.5,7.3-10.5c-2.8-9.5-3.4-18.9,0.5-28.4c2.3-5.8,7-10.3,13-12.2c1.1,2.7,2.2,5.1,2.9,7.5
				c0.3,1,0.1,2.2-0.5,3.1c-2.5,3.3-2.6,6.3-1.4,10.4c1.1,3.7,0.3,8,0,12.1c-0.2,2.8-1.4,5.4-1.6,8.3c0.1,1.1,0.7,2.2,1.6,2.8
				c3.3,3.2,4,6,1.1,9.4c-1.9,2.4-1.4,4.1,1,4.9c4.8,1.7,9.1,5.1,14.7,3.6c1.9-0.5,4-0.6,5,2.4C994.5,632.2,996.8,630,998.5,629.3
				L998.5,629.3z M961.7,739.7c0.8-0.8,2.8-2,3.4-3.7c1-2.9-3.3-9.6-5.7-9.1c-3.2,0.8-7,2.5-8.5,5C949.3,734.6,955,739,961.7,739.7
				L961.7,739.7z"/>
			<path class="st1" d="M17.5,807.8c3.3,2.3,6,5.9,10.9,4.9c1.6-0.3,3.1-1.5,5.2-2.5c1.4,1.9,3.6,4.4,5.1,7.5c0.9,2,0.9,4.8,0.7,7.1
				c-0.2,3.6,0.8,4.6,5.1,3.6c1.1,3.2,2.2,6.2,3.3,9.4l-1,0.6l-1.9-1.7c-4.5,1.9-2.2,5.2-1.7,8c0.5,3.2,0.7,6.3,1,9.5
				c0.2,1,0.5,2,0.5,3.1c-0.2,2,0,4.5-1.1,6c-3.5,4.5-2.3,9.1,3.6,10.4c2.3,0.6,3.3,1.2,3.5,3.7c0.3,4.9,1.9,5.7,6.8,4.1
				c1.7-0.6,8.5,2.2,9.4,3.7c0.5,0.7,1,1.2,1.7,1.7c2.8,1.9,6.1,3.4,8.4,5.8c2.2,2.2,3.2,5.3,4.5,7.9c11.4-1.8,7.9,7.5,10.4,12.2
				c2.8,0.2,4.9-0.2,3.6-3.7c4.4,0.8,7.8,4.2,9,8.5c1,3.7,3.2,7.1,6.2,9.7c3.1,2.7,4.5,6.9,7,10.2c1,1,2.4,1.8,3.7,2.2
				c1.5,0.6,4.3,0.6,4.3,1c0.3,2.2,0.1,4.3-0.7,6.3c-0.9,2.3-2.6,4.3-3.7,7.8c-3.1-0.9-6.3-2.9-9.3-2.6c-3.3,0.3-7.3-3.1-10.1,1.9
				c-1.9,3.3-9.7,1.6-11.7-2c-1-1.5-2-2.9-3.3-4.3c-1.1-1.4-2.2-2.6-3.7-4.5c-4.3-0.5-9.7-7.4-7.9-12c1.5-3.9-0.9-4.3-3.5-4.6
				c-7.5-0.9-13,2.5-17.7,7.6c-0.5,0.6-0.9,1-1.4,1.6c-4.2,5.6-5.2,12.9,4.2,15.1c1.4,2.5,1.9,5,3.5,6.1c1.1,0.8,3.6-0.2,5.6-0.6
				l1.1,5.1c-4.4,2.2-4.9,4-1.7,8.3c4.1,5.4,3.3,11.7-1.6,14.6c0.1,1.8,0.3,3.6,0.7,5.4c0.5,1.5,1,2.9,1.7,4.3l-7.5,2.7
				c-6.8-4-10.1-3.1-14.8,5.1c-2.7,4.8-6.1,9.4-4.6,15.5c0.2,1-0.8,2.7-1.8,3.5c-3.7,2.8-7.3,5.6-4.3,10.9c0.3,0.6-0.3,1.6-0.6,2.4
				H17.9L17.5,807.8z"/>
			<path class="st1" d="M702.8,137.5c0.2,1.4,0.9,2.9,0.6,4.2c-0.5,1.4-1.5,2.5-2.8,3.2c-1.7,0.6-3.7,0.1-5.6,0.1
				c-6.6,0-6.6,0.1-5.7,6.9l3.6-0.2c0.2,0.3,0.5,0.7,0.3,0.8c-2.7,2.3-1.7,4.1,0.9,5.4c3.9,2,5.1,5.4,6.6,9.2
				c3.4,8.3-1.5,13.1-6.2,18.7c-3.2,3.7-6,7.7-9,11.7c-7.1,9.6-16.8,17-28,21.3c-8,3.2-15.4,8-23.5,11.3c-5,2-10.7,2.5-16,3.6
				l-1.4-1.7c2.3-4.4,4.3-9.1,6.8-13.4c2.8-4.6,6.2-9,9.2-13.4c0.7-1,1.5-2.6,1-3.5c-2.2-4.4,0.1-9.2-1.1-13.6
				c-0.3-0.8-0.8-1.5-1.4-2c-10.5-10.4-21.4-20.3-37.2-22.9c-7.3-1.2-14.5-2.3-21.8-3.3c-5-0.7-10-1.2-15-1.8l-0.5-1.1
				c1.4-0.8,2.8-1.5,4.3-2c11.7-3.5,23.7-6.2,34.3-12.5c2.3-1.5,4.3-3.2,6.3-5L702.8,137.5L702.8,137.5z"/>
			<path class="st1" d="M17.5,395c1.8,8.4,4.4,16.8,10.7,23.1c4.8,4.8,10.3,8.7,16.3,11.7c6,2.9,9,0.9,10.4-5.4
				c0.1-0.7,0.2-1.4,0.3-2.3c8.7,0.9,14.5,5.8,20.2,11.2c1.7,1.7,3.4,3.3,5.3,4.6c5.1,3.7,10.7,7,15.5,11.1c6.2,5.3,12,11.2,17.9,17
				c1.6,1.6,2.8,3.4,4.5,5.2c-5.3,2.7-8.3,5.9-6,11.8c0.5,1.1-1,2.9-1.7,4.4c-1.4,2.6-2,4.9,1.1,6.8c5,3.3,3.3,8.4,3.5,13
				c-0.3,0.1-0.8,0.6-1.1,0.5c-4.1-1.5-8-3.2-12.2-4.5c-2.3-0.7-4.9-0.7-7.3-1.1c-1.4-0.2-3.1-0.3-4-1.1c-5.4-4.4-7.8-4.5-12.7,0.2
				c-3.3,3.2-6.7,6.2-7.3,11.2c-0.1,1.4-4.2,3.9-5.1,3.4c-2.5-1.2-5.4-3.5-6.2-5.9c-1.5-4.2-0.7-9.1-2.3-13.1
				c-1.4-3.4-4.5-6.2-7.5-8.8c-3.2-2.5-6.5-4.6-10.1-6.5c-7.5-4.3-11.9-10.3-12.7-18.9c-0.7-6.6-1.9-13.1-3.9-19.5
				c-0.9-3.3-3.7-6-5.7-9.1L17.5,395z"/>
			<path class="st0" d="M1069.8,1034.5c-2.8-3.6-6-7-8.3-10.9c-1-1.8-1.1-5.6,0-6.6c1.9-1.8,5.3-2.5,8.2-2.9
				c1.5-0.2,3.3,0.9,4.9,1.4c2.7,0.9,6,1.5,2,5.1c-0.6,0.5,0.3,3.3,1.4,4.1c2.5,1.7,5.1,3.2,7.8,4.3c2.9,1.4,4.4,0,4.1-3.2
				c-0.1-1.8-0.1-3.5,0-5.3c5.4-2.6,14.2,1.2,15.2,6.7c0.2,1.1-1.6,2.7-2.7,3.9c-1.5,1.2-3.1,2.5-4.8,3.6L1069.8,1034.5z"/>
			<path class="st0" d="M1022,1034.5c-5-2.7-5.1-3.3-2.9-8.5c0.2-0.6,0.6-1.2,0.9-1.8c3.3-6.3,5.8-6.6,12.8-5
				c5.1,1.1,7.9,5.1,12.5,6.5c2,0.6,4.1,0.6,6.1,0.1c3.5-0.6,7.7,1.7,11.6,2.9c0.2,0.1-0.1,1.9-0.2,2.8c-0.1,0.9-0.5,1.9-0.8,2.8
				H1022L1022,1034.5L1022,1034.5z"/>
			<path class="st1" d="M56.7,137.5c-0.9,1.9-1.4,4.2-2.8,5.6c-1.9,1.7-4.5,2.6-6.9,3.7c-1.7,0.9-1.1,6.1,0.9,8
				c1,0.8,2.2,1.6,3.4,2.2c-1.1,0-1.8,0.2-2,0c-4-3.7-9.2-5.4-13.8-7.9c-0.8-0.5-1.7-0.8-2.6-1.1c-6.1-1.8-11.2-4.9-14.3-10.7h38.2
				V137.5z"/>
			<path class="st1" d="M377.6,448.4c4-4.4,2.5-8.4-2.5-11.2c-3.6-2.2-6.2-6.1-9-9.5c-0.3-0.3,1.1-2.4,2-3.3
				c3.6-3.4,7.7-6.6,11.1-10.2c3.2-3.5,2.3-6.6-1.9-8.8c-0.7-0.3-1.5-1.4-1.4-1.8c0.3-1,1-1.9,1.9-2.5c2.2-0.8,4.4-1.2,6.7-1.5
				c5.2-0.1,10.4,1.7,15.9,0.5c0.9-0.1,2.5,1.6,4.8,2.9c-8.4,0.7-15.8,0.9-22.4,4.4c1.7,3.2,3.5,4.1,6.9,3.1
				c3.7-1.1,7.7-1.4,10.3,2.7c0.5,0.8,2.4,1.1,3.5,0.9c5-0.7,9.7-2.3,14.8-0.3c1,0.5,3.4-1.1,4.5-2.4c1.7-2,4.5-2.7,6.9-1.6
				c1.6,0.6,3.6,0.1,5.4,0.5c2.4,0.5,4.6,1.1,6.8,2.3c4.4,2.6,7.6,1.6,9.1-3.1c0.5-0.9,0.9-1.8,1.5-2.7c7.9,4.5,15.2,2.4,22.3-1.7
				c2.2,4.5,5.9,7.4,10.9,8.8c1.2,0.6,2.2,1.6,2.5,2.8c0.2,1.8,0.2,3.6,0.1,5.3c0,1-0.3,2.2,0.1,2.8c2.4,3.7,5,7.5,7.4,11
				c-0.5,3.2,0,6.9-1.6,9.7c-2.9,5.1-0.5,12-6.3,15.9c0.9,3.9-5.3,7.7,1.4,12.2l-10,1.7l-0.1,1.5c4.9,2.3,9.1,5.2,14.5,7
				c6.5,2.3,15.2,1,19.3,8.5c0.3,0.7,1.7,0.9,2.6,1.1c5.1,1.6,10.4,2.8,14.1,7.1c1,0.9,2.3,1.6,3.6,2c3.3,1.4,5.3,0.6,5.4-3.2
				l0.9,0.1c2,0.3,4.6,0,6,1.1c1.2,1,0.5,4.4,1.6,5.1c9.9,6.3,15.8,16.8,26.9,22.2c7.1,3.4,10.8,11.2,14.3,18.2
				c0.5,1.1,1.1,2.2,1.9,3.2c3.3,3.6,6.8,7,9.9,10.7c1.1,1.4,1.9,3.1,2,4.9c0.2,6.9,4.6,10.9,10.4,14.2c2.8,1.5,5.7,3.3,8.2,5.3
				c2.7,2.4,5,5,9.3,4.3c0.8,0,1.7,0.3,2.3,0.9c4.5,4.3,10.5,4.2,16.2,4.8c3.5,0.3,7.1-0.2,10.7,0.2c2.5,0.2,5,1.4,7.4,2
				c2,0.6,4.3,2,6,1.6c3.6-0.9,5.7,0.1,7.6,2.8c1.2,1.7,3.3,2.8,4.4,4.5c1.1,1.7,2.6,4.1,2.6,6.1c0,3.3,1.7,4.8,4,6.7
				c5.1,4.3,10.2,8.8,9.3,16.3c-0.5,3.4-1.1,6.8-2.2,10.1c-0.5,1.2-1.5,2.3-2.8,2.6c-4.1,0.8-8,1.1-11.6,3.9
				c-1.7,1.2-5.2,0.1-7.8,0.5c-3.7,0.6-4.3,2.2-2.4,5.3c4.6,7.5,4.6,7.5-3.2,12.2c-1.9,1.2-2.5,4-1.2,5.9c0.5,0.7,1.1,1.2,1.9,1.6
				c3.7,1.6,7.1,3.9,10.3,6.5c3.2,2.6,8.3,3.3,12.6,4.3c3.7,0.9,5.8,3.2,8.4,5.7c3.5,3.4,2.8,6.8,3.3,10.4c0.3,1.6,1.5,2.9,3.1,3.6
				c2.7,0.6,4.5,1.4,4.9,4.3c0.1,0.8,1.9,2.2,2.6,2c1.9-0.6,4.4-1.4,5.3-2.8c1.4-2.3,1.6-5.1,2.3-7.9c4.2,0.2,5.6-1.6,3.1-5.4
				c-0.2-0.3-0.3-0.8-0.3-1.1c0.9-4,1.1-7.8-3.5-10.9c3.4-1.6,5.3-2.3,8.5-0.9c2.2,0.9,6.2,0.5,7.8-1c2.5-2.2,4.4-2.3,7.1-1.5
				c1.5,0.5,3.2,0.2,4.6,0.6c1,0.2,2,0.7,2.9,1.4c1.5,1.4,2.6,3.2,4.2,4.3c2.3,1.7,2.7,3.1,1.6,5.9c-1.7,4-3.7,8.4-0.6,12.6
				c3.6,4.8,7,5,12.2,0.9c1.5,2,2.7,4.2,4,6.3c0.6,1.4,0.8,2.8,0.8,4.2c0.1,2.3-0.1,4.5,0.1,6.7c0.2,2.5-3.7,6.9-6.8,7.5
				c-9.5,1.6-13.1,4.8-15.3,13.1c-0.3,1.2-1.5,2.9-2.6,3.2c-1.5,0-2.9-0.6-4-1.7c-4.2-4.5-7.8-5.2-12.7-1.6
				c-2.5,1.8-4.8,2.6-7.4,0.5c-0.7-0.6-1.5-0.9-2.4-1c-6.8,0.2-7.7-4.6-9.3-9.1c-0.2-0.9-1.1-2.3-1.5-2.3c-4.4,0.5-7.4-3.5-10.8-4
				c-4-0.6-8.6,1.6-12.6,3.3c-2.6,1.1-4.6,3.4-6.9,5.1l-0.8-0.9l10-7.9c-4.2-4.9-8.2-4.1-13.6-1.8c-5.2,2.2-1.4,4.8,0.7,7.5
				c-1.2,0.7-2.5,1.2-4,1.6c-4.6,0.6-7,3.5-8.5,7.3c-1.5,3.7,0,4.9,4,5c1,0,3.1,2.3,2.8,2.8c-0.8,2.2-2,4.2-3.5,5.9
				c-2.4,2.5-3.7,5.9-3.6,9.4c-0.2,6.1,3.9,7.3,7.7,9.3c1.5,0.8,3.6,0.6,2.3,3.1c-1.1,1.9,0.2,5.8-4.6,4.6c-3.2-0.8-7.3,1.9-7.8,5
				s0.2,5.3,3.9,6.9c1.8,0.8,2.8,3.9,3.6,6.1c0.6,1.5,0.1,3.2,0.1,5.1l-6.2,2.9c-2.5,1.1-3.9,4.6-1.9,6.2s2.3,5.4,6.3,4.1
				c0.8,0.9,1.4,2,1.6,3.2c0,2.7,1.1,4.1,3.7,5.3c3.9,1.7,6.5,5.3,6.8,9.6c0.7,6.1,6,10.9,11,10.3c0.2,2.9,0.8,6,0.5,9
				c-0.2,2.6-1.7,5.2-2.3,7.8c-1.5,6.6-0.7,13.6,2.9,18.8c4.6,6.8,9.9,13.8,17.7,18.1c6.7,3.6,12.9,7.9,19.7,11.2
				c5,2.4,10.4,3.9,15.9,5.4c0.9,0.2,2.4-0.6,3.5-1.1c5.4-2.7,7.9-2.3,13,1.9c1.1,0.9,3.6,0.8,5.1,0.2c2-0.9,4-2.2,5.7-3.6
				c3.3-2.6,5.8-1.6,7.8,1.5c1.9,3.2,5.6,5,9.2,4.4c-2.6-2.8-4.8-6.2-7.8-8.3c-4.9-3.2-4.9-8-6-12.4c-0.9-3.5,2.3-5.3,5.9-3.4
				c2.7,1.4,5,3.6,7.6,5.3c3.2,2.2,6.5,4.3,9.5,6.3c0.1,2.3,0.5,4.4,1,6.6c1,2.7,0.9,4.8-1.6,6.6c-0.7,0.6-1.2,1.1-1.8,1.7
				c-3.9,3.7-4.1,5.4-1.4,10.1l1.8,2.9c-1.2,2.5-2.6,5-3.6,7.6c-0.3,0.9,0.6,2.2,0.6,3.3c0,1.6,0.1,3.4-0.7,4.8
				c-0.5,0.7-2.6,0.7-4,0.7c-3.5,0-5.8-2.3-8.4-4.1c-9.2-6.5-20.2-6.9-30.8-8.3c-14.5-1.9-29.1-3.7-43.7-5.3
				c-6.3-0.7-12.8-0.3-19.3-0.6c-1.4,0.1-2.7-0.1-4-0.8c-8.3-5.4-15.5-3.9-22.8-2.8c-0.2-1.6,0-3.6-0.9-4.8
				c-0.7-0.9-3.1-1.1-4.3-0.8c-3.4,1.1-5.9,0.2-6.8-2.8c-1.4-4.4-5.8-3.2-8.6-5.1c-0.3-0.2-2.6,1.2-2.9,2.3c-1.9,5.3-1.8,5.3-8,8.8
				c-2.3-3.7-4.2-7.7-6.8-11.1c-3.2-4-6.6-7.7-12.1-9.3c-2.9-1-5.7-2.7-7.9-4.8c-2.5-2-3.4-4.6-2.9-8.3c0.5-3.6-4.2-3.5-7.3-4.4
				c0.8-2.8-0.6-3.2-3.1-1.5c-2.5-3.9-4.8-4.3-8.7-2.4c-10.4-2.2-15.6-8.3-16.7-17.8c3.4-3.4,3.3-4.5-1.6-9.2
				c0.3-5.7,3.3-8.5,9.3-10.1c5-1.2,5.2-3.5,3.4-8.5c-0.9-2.4-2.5-4.8-0.6-7.4c0.5-0.6,0.1-1.9-0.5-2.6c-3.1-4.6-17.1-9.3-21.9-6.7
				c-2.4,1.6-4.1,4-4.9,6.7c-0.7,2.4-1.2,3.6-4.1,3.7c-1.1,0.1-3.1,1.8-2.9,2.3c1.1,3.5,2.2,7.3,4.2,10.3c2,3.1,2.4,4.6-1.8,7.3
				l1.6-5.7c-4.6,0.9-8.6,4.9-13.7,1.1l3.2-3.4c-2-3.5-3.4-1.1-5.4,1.5c0.1-2.3,0.2-3.5,0.2-4.8c-6-3.3-7.8-2.5-9.4,3.6
				c-0.3,1.5-1.8,2.6-2.7,3.9l-4.4-4.8l-8.3,7c-2.3-3.9-4.5-7.4-6.5-11c-0.3-0.8,0.7-2.2,0.9-3.1c-4.6-3.2-9.3-6.2-13.8-9.6
				c-0.9-0.7-1-2.5-1.7-4.3l-11.2-1.7c-2.2-2.7-5.3-3.5-10.8-3.1c-4.4,0.5-10.3,0.7-15.2-4.3c-4.3-4.5-8.5-9.2-12.2-14.2
				c-0.8-1-3.5-1.4-5.1-1c-4.6,0.9-10.8-0.7-13.3-4.3c-0.9-1.4-0.3-3.4-1-4.9c-3.1-6-5.7-12.4-13.7-14.4c-4.2-1-10-12.5-9.1-16.8
				c1.5-7.5,0-9.2-8.2-9.5c-6.3-0.3-9.6-4.9-7.5-10.7c1.8-5-0.6-10.3-5.7-11.3c-5.1-1-6.6-4.3-6.6-8.4c0-2.7-1.1-5.4-3.3-7.3
				c-6.2-6.2-10.8-13.4-10-22.6c0.1-1.8,0.5-3.9-0.2-5.3c-2.7-5.4,0.1-10.1,2.5-14.5c1.2-2.3,4.3-3.7,7.3-6.1l-4.3-4.3
				c-0.3-2.4-1-6.1-1.4-9.9c-0.3-1.7-0.2-3.5,0.2-5.3c1.8-4.5-1.1-7.3-4.2-9.5c-1.9-1.4-4.6-1.8-7-2.6l-0.5,1l-3.5-5.2
				c2.2-2.4,0.9-5-1.8-6.2c-7-3.4-7.7-10-9.6-16.1c-0.7-2.3-1.7-4.4-3.2-6.2c-3.2-3.7-2.7-7.8-1.9-12c0.1-0.6,0.5-1.2,0.2-1.6
				c-5.4-5.4-0.3-9.6,1.9-14.1c0.8-1.6,1.6-3.3,2.4-4.8c3.4-6.2,5.8-6.2,10.2-0.7c1.8,2.3,4.5,4,6.9,5.8c5.9,4.6,13,2.9,19.8,3.2
				c2.6,0.1,3.6-0.9,3.5-3.4c-0.1-4.9,0.2-9.4,3.6-13.6c2.2-2.6,2.6-6.6,3.5-10c0.2-1-0.7-2.4-2.3-3.7c-0.5,0.9-1.4,1.7-1.4,2.5
				c-0.2,4.5-2.9,7.4-6.9,8.8c-6.1,2.3-10.2,5.9-12,11.9c-0.6,1.1-1.2,2.2-2,3.1c0.2-7.6,1.5-15.4-9.9-12.5
				c-0.1-1.2-0.3-2.6-0.6-3.9c-0.2-0.9-0.7-2.5-1.1-2.5c-5.3-0.1-6.8-4.3-9.3-7.5c-0.8-1-1.5-3.1-1-3.9c2.4-4,4.6-8,8.4-11.2
				c1.4-1.1,1.6-4.2,1.1-6.2c-0.5-2.5-2.3-4.8-3.1-7.3c-0.9-2.8-0.9-5.8,2.4-6.6c2.6,0.5,5.8,1.9,7.6,0.9s2.2-4.4,3.2-6.9l6.7,3.6
				c-1.6,1.6-3.1,3.2-4.5,4.8c-2.6,3.1-2.2,4.6,1.4,6.5c3.5,1.8,3.9,4.3,0.9,7.9c2.3-0.1,4.5-0.1,6.7,0.1c1.7,0.2,3.3,0.8,4.5,1.7
				c5,4.1,5,4.2,10-0.9c1.8,4,3.4,7.8,5.4,11.3c0.9,1.5,2.9,2.4,5.1,4c-1.6-4.9-3.1-9.1-4.3-13.4c-0.3-0.8-0.5-1.8-0.2-2.6
				c2.5-4.4-0.1-7.7-2.6-11c-0.9-1-2.2-1.6-3.5-1.7c-5.6-0.3-9.7-5.1-9.4-10.5c0-0.5,0.1-0.8,0.1-1.2c0.3-1,0.6-2.2,0.7-3.3
				c-0.1-5.3,0.3-5.7,5.3-3.4c3.2,1.5,6.2,3.7,10.1,1.2c0.7-0.5,2.2,0.2,3.3,0.3c3.4,0.3,9.1-3.7,9-6.9c0-0.9-1.9-1.8-3.7-3.4
				c0.3-1.2,1.9-2.4,4.6-2.9c1.7-0.5,3.2-1.4,4.2-2.7c3.4-4.2,6.2-8.8,9.7-13c1.9-2.3,2.6-4.3,0.7-6.6c-3.4-3.9-6.9-7.7-10.4-11.4
				c-1.6-1.7-3.1-1.5-4.8,0.2 M347.6,458c2.8-2.5,5.8-5.1,8.7-7.5 M534.9,554.5c-0.5,2-0.9,4.2-1.1,6.2c0,1,0.5,2,1,2.8
				c0.2,0.3,1.7,0.2,1.8,0.1c0.3-0.8,0.5-1.7,0.3-2.6C536.5,558.8,535.7,556.6,534.9,554.5c3.1-6.1-4.5-10.3-3.2-14.8
				c-1.6-1.6-3.3-3.2-5.1-4.5c-0.9-0.6-2-0.8-3.2-0.6c-1.1,0.3-2.2,0.8-3.2,1.4c0.7,3.9,0.5,8.6,6.8,8.3c0.1,0,0.2,0.2,0.3,0.2
				C532,546.3,534.6,549.6,534.9,554.5z M560.3,585.1c3.6-5.1-0.1-8-2.8-11.4c-2.9-3.6-8.7-5.6-13.1-4c-2.7,0.9-3.6,4.2-2.4,6.8
				c0.9,2,1,4.3,1.7,6.3c0.6,1.8,0.9,4.2,2.2,5c1.4,0.8,3.7-0.2,5.4-1c1.6-0.9,3.2-2.2,4.5-3.4L560.3,585.1z M429.4,693.4
				c4.3,6.6,8.5,12.9,12.7,19.3l1.5-0.5c-0.6-1.4-1-2.8-1.4-4.3c-0.3-1.6-0.9-3.5-0.3-4.9c1.1-2.4,3.1-4.4,5.3-7.4l-9.3,0.9
				c-3.7-6.1-4.8-13.9-10.1-20.3c-1.7,2.7-2.9,4.8-3.9,6.3c0.5,2.3,1.7,4.4,1.2,6.1c-0.9,3.3,1.1,5.1,2.6,8.3L429.4,693.4z
				 M508.5,732.3c2.6,0.6,4.8,0.9,6.8,1.6c3.5,1.1,7,2.5,10.5,3.9l0.9-1.4c-1.2-2.6-3.2-5-3.6-7.7c-1.2-7.1-3.2-9.9-9.7-11.7
				c-0.3,1-0.6,2.2-0.8,3.3c-0.2,1.5-0.8,3.3-0.2,4.3c2,3.5,1.7,5.6-2.6,6.5C509.3,731.3,509,731.9,508.5,732.3z M440.9,519.1
				c1.1-0.5,1.6-0.9,1.8-0.8c4.2,2.6,4.5,0.1,4.4-3.1c0-1.1,0-2.3,0-3.3c-0.1-4-6.7-7.3-10.7-5.3c5.1,6.2,3.3,11.4-2,15.1l2.3,3.2
				l7-3.3L440.9,519.1z M531.8,555.1c-0.6-2.3-1.2-4.5-1.8-6.7l-6.5,1.9c-0.8-5.7-4.1-10.4-5.8-10.3c0.6,3.4,1,6.9,1.9,10.3
				c0.2,1,1.7,1.9,2.8,2.3C525.2,553.7,528.1,554.1,531.8,555.1L531.8,555.1z M443.8,647.2c-2.2-1.8-3.7-3.4-5.6-4.8
				c-0.9-0.7-2.4-1.2-3.2-0.9c-0.8,0.3-1.8,2.2-1.5,2.8c1.5,3.3,3.2,6.5,5.1,9.6c0.3,0.6,1.5,0.8,2.2,1.1c-0.2-2.6-0.3-4.8-0.6-6.7
				L443.8,647.2z M486,776.9c2.5,0.3,5.6,0.7,7.4-2.3c0.5-0.8,0.3-3.1,0-3.2c-2.4-0.8-4.9-1.6-7.4-2V776.9z M403.2,565.1l-5.6,3.6
				c1.5,2.3,2.7,4.3,4.3,6.8C404,571.6,407,569,403.2,565.1L403.2,565.1z M391.2,722.1c0.8,0.9,1.5,2.2,2.5,2.6
				c2.5,1.2,3.3,2.7,3.3,5.6c0,1.9,1.7,3.9,2.7,5.8l1.5-0.8C398.4,730.4,400,723.4,391.2,722.1L391.2,722.1z M636.3,612.5l-1.2-1.2
				c-1.8,1.1-3.6,2.4-5.2,4c-0.7,0.8-0.2,2.5-0.3,3.7c1.6-0.3,3.6-0.3,4.5-1.2C635.3,616.4,635.6,614.3,636.3,612.5L636.3,612.5z
				 M532.6,579.1l-1.4,0.3c0,1.8-0.3,3.7,0.1,5.4c0.2,0.9,1.9,1.5,2.9,2.3c0.5-1.2,1.5-2.6,1.1-3.6
				C534.9,581.8,533.7,580.6,532.6,579.1L532.6,579.1z M538.6,656.6c-0.5,2.8,0.3,5,3.4,5.6c0.7,0.1,2.3-1.4,2.3-2.2
				C544.1,656.7,541.6,656.5,538.6,656.6L538.6,656.6z M518.6,562.2l-0.9,1.1c-0.1,1.6-0.3,3.1-0.6,4.6c2.6,1.1,5,0.9,5.1-1.8
				C522.5,564.8,520.1,563.6,518.6,562.2L518.6,562.2z M740,924.9l2.2-1c-0.3-1.4-0.9-2.6-1.7-3.7c-0.2-0.3-2,0.5-3.1,0.8L740,924.9
				z"/>
			<path class="st1" d="M803.9,516.5c4.5-0.5,8.4-1.2,12.1-1c5.7,0.5,11.3,1.2,16.9,2.5c1.4,0.2,2.7,1.9,3.6,3.3
				c1.7,2.5,3.4,3.3,5.7,1c1,2,1.8,4.1,2.5,6.2c0.1,1.2-0.2,2.4-0.8,3.4c-0.2,0.5-1.2,0.7-1.8,1c-5.6,2.9-6.2,6.6-2.5,11.4
				c1.7,2.3,3.1,4.8,4.6,7l-0.9,0.8l7.7,0.7c-0.1,1.1-0.6,2.4-0.2,3.4c0.9,2,1.7,4.8,3.4,5.7c4.8,2.4,9.2-0.1,13.4-2.4
				c2.8-1.4,4.5-4.5,3.9-7.7c-0.2-1.2-0.7-2.4-1.4-3.4c-1.7-3.2-3.4-6.2-5.1-9.3c4.1-2.3,7.5-4.2,4.9-8.8c-0.3-0.6,0.5-1.8,0.8-2.8
				c3.5,1.4,3.4-5.7,7.6-2.8c3.1,2,7.1,1.2,9.2-1.8c0.1-0.2,0.3-0.5,0.5-0.7c0.6-0.9,0.9-2,1.8-4.2c2.6,2.2,4.5,4.2,6.8,5.6
				c3.2,2,6.6,3.7,10.2,5.1c5.9,2.2,12,3.6,17.9,6c3.9,1.6,4.9,7.4,2.8,10.8c-0.8,1.6-1.4,3.2-1.8,4.9c-1,2.7-1.4,6-3.3,7.8
				c-2.6,2.3-4.5,4.3-5.2,7.6c-0.5,1.4-1.4,2.5-2.7,3.1c-3.9,1.7-5.3,5.1-7.6,8.2c-3.3,4.5-7,8.8-11.1,12.6
				c-2.6,2.3-4.6-0.7-6.3-2.8c-1.1-1.4-3.4-3.3-4.5-2.9c-1.8,0.5-3.4,2.5-4.6,4.2c-1.2,1.7,0,2.8,1.9,3.6c2.2,1,4.1,2.6,6.7,4.4
				l-5.6,1.4c-6.6-8-15.6-7-24.5-6.3c-4.1,0.2-8.7,0.9-10.8,5.7c-1.2,2.8-1.2,4.8,1.4,6.8s4.6,4.6,2,7.9c-2.7-0.6-5.4-0.7-7.6-1.6
				c-2.9-1.2-5.9-2.5-5.2-6.9c0.6-3.9-1.8-5.1-5.8-3.9c-4,1.2-8.4,1.8-10.1,6.8c3.5,1.5,7.3,3.1,10.9,4.5c2.7,1.1,4.3,2.4,4.2,5.9
				c-0.1,2.2,2.5,4.6,4.3,6.7c4,4.5,4.1,7.7-0.2,12.2c-0.2,0.3-7.4,9.6-7.4,10c-1.4,6.6,0,0-7,1.1c-5.9-5.2-12.1-12.6-23.5-8.4
				c-0.3-0.8-1.4-2-1-2.8c1-2.7-0.8-3.6-2.6-3.5c-1.4,0-3.6,1.4-4,2.5c-0.8,2.6-2.5,4.2-4.9,3.6c-1.4-0.3-2.9-2.4-3.4-4
				c-1.1-4.1-1.7-8.4-2.6-12.6c-0.1-0.7-0.6-1.9-1-1.9c-0.9-0.2-1.9,0.1-2.6,0.7c-1.2,1.5-1.9,3.4-4.5,2.7c-0.1,0-0.6,0.3-0.7,0.5
				c-1,7.4-8.5,5.6-13,9c-1.1-4.1-5.3-5.9-5-10.8c0.2-2.6-2.9-4.9-6.5-4c-2.7,0.7-3.7-0.3-5-2.5c-1.4-2.3-3.3-4.2-5.7-7.3v-7
				c4.5-2.5,15,0.1,17.8,4.8c0.3,0.7,0.5,1.5,0.3,2.3c0,4,1.5,5.2,5.7,4.9c0.9-0.1,1.7,0,2.5,0.2s1.6,0.6,2.3-0.1l8.7-2.8l-9.6-9.5
				c-1-1.6-2.8-4.4-4.8-7.3c-1-1.5-2.7-2.7-3.3-4.3c-0.8-2.3-1.2-4.6-1.2-7c0-2.3,0.2-4.5,0.5-6.8l-1.7-0.5l-7.7,9.4l-2.7-4.5
				c3.5-3.4,3.1-5.3-1.5-6.6c-1-0.2-2.5-0.6-2.8-1.2c-2-3.6-3.7-7.5-5.6-11.2c-0.6-1.1-0.6-2.9-1.4-3.2
				c-7.7-2.9-10.3-11.3-17.5-14.5c1.7-5.4,0.5-7.5-5-7.9c-0.9-0.1-2.9,1.5-2.8,2.2c0.8,4.5-2.9,3.6-4.5,2.8
				c-3.3-1.5-5.6-0.9-8.4,0.9c-0.9,0.6-3.5,0.1-4.4-0.8c-3.2-2.9-3.7-3.1-6,0.3c-0.5,0.7-0.9,1.4-1.5,2c-1.4-0.8-2.8-1.5-4.3-2
				c-1.4-0.3-2.8-0.5-4.3-0.6c2-4.9,2-4.8,7-2.9c0.7,0.2,2.6-0.9,2.9-1.8c1.7-4-1.8-6.7-3.3-9.9c-0.9-1.7-1.9-3.4-3.1-5l11.1-0.6
				v6.6c2.8,0.7,5.6,1.9,8,1.6c2.5-0.3,5-2.3,7.4-3.6c2-1.2,4.1-2.7,5.3-0.7c3.2-2.4,6.2-4.8,9.5-6.9c0.8-0.6,2.2-0.5,3.2-0.8
				c1.8-0.5,3.6-1.2,5.2-2.2c2.3-1.7,4.3-3.6,6-5.8c3.1-3.9,6.5-3.7,10.7-1.9c3.2,1.4,5.6,0.9,8-2.3c1.4-1.7,5.9-2.2,8.8-1.7
				c4.6,0.8,9.1,3.1,13.7,4.2c2,0.6,5.9,0.6,6.1-0.1c0.9-2.4,0.7-5.2,0.7-7.9c0-0.5-0.6-0.9,0.2-0.6l3.1-4.1
				c0.6,2.4,2.2,4.3-0.9,6.7c-2.8,2.3,0.1,9.2,3.7,9.9c1.9,0.5,4,0.7,6,0.8C801.9,510.3,804.4,511.5,803.9,516.5z M784.3,594.5
				l-8.3-0.9C778.5,598.9,781.5,599.4,784.3,594.5z"/>
			<path class="st1" d="M1131.5,519.3l-8,1.7c2.4-3.5,5-5.6,8.5-6.3c3.3-0.8,5.7,0.6,7.7,3.4c1.1,1.5,3.3,2.3,5.1,3.3
				c1.8,1,4.1,1.8,6,2.9c3.4,1.8,6.6,4,10,5.6c4.2,2,7.7,5.4,12.9,5.7c1.2,0.1,2.7,1.5,3.6,2.6c6.8,9.1,13.6,18.1,20.2,27.4
				c4.5,6.3,8.4,13.1,12.8,19.6c2,3.1,4.3,6.2,7.4,8.3c5.7,3.6,6.8,9.1,6.3,14.4c-0.6,6.8-2.3,13.5-4.1,20.1
				c-0.8,2.4-2.3,4.4-4.2,5.9c-5.7,4.2-10.7,8.5-14.3,14.7c-2.2,3.7-7.5,5.8-11.1,9c-1.8,1.6-2.9,4.1-4.5,6
				c-0.7,0.9-1.7,1.6-2.7,1.9c-6.6,0.1-7.8,1.6-8.6,7.5c-0.2,1.6-3.5,2.8-5.3,4.3l-0.3-1.7c-1.8-1-4.5-3.3-5.2-2.8
				c-2.4,1.6-4.9,3.9-5.7,6.3c-0.9,2.7,0.1,5.8-5,4.9c-2.9-0.5-3.9,2.7-1.7,5.3c2.6,3.2,2,4.3-2,4.9c-0.6,0.1-1.1,0.1-1.7,0.1
				c-4,0.5-8.6,3.7-11.4-1.7c-1.8-3.4-2.9-7.3-4.6-10.8c-1.1-2.4-2.6-4.5-4.4-6.3c-4.6-4.3-7-9.6-9.1-15.3c-1.2-3.1-2.9-5.9-5.2-8.3
				c-1.7-1.9-2.8-3.9-1.2-5.9c2.5-3.2,5.3-6.1,8-9.2c1.7-1.8,4.2-3.3,5.1-5.4c1.2-2.9-7.5-10.3-10.7-9.2c-0.9,0.3-1.7,1-2.4,1.7
				c-2,2.2-4.4,4.2-7.5,2.6c-3.3-1.4-5.6-4.5-5.7-8.2c-0.1-2-0.2-4.2-0.5-6.2c-0.5-4.3-1.6-8.6-3.4-12.6c-1.5-3.6-0.7-8.5,0.5-12.6
				c2-7.9-0.5-14.6-5.1-21.1c0.5-0.6,0.9-1.1,1.5-1.7c6.7-5.1,8.7-11,4.3-18.5c-1.6-2.6-1-5,1.4-7c1.5-1.5,2.8-3.1,4.1-4.8
				c2.3-2.6,5-4.1,8.6-3.4c6.1,1.1,10.3-1.2,12.9-6.5C1126.6,526.2,1128.2,525.4,1131.5,519.3z M1126.8,577.2v7.6
				c2.8-3.9,6.3-3.2,9.7-2.3c1.2-3.1,2.4-5.9,3.6-9.1c-1.2-0.8-3.3-1.6-4.6-3.1c-3.4-3.7-7.4-3.7-10.4,0.3c-0.9,0.8-1.8,1.5-2.9,2.2
				c-2.7,2.2-6.3,3.9-7.9,6.7c-3.2,5.6-3.7,9.1,3.5,11.4C1115.9,584.4,1118.8,579.6,1126.8,577.2L1126.8,577.2z M1154.6,625.7
				c3.6-3.2,4.5-6.5,3.5-10.4c-0.6-2-0.5-4.4-1.2-6.3c-0.9-1.6-2-3.1-3.5-4.2c-0.1-0.1-2.5,1.4-2.5,1.9c0.5,3.7-2.2,5.7-4.3,8.2
				c-2,2.5-4,5.1-5.8,7.7l-3.3-4.3l-5.6,6.7l0.5,0.7l5.4-1.7l1.6,4.8l12.7-5.6L1154.6,625.7z"/>
			<path class="st1" d="M1118.1,856.9c-1.5-2.3-2.9-4.5-4.2-6.9c-0.7-1.9-1.2-4-1.7-6c-1.6-6.5-0.5-8.3,6.1-9.6
				c1.1-0.2,3.2-0.9,3.2-1.5c0.2-5,4.8-8.8,3.4-14.4c-1.1-4.6-1.1-9.6-1.4-14.4c-0.3-5.6-1.6-7-7.1-6.9c-2.5,0.2-4.8-1.1-5.9-3.3
				c-2.4-4.2-5-7.6-10.1-10.1c-3.6-1.7-5.7-7.4-7.1-11.6c-1.6-4.5-5.6-8-10.7-7.4l-4.6,0.8c-5.1,0.8-8.3-2.4-6.9-7.1
				c1.2-4.3,2.8-8.5,4.3-12.8l1.9-0.5c1.8,2.6,3.5,5.2,5.4,7.7c0.7,0.9,1.8,2.5,2.5,2.4c1.2-0.2,3.3-1.2,3.4-2.2
				c0.2-2.3-0.6-4.5-0.6-6.8c-0.1-2.8,0-5.6,0.7-8.3c0.9-3.2,2.3-6.2,4.1-9.1c1.2-2,3.1-3.6,5.1-4.6c9.5-3.7,19.4-6.5,29.9-5.3
				c0.7-0.1,1.5,0,2.2,0.1c7.8,3.7,16.3,0.2,24.3,1.9c0.8,0,1.6-0.3,2.3-0.9c3.3-2.6,6.9-2.6,10.9-2.2c5.2,0.6,10.4,0.6,15.6,1
				c1.2,0.2,2.3,1.1,2.7,2.4c-0.1,1.2-0.8,2.4-1.8,3.2c-2.2,1.5-4.4,2.7-6.7,4c-1.2,0.8-2.7,1.5-4.2,2c-5,1.1-6.8,3.1-7.1,7.8
				c-0.3,2.3-0.9,4.5-1.5,6.8c-0.3,1.1-0.5,2.4-0.2,3.5c3.4,9.9,9.3,17.1,20.6,18.5c-3.1,3.1-6.3,5.9-8.7,9.3
				c-1.8,2.4-2.8,5.3-2.9,8.4c0.1,5.6-2,10.2-5,14.7c-2,3.1-4.2,5.9-6,9.1c-2.8,5.1-8.2,7.1-12.8,10.2c-8.3,5.3-16.8,10.3-24.8,15.9
				c-1.8,1.4-3.1,3.3-3.6,5.4C1119.9,845.1,1119.2,850.3,1118.1,856.9z"/>
			<path class="st1" d="M202.1,226.8c3.4-4,3.2-5.9-0.7-8.7c-4.4-3.2-8.8-6.5-13.7-10l3.4-2.8c-0.7-4.4-1.4-8.4-2-12.2
				c5.6-1.1,10.4-2.7,15.5-3.2c5.6-0.5,11.2,0.1,16.8,0.1c2.8,0,5.9,0.6,8.5-0.3c7.7-2.6,15.1-0.3,22,1.6
				c4.3,1.1,10.5,2.7,10.5,10.1c-1.9,0.2-3.9,0.7-5.7,1.1c-2.3,0.7-5.7,1.1-6.2,2.5c-0.7,1.8,0.6,4.6,1.6,6.6
				c1.4,2.4,2.8,4.2,2.3,7.5c-0.7,3.7,3.9,3.7,6.3,4.6c1.7,0.6,3.9-0.2,5.6,0.2c1.8,0.8,3.5,1.8,5.1,3.1c1.4,0.9,2.5,2.2,4,2.6
				c4,1.1,8,2.2,12.1,2.8c6.3,1,11,5.7,17,7.1c2.4,0.6,5.2-0.1,7.7-0.7c0.5-0.1,0.7-2.6,0.5-4c-0.1-1-1.2-1.7-1.9-2.4
				c4.3-4.3,8.4-8.6,12.6-12.7c2.2-2,7.4-0.8,9.3,2.4c2.4,3.9,4.3,7.9,6.7,11.8c1.8,2.8,4.1,5,8.2,3.6c1.1-0.5,2.8,0.7,4.4,1
				c-1.4,3.4-2.9,4.6-5.9,2.3c-2.6-2.2-4.6-0.5-6.2,1.4c-2.3,2.6-1.8,6.9,0.6,9.7c1.8,1.9,3.4,4.1,4.6,6.3c2.5,4.6,1.1,9.1-2.3,13
				c-0.8,0-1.8-0.1-2.8-0.1c-5.3-0.1-4.6,0-4-5.3c0.3-3.2-1.4-7-3.4-9.7c-2.3-2.8-5.8-4.9-9.1-6.7c-1.6-0.9-4.1-0.5-5.9-1.1
				c-4-1.4-7.7-3.2-11.8-4.5c-6.6-2.2-13.3-4.2-19.9-5.9c-2.4-0.7-5.1,0-7.4-0.8c-4.4-1.5-8.5-3.9-12.9-5.4c-2.8-1-5.7-0.6-5.8,3.2
				c0,1.2,0.6,2.5,1.6,3.3c3.6,2.3,7.4,4.4,11.2,6.2c3.2,1.5,5.6,3.2,6.9,6.3c0.6,1.2,2.5,2.9,3.7,2.8c6.3,0,10.9,2.3,12.8,6.5
				l18.8,4.9c-0.6,6.7-1.1,13.3-1.8,20.2l-3.6-1c-0.5,1-1,1.9-1.6,2.8c-2.5,3.4-4.4,3.4-6.9,0.1c-2.8-3.6-5.6-7.1-11.6-6.6
				c-3.1,0.3-6.3-1.1-9.5-1.9c-0.7-0.1-1.6-0.6-1.7-1.1c-0.9-3.7-4.4-3.4-6.9-3.6c-4.5-0.2-8-2-11.8-4.5
				c-8.2-5.4-16.7-10.4-25.2-15.3c-4.5-2.6-8.8-4.5-8.3-11.1c0.5-4.8-5.6-9-12.6-10C209.2,232.4,205,230.2,202.1,226.8z"/>
			<path class="st1" d="M300,482.4l2.5-1.5l8.7,5.4c1.4-6.1,2-12.9,6.9-18.1c1.2-1.4,2.9-2.2,4.8-2.5c6-0.5,11.7,2.7,14.3,8.2
				c-4.2,2.4-8.3,4.9-12.7,7c-6,3.1-6.9,9.5-10.9,13.9c-0.6,0.6,0.5,3.2,1.4,4.3c3.1,4,6.5,7.6,4.5,13.4c-0.6,1.6,1.2,4.1,2.3,6
				c1.5,2.8,1.7,4.9-2.2,6c-1.5,0.6-2.8,1.7-3.6,3.1c-1.7,2.9-4.4,3.6-6.1,0.7c-2.8-5.1-5.1-10.7-7.6-16c-0.2-0.5-0.5-1.4-0.2-1.6
				c3.5-2.9,3.9-7.1,4.6-11.1c0.2-1.7,0.1-3.4-0.1-5c0-0.5-0.7-1-0.6-1.4c2.4-4.9-2.3-5-4.8-5.7c-3.4-0.9-7.7-2.2-8.8,3.3
				c-0.5,2.3-0.5,4.5-1.2,6.6c-0.7,1.5-1.9,2.6-3.4,3.2c-4.6,1.7-6.3,4.1-4.3,8.8c0.8,1.9,1,4,0.5,6c-1.2,4.5-6.3,6.2-11.2,4.2
				c-5.4-2.3-6.8-6.9-7.3-11.8c-0.8-5.4-1-11-0.9-16.4c0.2-3.1,2.3-6,3.7-9c2.4-4.9,5.2-9.5,7.4-14.5c1.9-4.3,3.2-8.8,4.8-13.3
				c0.1-0.5,0.8-1.1,1.2-1c5.4,0.3,6.1-3.4,6.6-7.5c6.8,0.7,9.6-3.4,11.8-8.5c0.7-1.6,1.4-3.5,2.7-4.5c5.2-4,7.9-9.3,10.1-15.2
				c0.3-1.5,0.5-2.8,0.5-4.3c0.1-2.2,0.6-4.2,1.2-6.2c1.2,4.3,5,4.9,8.2,6.2c2.4,1,4.8,2,1.8,5c-0.7,1-0.8,2.3-0.3,3.4
				c4.6,12,1.1,11.6-5.4,17.9c-2.7,2.4-5.2,5-7.5,7.8c-0.7,0.8,0,2.8,0.6,4.2c0.3,0.7,1.8,0.9,2.8,1.1c1.4,0.3,2.8,0.6,4.3,0.8
				c-0.5,1.7-0.3,3.9-1.5,4.8c-2,1.8-5,4.1-7.4,4c-5.4-0.2-7.1,3.7-9.6,6.6c-0.9,0.9-0.7,3.7,0.1,4.8
				C303.1,476.8,303.6,479.5,300,482.4z"/>
			<path class="st1" d="M351.3,321.5c6.7-0.9,12.7-3.6,20.1,0.6c8.8,5.1,18.5,8.7,28.1,12.4c3.9,1.5,8.4,1.1,12.5,1.8
				c7,1,15.3,0.5,20.9,3.7c8.3,4.9,18.1,8.2,24,16.9c2.4,3.5,9,4.3,13.6,6.3c2.5,1.1,5,2.5,7.4,3.9c0.2,0.1-0.1,2-0.7,2.3
				c-2.5,1-5.2,2.9-7.3-1c-0.8-0.9-2-1.5-3.2-1.4c-4.3,0.7-8.6,1.9-12.9,2.7c-1.7,0.3-3.6,0.7-5.1,0.1c-17.7-6.6-36-12.2-50.7-24.5
				c-8.8-7.4-19.8-10.5-29.9-15.6c-2.8-1.5-6.5-1.5-9.5-2.6c-2.7-1.1-5.4-2.4-8-3.7L351.3,321.5z"/>
			<path class="st1" d="M1128.6,886l-15,34.8l-19.2-13.6c0.2-2.9,0.7-6.3,0.8-9.7c0-0.6-1.4-1.7-2.3-1.7c-0.9,0-1.6,1-2.5,1.5
				c-1.6,0.7-3.2,1.4-4.8,1.9c-0.3-1.8-1.5-4-0.8-5.3c1.7-3.3,4-6.3,6.5-9.1c4-4.3,8.3-8.4,12.7-12.1c2.8-2.3,6.3-3.7,10.3-6.1
				C1117.4,874,1120.1,881.5,1128.6,886z"/>
			<path class="st1" d="M893.2,727.3l-9.7,1.8l-0.6,1.7l9.4,5.8l-3.4,5.6c1.5-0.2,2.6-0.7,3.4-0.3c1.4,0.6,2.6,1.2,3.7,2.2
				c-1.1,0.8-2.3,2-3.6,2.3c-4.2,0.6-5.7,2.9-5.3,6.6c0.2,3.4-1.4,5.6-4.3,7c-1.7,0.8-3.3,1.7-5,2.5c-7.7,3.7-14.5,7.9-15.4,17.3
				c-0.2,1.7-2.3,3.3-4.1,4.6c4.5-5.9,4.1-12.7,4.5-19.3c0.2-3.1-0.5-6.2-0.6-9.3c-0.1-1.6,0-3.2,0.3-4.8c0.7-2.7,1.8-5.3,2.7-7.9
				c0-0.1,0-0.3,0.1-0.3c4-3.9,7.6-8.2,12-11.3C882,727.8,887.7,726.3,893.2,727.3z"/>
			<path class="st1" d="M362.9,245.1l26.6,16.8c-2.4,1.6-4.2,2.2-4.6,3.3c-0.5,1.1-0.1,3.5,0.7,4.1c1.7,1,4,1.1,6,1.5
				c0.9,0.1,2.2-0.6,2.7-0.1c2.6,1.7,5,3.6,7.1,5.9c1.6,1.8,2.2,4.5,2.8,5.8c3.5,0.7,6.6,1.1,9.6,1.9c0.8,0.2,1.2,1.6,1.8,2.4
				c-0.8,0.5-1.6,0.9-2.4,1.2c-3.4,1.4-6,0.6-8.8-1.7c-1.9-1.5-5-1.5-7.5-2.5c-2-0.7-4-1.6-5.7-2.8c-8.4-6.3-15.3-14.7-26.9-16.3
				c-0.6-0.1-1.5-0.2-1.6-0.6c-1.4-4.3-5.7-4.5-9.1-6.2c-3.1-1.6-2.2-3.3-0.6-6C355.4,248,360.4,249.5,362.9,245.1z"/>
			<path class="st1" d="M1109,515.5c0.7-2.9,1.2-5.1,1.6-7.3c0.2-3.2,2.4-5.9,5.6-6.7c3.3-1,4.1-3.2,4.3-6.3s1.7-6,2.4-9.1
				s1.1-6,1.9-9c0.2-1,1-2.6,1.6-2.6c1.9,0.1,4.8,0.1,5.6,1.2c3.3,4.8,8.2,5.7,13.4,6.5c3.3,0.6,3.5,3.2,2.8,6.5
				c-1.5,6.2-6.5,8.5-11.4,11.3c-3.6,2.2-6.9,4.9-10.4,7.4c-0.6,0.5-1.2,1.2-1.7,1.1C1117.5,506.4,1114.1,511.9,1109,515.5z"/>
			<path class="st1" d="M1104.7,826.6c0.2,5.3-4.3,10.5-9,12.5c-2.4,1-4.4,2.7-6.8,4c-1.5,0.8-3.5,2.2-4.8,1.8
				c-1.2-0.5-2.5-2.6-2.9-4.2c-1.5-4.5-2.5-9.2-3.1-13.8c-0.3-3.1-0.1-7.1,1.8-9.1c1.7-1.6,6-0.9,9.2-0.8c5.6,0.3,10.8,1.7,13.9,6.7
				C1103.9,825,1104.6,826.3,1104.7,826.6z"/>
			<path class="st1" d="M998.5,629.3c0.6-2.2,1.7-4.3,1.5-6.3c-0.5-3.7-1.7-7.4-2.5-11.1c-1.7-7-0.3-13.7,2.9-20.2
				c0.8-0.8,2-1.1,3.2-0.9c4.6,2.3,8.6,5.3,8.6,10.8c0,3.9-0.6,7.6-0.9,11.4c-0.2,0.9-0.1,1.8,0.3,2.6c2.4,3.1,1.6,5.7-0.9,8.5
				c-3.9-2.4-6.9-1.6-9.1,2.4C1001,627.6,999.5,628.3,998.5,629.3L998.5,629.3z"/>
			<path class="st1" d="M286.4,207.3c6.8-5.7,10.9-4.6,21,0.9c-2.7,1.8-5.3,3.5-7.7,5.3c-0.9,0.7-2,2-1.9,2.7
				c0.8,3.4,2,6.8,3.2,10.7l-9.1-3.5l0.9-2.9l-11-2.7c1.1-1.5,2-2.3,2.2-3.1c0.1-1.5,0.2-3.5-0.7-4.4c-0.9-0.8-3.1-0.6-4.5-0.2
				c-1.6,0.3-3.1,0.9-4.5,1.6l-0.9-1c1.6-2.4,2.8-6.1,4.9-6.7C280.2,203.5,283.3,206,286.4,207.3z"/>
			<path class="st2" d="M1055.5,326.2c-3.4,1.7-7.7-2.6-9.1,3.5c-1.6-1.5-3.2-2.4-4-3.6c-3.2-5.1-9.2-6.1-13.8-9.2
				c-3.7-2.5-3.6,1.7-6.1,2.3c-2-2.9-4.8-5.3-9.4-3.4c0-0.5,0-0.9,0-1.4l12.8-2.9c-0.2-0.3-0.7-1.1-1.4-1.5
				c-3.6-1.4-5.9-4.5-4.8-7.4c1.4-3.3,4.6-6.1,7.6-8.4c2.2-1.6,5-0.9,6.7,1.8c0.5,0.8,1.2,2,1.9,2c6.3,0.6,6.9,5.4,8.3,9.6
				c0.9,2.8,2.6,5.3,4.9,7.3C1052.2,317.8,1053.5,322.4,1055.5,326.2z"/>
			<path class="st2" d="M1206.7,270.8l2.6-4.6l3.5,2.2c4.9-2.7,4.9-2.7,11.6,2.3l-3.2,2.6l-4.5-4L1206.7,270.8z"/>
			<path class="st2" d="M1083.3,249.9l-4.6,1.6c-0.6-2.8-1.8-5.6-1.4-8c0.5-2.4,2.7-4.6,4.8-6.7
				C1083.5,241.2,1077.5,245.6,1083.3,249.9z"/>
			<path class="st2" d="M1020.3,191.1l3.6,0.2l1.8-3.3c3.4,1,3.1,3.6,2,5.3c-0.7,1.1-3.3,1.9-4.9,1.8c-1.2-0.1-2.3-1.9-3.5-2.9
				L1020.3,191.1z"/>
			<path class="st2" d="M930.6,370.5l14.5,4.1C943.5,379,941.6,378.6,930.6,370.5z"/>
			<path class="st2" d="M1040.4,177.7c-1.6-2.8-1.6-5.2,2.8-6.5c3.5-1,3.7,1.1,4.5,2.7L1040.4,177.7z"/>
			<path class="st2" d="M862,219.7c3.3-0.7,7.8,1.5,8.2,3.9c0,0.9-0.5,1.8-1.1,2.4c-0.8,0.2-1.6,0.1-2.3-0.5
				C865.1,223.8,863.6,221.7,862,219.7z"/>
			<path class="st2" d="M1005.9,286.7c-2.2,1.2-3.7,2.7-4.2,2.4c-1.5-1-2.7-2.4-3.6-3.9c-0.1-0.1,1.9-2.2,2.4-2
				C1002.4,284.2,1004.2,285.3,1005.9,286.7z"/>
			<path class="st2" d="M717,313.4l-7.1,4.3l-0.9-0.8l5.4-8.3L717,313.4z"/>
			<path class="st2" d="M1114.7,217.1c1.8,2.6,3.2,4.5,4.4,6.5c0.1,0.1-1.1,1-1.8,1.6c-1.6-1.8-3.2-3.6-4.6-5.6
				C1112.4,219.6,1113.5,218.5,1114.7,217.1z"/>
			<path class="st2" d="M1118.3,421.3l4.8-8.6l1.9,1l-5.7,8.2L1118.3,421.3z"/>
			<path class="st2" d="M676.5,418.6c-3.3-2.3-2.7-4.3,0.9-5.8C677.1,414.7,676.8,416.7,676.5,418.6z"/>
			<path class="st2" d="M961.7,739.7c-6.7-0.7-12.4-5.1-10.7-7.9c1.5-2.5,5.3-4.1,8.5-5c2.4-0.7,6.6,6.1,5.7,9.1
				C964.6,737.5,962.6,738.8,961.7,739.7z"/>
			<path class="st3" d="M560.3,585.1l-4.5-1.6c-1.4,1.2-2.9,2.5-4.5,3.4c-1.7,0.8-4.2,1.7-5.4,1c-1.2-0.7-1.7-3.2-2.2-5
				c-0.7-2.2-0.8-4.4-1.7-6.3c-1.2-2.7-0.3-5.9,2.4-6.8c4.3-1.5,10.2,0.3,13.1,4C560.2,576.9,564.1,580,560.3,585.1z"/>
			<path class="st3" d="M429.4,693.4l-1.6,3.6c-1.4-3.2-3.4-4.9-2.6-8.3c0.5-1.7-0.7-4-1.2-6.1c0.9-1.6,2.2-3.6,3.9-6.3
				c5.3,6.2,6.3,14.1,10,20.3l9.3-0.9c-2.3,3.1-4.2,5.1-5.3,7.4c-0.6,1.4,0,3.3,0.3,4.9c0.3,1.5,0.8,2.9,1.4,4.3l-1.5,0.5
				C437.9,706.4,433.7,700,429.4,693.4z"/>
			<path class="st3" d="M508.5,732.3c0.5-0.5,0.8-1.1,1.2-1.2c4.3-0.9,4.8-3.1,2.6-6.5c-0.7-1,0-2.8,0.2-4.3
				c0.2-1.1,0.5-2.2,0.8-3.3c6.6,1.8,8.5,4.5,9.7,11.7c0.5,2.7,2.4,5.1,3.6,7.7l-0.9,1.4c-3.5-1.4-7-2.7-10.5-3.9
				C513.3,733.2,511.1,732.9,508.5,732.3z"/>
			<path class="st3" d="M440.9,519.1l2.9,2.5l-7,3.3l-2.3-3.2c5.2-3.5,7.1-8.8,2-15.1c4-1.9,10.5,1.5,10.7,5.3c0,1.1,0,2.3,0,3.3
				c0.1,3.2-0.2,5.6-4.4,3.1C442.6,518.2,442,518.7,440.9,519.1z"/>
			<path class="st3" d="M534.9,554.5c-0.3-4.8-2.9-8-7.5-10.1c-0.1,0-0.2-0.2-0.3-0.2c-6.2,0.5-6-4.3-6.8-8.3c1-0.6,2-1.1,3.2-1.4
				c1.1-0.2,2.2,0,3.2,0.6c1.8,1.4,3.5,2.9,5.1,4.5C530.4,544.2,538,548.4,534.9,554.5L534.9,554.5z"/>
			<path class="st3" d="M531.8,555.1c-3.6-0.9-6.6-1.5-9.3-2.4c-1.1-0.3-2.6-1.4-2.8-2.3c-0.9-3.4-1.4-6.9-1.9-10.3
				c1.7-0.1,5,4.5,5.8,10.3l6.6-1.9C530.5,550.5,531.1,552.8,531.8,555.1z"/>
			<path class="st3" d="M443.8,647.2l-3.6,1.1c0.1,1.8,0.3,4.1,0.6,6.7c-0.7-0.3-1.8-0.6-2.2-1.1c-1.9-3.1-3.5-6.3-5.1-9.6
				c-0.3-0.7,0.7-2.4,1.5-2.8c0.8-0.3,2.4,0.2,3.2,0.9C440.1,643.7,441.7,645.3,443.8,647.2z"/>
			<path class="st3" d="M486,776.9v-7.6c2.5,0.6,5,1.2,7.4,2c0.5,0.2,0.6,2.4,0,3.2C491.5,777.7,488.5,777.3,486,776.9z"/>
			<path class="st3" d="M403.2,565c3.7,3.9,0.9,6.5-1.2,10.4c-1.6-2.5-2.8-4.5-4.3-6.8L403.2,565z"/>
			<path class="st3" d="M391.2,722.1c8.7,1.1,7.1,8.4,10,13.1l-1.5,0.8c-0.9-1.9-2.7-3.9-2.7-5.8c0-2.8-0.8-4.3-3.3-5.6
				C392.7,724.2,392,722.9,391.2,722.1z"/>
			<path class="st3" d="M636.3,612.5c-0.7,1.7-1,3.9-2.3,5.1c-0.9,0.9-2.9,0.9-4.5,1.2c0.1-1.2-0.3-3.1,0.3-3.7
				c1.6-1.5,3.3-2.8,5.2-4L636.3,612.5z"/>
			<path class="st3" d="M532.6,579.1c1,1.5,2.4,2.8,2.8,4.4c0.3,1-0.7,2.4-1.1,3.6c-1-0.8-2.7-1.4-2.9-2.3c-0.5-1.7-0.1-3.6-0.1-5.4
				L532.6,579.1z"/>
			<path class="st3" d="M538.7,656.6c2.9-0.1,5.6,0.1,5.7,3.4c0,0.7-1.6,2.3-2.3,2.2C538.9,661.6,538.2,659.4,538.7,656.6z"/>
			<path class="st3" d="M518.6,562.2c1.4,1.4,3.7,2.7,3.7,4c-0.1,2.7-2.5,2.9-5.1,1.8c0.2-1.5,0.3-3.1,0.6-4.6L518.6,562.2z"/>
			<path class="st3" d="M534.9,554.5c0.7,2.2,1.6,4.3,2.2,6.6c0.1,0.9,0,1.8-0.3,2.6c0,0.1-1.6,0.2-1.8-0.1c-0.7-0.8-1-1.8-1-2.8
				C534,558.6,534.5,556.4,534.9,554.5L534.9,554.5z"/>
			<path class="st4" d="M740,924.9l-2.6-4c1.1-0.3,2.8-1.1,3.1-0.8c0.8,1.1,1.4,2.4,1.7,3.7L740,924.9z"/>
			<path class="st2" d="M784.3,594.5c-2.8,4.9-5.8,4.4-8.3-0.9L784.3,594.5z"/>
			<path class="st2" d="M1126.8,577.3c-8,2.4-11,7.3-9,13.7c-7.3-2.4-6.8-6-3.5-11.4c1.6-2.7,5.2-4.5,7.9-6.7c1-0.6,2-1.4,2.9-2.2
				c3.1-4.1,7-4.1,10.4-0.3c1.4,1.5,3.4,2.3,4.6,3.1c-1.2,3.2-2.4,6-3.6,9.1c-3.3-0.8-6.9-1.5-9.7,2.3L1126.8,577.3L1126.8,577.3z"
				/>
			<path class="st3" d="M1154.6,625.7l-2.5-2.7l-12.7,5.6l-1.7-4.8l-5.4,1.7l-0.5-0.7l5.6-6.7l3.3,4.3c1.8-2.7,3.7-5.3,5.8-7.8
				c2.2-2.4,4.8-4.4,4.3-8c-0.1-0.6,2.4-2,2.4-1.9c1.5,1.1,2.6,2.6,3.5,4.2c0.8,2,0.7,4.3,1.2,6.3
				C1159.2,619.2,1158.2,622.5,1154.6,625.7z"/>
			<rect x="501.1" y="825.3" class="st5" width="245.7" height="44.1"/>
			<text transform="matrix(1 0 0 1 501.0327 841.3438)" class="st6 st7 st8">You Are Here</text>
		</g>
	</g>
	<g id="Train">
		<path class="st9" d="M515,785.9v-77c0,0-2-47,31.5-47c33.5,0,116.7,0,116.7,0"/>
		<path class="st9" d="M515,781.5l0.1-82.8v-98.5c0,0-2.7-23.6-20.6-23.6c-17.9,0-43,0-43,0s-19.7-4.2-19.7-18.5v-86.7"/>
		<path class="st9" d="M423.1,471v209.6c0,0,2.4,24.4-4,24.4l-16.5,1.6"/>
	</g>
	<g id="Ferry">
		<g id="Layer_2">
			<line class="st10" x1="672.5" y1="660.9" x2="676.8" y2="660.9"/>
			<path class="st11" d="M685.8,660.9L773,661c67.9,1.6,113-3.7,125.1,38.8l15.8,59.6"/>
			<line class="st10" x1="915.2" y1="764.2" x2="916.4" y2="768.8"/>
		</g>
		<path class="st11" d="M663,404.9v146.5c0,14.6,5.3,28.7,14.8,39.6l27.9,39.6c5.2,7.4,2,17.8-6.6,20.9c-7.2,2.6-15,5.5-19.4,7.3
			c-2.3,1-3.8,1.7-3.8,2"/>
		<path class="st11" d="M425.7,466.2l-61.2-15.9c-5.5-1.4-9.9-5.6-11.7-11c-8.1-24.5-3-31.7,9.5-41.5c1.8-1.4,16.6-4.8,18.5-5.3
			c11.1-2.8,277.1,3.2,277.1,3.2"/>
		<path class="st11" d="M426.1,466c-57.3-2.1-95.4-36.9-96.7-86.7c-1.2-47.3-78.9-119-78.9-119"/>
		<path class="st11" d="M389.1,708.2l-77.2-40.7c0,0-42-18.7-57.8-77.6c-6.5-24.3-4.2-328-4.2-328"/>
		<path class="st11" d="M768.2,583.7c0,0-29.6,3.6-32.5,8.6c-2.3,4.1-7.7,14.5-8.6,18.7c-0.2,0.9-2,5.6-2.4,6.4
			c-2,4.2-5.5,15.5-3.2,28.5c1.2,6.9-2.4,14.1-9.5,14.3l-30.4,0.8"/>
	</g>
	<g id="Points">
		<circle class="st12" cx="664.9" cy="664.9" r="10.9"/>
		<circle class="st12" cx="391.3" cy="708.7" r="10.9"/>
		<circle class="st12" cx="428" cy="464.5" r="10.9"/>
		<circle class="st12" cx="775.7" cy="580.2" r="10.9"/>
		<circle class="st12" cx="661.1" cy="401.5" r="10.9"/>
		<circle class="st12" cx="252.5" cy="255.3" r="10.9"/>
		<circle class="st12" cx="714.2" cy="319.3" r="10.9"/>
		<circle class="st6" cx="520.6" cy="795.8" r="18.7"/>
		<circle class="st12" cx="213.7" cy="213.1" r="10.9"/>
		<circle class="st12" cx="918.1" cy="779.4" r="10.9"/>
	</g>
	<g id="Flight">
		<path class="st13" d="M520.6,801c0,0,25.7-492.3,188.3-484"/>
		<path class="st13" d="M525.7,795.8"/>
		<path class="st13" d="M520.7,800.9c0,0-10.3-292.1-91.1-336.2"/>
		<path class="st13" d="M209.2,216.7c0,0-207.4,553.2,307.7,586.2"/>
		<path class="st13" d="M664.7,668.5c0,0-9.4,96-131.9,135.1"/>
	</g>
</g>
<g id="Islands">
	<rect x="823.7" y="287" class="st5" width="63.4" height="42.6"/>
	<text transform="matrix(1 0 0 1 823.7278 301.2607)" class="st12 st7 st14">Orcas </text>
	<text transform="matrix(1 0 0 1 823.7278 325.2607)" class="st12 st7 st14">Island</text>
	<rect x="766.8" y="520.5" class="st5" width="90.2" height="54.3"/>
	<text transform="matrix(1 0 0 1 766.7866 534.8198)" class="st12 st7 st14">Shaw </text>
	<text transform="matrix(1 0 0 1 766.7866 558.8198)" class="st12 st7 st14">Island</text>
	<rect x="913.4" y="828.2" class="st5" width="90.2" height="54.3"/>
	<text transform="matrix(1 0 0 1 913.4263 842.4304)" class="st12 st7 st14">Lopez </text>
	<text transform="matrix(1 0 0 1 913.4263 866.4304)" class="st12 st7 st14">Island</text>
	<rect x="349.9" y="229.6" class="st5" width="90.2" height="54.3"/>
	<text transform="matrix(1 0 0 1 349.8533 243.9006)" class="st12 st7 st14">Stuart </text>
	<text transform="matrix(1 0 0 1 349.8533 267.9006)" class="st12 st7 st14">Island</text>
</g>
<g id="Harbour_x2B_Airport">
	<rect x="746.6" y="339.4" class="st5" width="98.6" height="20.4"/>
	<text transform="matrix(1 0 0 1 746.6183 349.4034)" class="st12 st15 st16">Orcas Airport</text>
	<rect x="337.9" y="283.6" class="st5" width="98.6" height="20.4"/>
	<text transform="matrix(1 0 0 1 337.8668 293.6466)" class="st12 st15 st16">Stuart Harbour</text>
	<rect x="189.4" y="246.6" class="st5" width="98.6" height="20.4"/>
	<text transform="matrix(1 0 0 1 189.3521 256.6168)" class="st12 st15 st16">Stuart Airport</text>
	<rect x="698.6" y="410.9" class="st5" width="98.6" height="20.4"/>
	<text transform="matrix(1 0 0 1 698.6243 420.9188)" class="st12 st15 st16">Orcas Harbour</text>
	<rect x="493.9" y="464.4" class="st5" width="98.6" height="20.4"/>
	<text transform="matrix(1 0 0 1 493.8966 474.3657)" class="st12 st15 st16">Roche Harbour</text>
	<rect x="800.6" y="568.5" class="st5" width="98.6" height="20.4"/>
	<text transform="matrix(1 0 0 1 800.5988 578.5359)" class="st12 st15 st16">Shaw Harbour</text>
	<rect x="927.7" y="746.4" class="st5" width="98.6" height="20.4"/>
	<text transform="matrix(1 0 0 1 927.6924 756.4081)" class="st12 st15 st16">Lopez Harbour</text>
	<rect x="699.9" y="651.6" class="st5" width="98.6" height="20.4"/>
	<text transform="matrix(1 0 0 1 699.8646 661.558)" class="st12 st15 st16">Friday Harbour</text>
	<rect x="459.7" y="691.5" class="st5" width="98.6" height="20.4"/>
	<text transform="matrix(1 0 0 1 459.6461 701.4827)" class="st12 st15 st16">Yacht Heaven</text>
</g>
</svg>
