<svg id="Layer_1" data-name="Layer 1" xmlns="http://www.w3.org/2000/svg" viewBox="0 0 1473.3 792.3"><defs><style>.cls-1{fill:#202e42;}.cls-2{fill:#6e6e6e;opacity:0.62;}.cls-17,.cls-18,.cls-2,.cls-21,.cls-9{isolation:isolate;}.cls-3{fill:#212f43;}.cls-4{fill:#505c6f;}.cls-5{fill:#505c6e;}.cls-6{fill:#223044;}.cls-7{fill:#222f43;}.cls-11,.cls-12,.cls-13,.cls-14,.cls-8{fill:none;}.cls-18,.cls-9{font-size:20px;font-family:DINCondensed-Bold, DIN Condensed;}.cls-16,.cls-9{fill:#ebd513;}.cls-18,.cls-21,.cls-9{font-weight:700;}.cls-10{letter-spacing:-0.06em;}.cls-11{stroke:#feff18;}.cls-11,.cls-12,.cls-13,.cls-14{stroke-miterlimit:10;stroke-width:3px;}.cls-12,.cls-13{stroke:#4fffff;}.cls-13{stroke-dasharray:7.17 7.17;}.cls-14{stroke:#ff8200;}.cls-15,.cls-18,.cls-21{fill:#fff;}.cls-19{letter-spacing:-0.01em;}.cls-20{letter-spacing:-0.01em;}.cls-21{font-size:14px;font-family:DINAlternate-Bold, DIN Alternate;}.cls-22{letter-spacing:-0.02em;}.cls-23{letter-spacing:-0.01em;}.cls-24{letter-spacing:-0.09em;}</style></defs><title>san-juan</title><g id="Others"><g id="Background"><g id="Layer_1-2" data-name="Layer 1"><rect class="cls-1" x="0.3" width="1473" height="791.6"/><path class="cls-2" d="M1114.4,148.6c.2.2.3.6.4.6,4,.7,8,1.3,12,2a9.91,9.91,0,0,1,1.8.2,105.18,105.18,0,0,1,19,6.1c7.1,3.2,14.1,7.4,21.6,8.8,8.3,1.6,14,6.4,20.5,10.5,5.4,3.4,9.6,8.3,14.8,12.1,9.8,7.2,19.6,14.3,29.8,21a21.9,21.9,0,0,1,8.8,10.2c.4,1,1.3,2.5,2.2,2.7,6.8,1,11.7,5.4,17.4,8.5,14.7,7.9,30.1,14.6,45.5,21.4,6.7,3,14,4.5,20.8,7.3,9,3.7,17.8,7.9,26.6,12,1.2.5,1.8,2.1,2.7,3.1-5.8,4.5-13.5,5.2-18.1,10.8-.7.9-2.4,1.1-3.7,1.4-3.7.7-5,2.5-4.9,6.1.1,1.4-.9,2.9-.9,4.2,0,1.7.2,3.7,1.2,4.9,2.7,3.2,2.8,3.7-.7,6.3-2.5,1.8-4.9,3.9-7.6,5.5a21.82,21.82,0,0,1-5.5,2.2c-3,.8-4,2.8-4.6,5.5a12.19,12.19,0,0,1-2.4,4.3c-.4.5-1.5.6-1.9,1.2-3.1,4.1-7.3,4.4-11.8,3.3-2,3.5-7.5,4.8-12.6,3.3v-3.9c-4.1,2.4-8.2,4.5-12,7.1-1.2.8-2.5,3.1-2,4.1,1.1,2.3,3.1,4.3,5.2,7-5.6-2.3-9,.7-12.4,3.5a3.35,3.35,0,0,1-2.4.6c-1.2-.2-2.8-1.6-3.5-1.3a80.34,80.34,0,0,0-9.5,5.4c-.4.3-.4,1.8,0,2.5,1.1,2.3,2.5,4.6,3.7,6.8-3,3-6,5.5-4.9,10,.2.7-1.8,1.8-2.7,2.8a22.58,22.58,0,0,0-2.5,2.9c-4.4,3.1-10.1,4.6-13.6,9.3-3.4,4.4-2.2,11.7,2,15.6,1.8,1.7,2.4,4.7,3.4,7.1.8,1.8.8,4.1,2.1,5.3a11.54,11.54,0,0,1,4.1,9.8,4.45,4.45,0,0,0,4,4.8h.3c3.5.1,2.9,1.4,1.4,3.3a12.54,12.54,0,0,0-1.2,3c-6.6,2.3-10.4,1-14.6-5-1.2-1.7-2-3.7-5-2.8-.7.2-1.9-1-2.7-1.7-3.1-2.6-5.3-2.9-8.4-.4-3.6,2.8-6.4,6.1-6.4,11,0,1.1-1.4,2.3-2.4,3.7l-2.2-2.4-5.3,5.6a5.56,5.56,0,0,1-.1-1.7c.1-1.5.3-3,.4-4.4-1.2.4-2.3.9-3.6,1.3a4.16,4.16,0,0,1-2.2.2c-2.3-.7-4.5-1.1-5.4,2.7l-.8-1v-2.3c0-3-.1-6-.1-9,0-1.3-.1-3,.7-3.7,3.2-3.1,3.3-7,3.6-10.8.3-4.4.7-8.7.7-13.1a5.83,5.83,0,0,0-2.1-3.8c-2.6-2.2-4-7-2.4-10,2.6-5.1,2.5-5.4-4.2-7.9-.9,2.3-1.8,4.5-2.7,6.8-.1.2.1.6-.1.7-.6.6-1.7,1.8-1.9,1.7-3.2-2-5.2,7-9.1.9-.7-1.1-3.9-2-5.1-1.5-2.8,1.3-3.8-.2-5.1-1.7-2-2.4-3-5.4-6.9-6.2-1.4-.3-2.4-3.5-3.1-5.6-1.2-3.9-.4-8.7-5.6-10.8-.5-.2-.5-1.6-.8-2.3-1.4-2.9-2.9-5.9-4.4-8.7q-2.55-4.8-5.4-9.6c-2.6-4.6-5.4-9.1-7.9-13.7-3.1-5.7-6.2-11.4-8.9-17.3a4.81,4.81,0,0,0-5.8-2.9c-2.2.5-5.8-.2-5,4.3.3,1.7-1.5,3.8-2.8,6.7-2.1-3.3-3.7-5.5-4.9-7.9-3.3-6.6-6.3-13.4-9.7-20-3.7-7.2-5.2-14.9-5.6-22.8-.2-4.4,1.1-8.9,1.6-13.3.2-1.2-.2-2.4,0-3.5.3-1.9.9-3.8,1.3-5.8a19.09,19.09,0,0,0,.6-3.3,5.79,5.79,0,0,0-.7-2.1c-2.9-5.6-2.9-10.8,2.3-15.1-3.2-5.1-3.2-5.1.3-12.6l-4.8-.6c.3-1.2.5-2.3.8-3.2a20.26,20.26,0,0,0-1.4-16.5c-.7-1.2-.7-2.7-1.2-4.1-.2-.7-.6-1.8-1.2-2-4.1-2-6.2-5.6-8.5-9.1-3.7-5.8-7.2-7-14.3-5.6-1.2.2-2.5.7-3.7.9-6.8,1.2-7.1,7.3-3.4,11.1a30.84,30.84,0,0,0,2.7,2.4c-.4,2.4-1.5,3.3-4,2.3-3.6-1.4-7-2-7.4-7.3-.4-5.6-4.6-7.1-11.1-5.6-2.6,6.9-1.8,9.6-17.2,9.4l-4.4,9.6c.8,1.6,1.3,2.6,1.8,3.7l-4.6,1c-1.9,4.2-1.9,4.2,2.9,5a46.74,46.74,0,0,1,6.5,1.3c.7.3,1.7,2.3,1.3,2.7-2.4,3.4-.5,6.6.1,9.8a28,28,0,0,0,2.3,6.3,22.11,22.11,0,0,0,2.8,4c2,2.8,4.1,5.4,6,8.2,1,1.4,2.2,2.8,2.5,4.4.4,2.2.7,4.9-.3,6.8-1.4,2.9-3.9,5.3-6,7.9-.5,4.8,3.8,9.3,2.3,15-.6,2.5,1,5.5,1.4,8.3a23,23,0,0,1,.7,5.8c-.2,2.2.8,3.2,2.5,4.4,2.5,1.8,5.3,3.1,5,7.7-.2,3.6,4,6.8,7.9,8.6,3,1.4,6.2,2.2,9.2,3.6a26.6,26.6,0,0,1,5.3,3.4c1.6,1.2,2.1,3.8,5,2.8.1,0,.2.1.3.2,3,3.2,6.7,6.1,8.9,9.8,1.5,2.6,2.9,4.9,5.8,5.8,5.2,1.5,5.9,6.4,8.2,9.9.5.8-1.6,3.1-2.7,5.2l4.3,2c.3,3.2.2,6.9,1,10.4.4,1.8,2.1,3.5,3.5,4.9,2,2.1,2.5,3.9-.2,5.9l3.8,7.1c-2.4,2.5-.9,4.1,1.7,6.3,2.9,2.5,4.8,6.1,7.1,9.2,1.2,1.5,2.4,3,3.5,4.6.7.9,1.3,1.7,1.9,2.6.4.6.7,1.4,1.2,1.7,3,1.4,6.2,2.7,9.5,4.1.2,1.2.4,2.6.6,3.9-5.1,3.5-5,3.5-1.1,8,1.6,1.8,4.2,3.7,1.2,6.5a.84.84,0,0,0-.2.7c2.1,3,.2,3.8-2.6,3.6,2,6.2,0,9.9-6.1,12.1-4.2,1.5-5.8,3.8-5.7,8.1v.4c-.5,1.1-.6,2.5-1.4,3.3-2.6,2.7-5,6.4-8.3,7.6-3.6,1.2-6.8,2.4-9.4,5.1a13,13,0,0,1-1.5,1l-7.6-10.6c-2.2,3.2-3.4,5.6-1.2,8.7a9.1,9.1,0,0,1,1.9,5.4c-.2,3-.6,3-7.4,4.9-1.7-2.1-3-4.4-5-6.2-1-.9-3-.9-4.6-.9-2.1,0-4.2.5-6.4.6a8.54,8.54,0,0,1-7.6-4c-1.6-2.3-3.9-4.1-5.6-6.3-.6-.7-.3-2.1-.3-3.2a29.62,29.62,0,0,1,.3-3.1c-2-.1-3.8-3.3-5.9-.1-1.3,2-1.8,3.9.2,5.6a4.21,4.21,0,0,1,.7,6.2c-1.5,1.9-4.2,1.7-6.2.2-2.2-1.8-3.7-.8-5.1.9-2.5,2.9-5.3,2.9-8.3.9a8.17,8.17,0,0,0-5.5-1c-6.5,1.2-8.6,1-13.5-2.5l-2.9,1.6-17-1.9.8-1c-.3-1.9-.2-4-1.2-5.6-1.3-2.2-.8-3.5.8-5.2.6-.6.5-1.8.8-2.8-1.2,0-3-.5-3.4,0-1.5,1.8-3.3,1.2-5.1,1.3a55.88,55.88,0,0,0-8.2,1.2c-3.2.7-6.4,2.1-8.2-1.4a55.24,55.24,0,0,1-3.4-6.9,13.28,13.28,0,0,0-6.2-7.2c-2-1.2-1.5-8.4.6-9.9,1.1-.8,3-.5,3.7-.6-1.4-5.6-2.8-11.7-4.5-17.6a56.71,56.71,0,0,0-4.2-9.8c-1.6-3.3-.5-6,1.2-8.9,1.4-2.3,2-5.1,3.2-7.5a23,23,0,0,1,3.3-5.4c2.8-3.1,2.5-4.9-1.6-6-2.4-.6-3.7-1.3-2.8-4,.2-.6-1.3-2.2-2.3-2.6-2.1-.8-3.2-1.6-3-4.2.2-1.9-1.1-4-1.7-5.9-1.6.7-3.1,2-3.9,1.7-3.2-1.2-5.4.6-7.7,2-1,.6-2.2,1.7-2.9,1.5-4.3-1.2-5.3,1.3-5.7,4.6l-1,.2c-1.9-3.1-3.8-6.2-5.7-9.4-.8-1.3-1.1-2.9-2.1-3.8-3.1-2.7-5.5-5.6-5.5-9.9,0-1.9-1-3-3.2-2.7-2.8.4-3.8-1.3-3.8-3.4-.1-5.3-4.1-7.9-7.7-10.6-1-.8-2.9-.6-4.4-.5-2.1.1-4.2.4-6.7.7-.8,2.1,4.2,5.2-.3,7.8a6.57,6.57,0,0,0-1.7-1.2,3.06,3.06,0,0,0-2.3-.3,2.52,2.52,0,0,0-.9,2c.1,3.3.3,6.6.4,9.8l-5.5.7c0,2.6-.3,4.7.1,6.7s1.7,3.6,2.1,5.5c.6,3.2,2.8,2,4.8,2.4a16.43,16.43,0,0,1,8.1,3.8c1.3,1.3.8,4.4,1.1,6.7l-1.1.3c-.5-.4-1-1.1-1.5-1.2a16.28,16.28,0,0,0-3.1.3c.5,3.4-2.8,6.6-.4,10.3.9,1.4.3,3.6.5,5.4.1,1.2.2,2.5.3,3.7a37.23,37.23,0,0,0,5.7-.8c.7-.2,1.1-1.2,1.2-1.3,2,1.9,4,3.8,5.9,5.7,1.6,1.6,3.2,3.3,5,5.3-2.8,1.8-5.6,3-3.2,6,.4.5.9,1.3,1.2,1.2,2.7-.5,3.9,1.3,3.6,3-.4,2.3-1.4,5.2-3.2,6.5-3.1,2.2-3.7,3.9-2.1,7.2s3.8,3.6,7.1,2.4c0,.9.2,1.7,0,2-2.8,2.8-1.5,5.2.3,8,2.3,3.5,1.7,5-1.8,7.6-.7.5-.6,2.1-.7,3.2a24.62,24.62,0,0,0-.2,2.6c-.9-.4-1.9-.8-2.8-1.3a52.94,52.94,0,0,0-5.2-2.9,34.87,34.87,0,0,0-7.2-2,78.47,78.47,0,0,0-8.4-.1c-.1-1.6-.2-3.7-.3-5.8,0-.7.2-1.8-.1-2.1-4.7-3.4-2.2-9.3-5.2-13.3-.3-.5.2-1.5-.1-2.1-.6-1.3-1.2-3.3-2.2-3.5-3-.5-3.9-2.6-5.5-4.5-4.7-5.4-6.4-12.2-6.5-18.3-.2-6.4-5.3-10.6-5.1-16.8.1-2,.3-3.4,1.4-4.8,1.9-2.3,1.7-4-.9-5.8-1.2-.8-1.9-2.4-3.5-4.5-.3,2-1.1,3.5-.7,4.7,1.6,5.4,2.2,10.8.6,16.3-.4,1-.8,2.1-1.3,3.1l-4.1-2.1c0,4.1.4,7.9-.1,11.6-.5,3.9-1.9,7.7-3.1,11.5a3,3,0,0,1-1.7,1.8c-6.6.7-10.3,5.6-14.7,9.3-3.3,2.7-7.1,2.9-10.6,4.4-.2.1-.7,0-.7-.1-1.7-3.8-7.6-3.7-8.5-8.6-.7-4.4-2.8-8.5-1.4-13.2.5-1.6-.4-3.6-.7-5.3-.9-4.8-2-9.5-2.9-14.2a3.66,3.66,0,0,1,.3-2.5c2.6-3.7,1-7.5.8-11.3a8,8,0,0,1,1.4-4.9c1.2-1.6,3.2-2.7,4.8-4.2a109.69,109.69,0,0,0,8.2-8.5c1.7-2,2.4-4.7,5.6-5.3.8-.2,1.6-1.8,1.8-2.8.6-4.5,1.1-9,5.8-11.7a2.26,2.26,0,0,0,1-1.5c.6-3.5,1-7.1,1.8-10.7.7-3.4,0-7,3.1-9.9,1.1-1,1-3.2,1.5-4.8,1.2-4,1.9-8.2,6.8-10.4,2.1-.9,3.5-3.2,5.3-4.7,2-1.6,4.3-3,6.3-4.6,3.9-3.2,7.8-6.3,11.3-9.8,1.2-1.2,1.4-3.4,2.3-5.8a5,5,0,0,0,2.5-1.3c2.3-3,5.6-4.2,9-5.7,1.7-.7,2.5-3.6,3.5-5.5,2-3.5,3.9-7.1,5.9-10.6.2-.4.8-1,.6-1.3-1.7-4.5,2.7-5.3,4.6-7.9,4.5-6,12.3-7.1,17.6-12.1,3.2-3,8.8-3.6,13.1-5.8,4.5-2.4,9.2-4.9,12.9-8.3,2.3-2.1,3.1-5.8,4-8.9.2-.8-1.3-2.3-2.3-3.1a58.4,58.4,0,0,0-5.3-3.3c2-.5,2.9-.9,3.7-.8,14.9,1.2,24.2-5.9,26.2-20a5.36,5.36,0,0,1,1.6-2.4,63.74,63.74,0,0,1,5.7-5.9c4.9-4.3,2.4-9.5,2.2-14.5Zm106,157.2,1.2.5c1.1-2.8,2.3-5.6,3.3-8.4.2-.6,0-2-.3-2.1a3.87,3.87,0,0,0-2.8.1c-.7.3-1.1,1.2-1.8,2-1.5-2.6-2.1-4.7.8-6.5,2.3-1.4,2.6-3.1,1.2-5.5-2.2-3.8-3.9-7.8-2.2-12.4,1.3-3.7-.4-5.2-5.2-4.6.7-2.6,1.4-5,1.8-7.4.2-1.2.4-3-.4-3.7a62.64,62.64,0,0,0-5.7-4.5c-2.4,1.4-3.9,2.9-5.4,3-5.6.5-6.3,1.5-3.6,6.3a29.72,29.72,0,0,0,2.7,3.5,5.44,5.44,0,0,1,1.1,1.8c.6,2.3,1.1,4.7,1.6,7,.7,3.4,5.3,5.6,3.4,9.9-.6,1.2-1.2,2.5-1.8,3.7-1.3,2.8,1.8,8.1,5.1,9.1a5.54,5.54,0,0,1,3,2C1217.8,301.5,1219.1,303.7,1220.4,305.8Zm-66.4,9.3c-1.8-3.4-2.9-7.4-5.6-9.8a14,14,0,0,1-4.3-6.4c-1.2-3.8-1.8-8.1-7.3-8.5-.6-.1-1.3-1.1-1.7-1.8-1.5-2.3-4-2.9-5.9-1.6-2.7,2-5.6,4.5-6.7,7.4-1,2.5,1,5.3,4.2,6.5.6.2,1,1,1.2,1.3l-11.3,2.6V306c4-1.7,6.5.4,8.3,3,2.3-.5,2.1-4.1,5.4-2,4.1,2.7,9.4,3.5,12.2,8.1.7,1.2,2.1,1.9,3.5,3.2C1147.2,312.8,1151,316.6,1154,315.1Zm133.4-49,8.8-1.4,4,3.5,2.8-2.3c-5.8-4.4-5.8-4.4-10.2-2l-3.1-1.9Zm-108.9-18.3c-5.1-3.9.2-7.7-1.1-11.6-1.8,1.9-3.8,3.8-4.2,5.9s.7,4.5,1.2,7.1Zm-55.6-51.9-.8,1c1,.9,2,2.5,3.1,2.6,1.4.1,3.7-.6,4.3-1.6.9-1.5,1.2-3.8-1.8-4.7l-1.6,2.9Zm-79.1,158.3c9.7,7,11.4,7.5,12.8,3.6Zm96.9-170.1,6.5-3.3c-.6-1.4-.9-3.3-4-2.4C1139.2,179.6,1139.3,181.7,1140.7,184.1Zm-157.4,37c1.5,1.8,2.8,3.6,4.2,5.1a2.1,2.1,0,0,0,2,.4,2.81,2.81,0,0,0,1-2.1c-.3-2.1-4.3-4.1-7.2-3.4Zm126.9,59.1a30.26,30.26,0,0,0-4.8-3.1c-.4-.2-2.2,1.7-2.1,1.8a11.5,11.5,0,0,0,3.2,3.4c.4.2,1.8-1,3.7-2.1ZM855.3,303.8l-2.3-4.2-4.8,7.3.8.7Zm350.9-85c-1,1.2-2,2.1-1.8,2.3,1.3,1.7,2.7,3.3,4.1,4.9.6-.5,1.7-1.3,1.6-1.4C1209,222.8,1207.8,221.1,1206.2,218.8Zm3.2,180.2,1,.5,5-7.2-1.7-.9Zm-389.8-2.4c.3-1.7.5-3.4.8-5.1C817.2,392.9,816.7,394.6,819.6,396.6Z" transform="translate(-238.2 -148.4)"/><path class="cls-2" d="M1103.7,582.5c-2.7,5.2-5.2,10.4-8.2,15.5-4.4,7.7,1,11.9,6.7,15.8,4.3,2.9,8.3,1.7,12.6-1.1,6.4-4.2,12.6-3.9,14,4.8,1.2,7.1,5.9,8.6,12.2,10a26.38,26.38,0,0,1-4.4,2.3c-6.3,1.9-9.6,6.6-11.2,12-2.2,7.9-3.1,16.2-5,24.3-2.6,11.1-5.1,22.3-8.7,33.2-1.5,4.3-5.7,8-9.3,11.4-4.8,4.6-3.3,11.5-1.4,16.1,1.2,2.9,3.3,5.5,5.2,8.1a4.89,4.89,0,0,0,2.5,1.7c3.9,1.2,6,3.7,6.1,7.5s3.2,5.3,5.1,7.8c.9,1.1,1,2.8,1.4,4.3.6,1.8,1.7,3.7,1.6,5.5-.1,3.1,2,2.9,4.1,3.7a105.8,105.8,0,0,1,10.7,5.1c-.8,2.2-2.9,5.2-2.1,6.3,2,2.8.1,9.6,7.2,7.5,2,8.8.3,16-8.2,20.2a32.25,32.25,0,0,0,2.9,5.5c1.6,2.1.3,3.4-.5,5.2-.8,1.6-1.5,3.7-1,5.3,1.1,3.9-.5,6.5-3.4,9a10.9,10.9,0,0,0-2.7,4c-1,2.6-1.9,5-5.1,5.8-1,.2-1.6,1.5-2.5,2.3.9.6,1.7,1.2,2.6,1.9,1.2.9,2.4,1.9,3.5,2.8,1.9,1.7,3.7,3.7,5.9,4.8.8.4,3.4-.6,4-1.7,2.9-4.6,7.1-5.1,12-4,2.8.6,5.5.8,6.2-3h1.1c.2.9,1,2,.6,2.6-1.9,3.5-4,6.8-6.2,10.2-2,3.1-4.7,5.9-5.8,9.2a19.94,19.94,0,0,1-6,9.1c-1.8,1.5-3.8,3.2-2.2,5.9,1.9,3.3,5.7,4.9,8.8,4,.4-.1.7-.1,1.1-.2a4.18,4.18,0,0,1-.4,1c2,.8,4,2.2,6,2.3,3,.2,3.6-2.6,5-4.7,2-2.9,4.5-6.4,7.7-7.5,8-2.7,11-8.9,14.4-15.2a22.05,22.05,0,0,1,3-4.5,55.44,55.44,0,0,1,6.7-7c2.4-2,5.4-3.3,8.1-5l2.7-1.6c4.4.2,5.1,2.9,4.6,6.4v.4c.8,5.1,11.2,15.8,16.5,16.5,3.7.5,7.4.1,11.9.1,1,.7,2,1.4,3,2.2.8.7,2.2,1.7,2.1,2.5-.5,4.1,2,6.8,4.9,9.3-2.4,3.1-4.5,6-6.9,8.6-.6.6-2.1.4-3.2.6-1.8.3-4,.2-5.3,1.2-.8.6-.4,2.8-.5,4.3a31.16,31.16,0,0,1-.5,4.4c-.7,2.8-2.9,5.3-.2,8.5.7.9-.1,3.6-1,4.9-2.6,3.9-5.7,7.5-8.4,11.3-.7,1-1,2.9-.4,3.7s2.5.8,3.8.7c4.6-.6,9.1-1.6,13.6-1.9.8-.1,2.5,2.2,2.7,3.6a45.87,45.87,0,0,1,.1,7.4l-12.2,4.3h-34.5c1.4-1,2.8-2,4.2-3.2,1-1,2.6-2.4,2.4-3.4-.9-4.8-8.6-8.2-13.4-5.9a36.85,36.85,0,0,0,0,4.7c.3,2.8-.9,4-3.6,2.8a35.61,35.61,0,0,1-6.9-3.8c-.9-.7-1.7-3.2-1.2-3.6,3.4-3.2.6-3.7-1.8-4.5-1.4-.5-3-1.5-4.3-1.2-2.5.4-5.5,1-7.2,2.6-1.1,1-1,4.3,0,5.8,2,3.4,4.8,6.4,7.3,9.6h-6.9c.2-.8.5-1.7.7-2.5s.4-2.5.2-2.5c-3.4-1.1-7-3.2-10.2-2.6a11,11,0,0,1-5.4-.1c-4-1.2-6.6-4.7-11-5.7-6.2-1.4-8.4-1.2-11.3,4.4a11.94,11.94,0,0,0-.8,1.6c-2,4.5-1.8,5,2.6,7.5h-42.2c-.5-1.2-1-2.4-1.8-4.4a56.58,56.58,0,0,0,5.9,1.5c1.4.2,3.6.3,4.1-.4,2.1-3.1,4.4-6,3.9-10.3s-2.3-5.8-6.4-6.9c-3.6-1-6.8-3.5-10.2-5.3-2.2-1.1-4.4-2.1-7.3-3.5l8.5-6.1c1.4,3,3.2,4.7,6.6,2.5.6-.4,2.1.4,3.2.8,2.8.9,3.8,0,3.5-2.6a11.85,11.85,0,0,1,.5-3.2c.9.5,1.8.9,2.7,1.4,1.3.8,2.6,1.6,4,2.4-4,3.4-5.5,11.1-2.8,13.7a9.81,9.81,0,0,0,13.9-.1,10.59,10.59,0,0,0,1-1.2c-.5-2.2-.9-4-1.3-5.9l.8-.6c3.5,2.4,5.4.7,6.8-2,1.5-3,3.4-6,4.3-9.2,1.6-5.3-1.6-8.5-7.4-9.6-4.4-.9-8.5-3-12.8-4.6s-8.7-3-13.1-4.4c-1.9-.6-3.9-.9-5.6-2.1l-8,.6c-2.2,5.9-6.8.7-10.2,2.1-.1-.3-.3-.6-.4-.9a20.28,20.28,0,0,1,1.8-1.3c2.4-1.3,2.5-2.8.6-4.6a7.94,7.94,0,0,1-1.9-2.2c-1-2.4-2.4-3.9-5.5-3.3-3.4.6-6.1,2.2-7,5.4-.3,1,1.4,2.6,2.6,4.7-.8,3.1-2.9.5-4.8-.2v-3.6c-3.3-.2-6.5-.5-9.7-.7-3.4-.2-5.5,2-4.7,5-6.3,1.5-11.6-1.2-15.5-4.9-2.3-2.1-.5-7.4-4.4-9.7,1.1-1.1,2.1-2.6,3.4-3.1,4.9-1.7,5.7-2.4,7.2-8.5l-7.8,3.6c-.3-3.5-.8-6.7-5.6-4.6-3.1-7.2-8.6-11.6-16.3-13.3-4.4-1-5.3-.3-6.8,3.8-.2.6-1.6.9-2.5,1.2-2.3.8-5.2,1-6.8,2.5s-1.8,4-2.6,6.2c-7.6-1.7-14.3-11.2-12.8-19.8.5-2.6-.3-3.7-2.6-4.3s-3.2-2.2-2.2-4.2c1.8-3.5,4.2-6.8,5.5-10.5.8-2.3.2-5.1-.1-7.6a6,6,0,0,0-1.6-3.3c-5.6-6.8-1.8-14.5-2.5-21.7-.7-7.5,2-14.4,2.7-21.6.3-3.4,1-6.8,1.2-10.1.3-6.1,1.2-12.1,4.8-17.4a60.7,60.7,0,0,0,3.5-6.6c2,.8,4.2,2.5,5.9,2.2a23.19,23.19,0,0,0,8.5-3.7c.9-.6.8-2.9.8-4.3a55.32,55.32,0,0,0-.7-7l1.1-.4c1.3,1.3,2.6,2.8,3.8,4.2,2.8,3.8,7,5,10.8,2.1,6.5-4.8,14.2-8.8,16.8-17.1.9-2.8.9-5.9,1.4-8.8.3-1.8.3-3.8,1.2-5.3,3-5,2.7-7.6-1.4-11.9-1.7-1.7-2.7-4-4-6.1l-4,2.4a14.27,14.27,0,0,1,.8-2.2c4.4-5.4,2.4-11.1.9-16.7-3.1-11.8-6.5-23.4-9.3-35.2-.8-3.3-.2-7,.3-10.5,1.2-7.2,2.7-14.3,4.2-21.9a46.06,46.06,0,0,0,6.3,3,76.54,76.54,0,0,0,9.4,1.5c1,0,2-.1,3-.2,7-.2,11.5-4,14.8-9.5.8-1.4,2-2.6,2.8-4,2.8-4.8,6.7-7.2,12.7-7.1,5.6.1,8-4,6.4-9.3-2.5-8.4-3-16.7.4-25.1a18.4,18.4,0,0,1,11.5-10.8c1,2.4,1.9,4.5,2.6,6.6a3.23,3.23,0,0,1-.4,2.7c-2.2,2.9-2.3,5.6-1.2,9.2,1,3.3.3,7.1,0,10.7-.2,2.5-1.2,4.8-1.4,7.3a3.55,3.55,0,0,0,1.4,2.5c2.9,2.8,3.5,5.3,1,8.3-1.7,2.1-1.2,3.6.9,4.3,4.2,1.5,8,4.5,13,3.2,1.7-.4,3.5-.5,4.4,2.1,1.1,2.9,3.1.9,4.6.3Zm-32.5,97.4c.7-.7,2.5-1.8,3-3.3.9-2.6-2.9-8.5-5-8-2.8.7-6.2,2.2-7.5,4.4-1.4,2.4,3.6,6.3,9.5,6.9Z" transform="translate(-238.2 -148.4)"/><path class="cls-2" d="M1490.4,940c-.3-4.4-.4-8.9-.8-13.3-.6-5.6-1.3-11.1-2.2-16.6a7.65,7.65,0,0,0-2.2-3.9c-3.3-3.5-3.2-5.2.2-8.3a2.17,2.17,0,0,0,.3-2.3c-2.5-3.2-2.6-3.1,0-6.6l4.9,1.5c-.2,1.2-.3,2.3-.6,4.1,4.8-.7,9.4,2.9,13.7-.6,1.9-1.6,3.3-3.8,4.9-5.7,1.2-1.5,1.9-3.5,3.3-4.7,4.5-4.2,5.9-9.2,5-15-.5-3.4,1.7-5.5,5.4-5.1,3.4.4,6.1-1.6,7.5-4.6,2.3-4.8.3-9-1.5-13.3-1.5-3.5-2.5-6.8-1.2-10.8.8-2.7-.5-6.2-1.1-9.2-.8-4.3-2.6-8.5.4-12.7.4-.5-.2-2-.7-2.7-5.5-6.5-11.3-12.8-16.6-19.5-1-1.3-.5-3.9-.4-5.8.2-3.5.7-7,.9-10.4a3.09,3.09,0,0,0-1.5-2.3c-6.2-4.4-12.5-8.7-19.3-13.3a11.66,11.66,0,0,0-1.6-3.6c-1.4-1.7-3-3,.6-5l-4.4-.6c.4-1.2.7-2.2,1.1-3.6l-4.9,2c.2-1.8.3-3,.4-4l-.9-.5-2.9,4.7c-.6-1.8-1.1-3.2-1.6-4.7-.5.1-1.2,0-1.4.3-2.5,2.8-.1,10.3,3.5,11.2,2.7.7,5.5,1.6,8.2,2.3l-.2,1a8.13,8.13,0,0,1-2.2-.1c-5.3-1.9-10.6-4-16-5.6a6,6,0,0,0-4.9.7c-4.6,3.5-9.3,4.1-14.7,2a14.47,14.47,0,0,0-5.4-.8c-5.9,0-6.8-.9-4.9-6.8a18,18,0,0,1,2.1-3.5c1.4-2.2,2.2-4.1.6-6.7-1.5-2.3.2-5.2,3.3-5.7a50.08,50.08,0,0,1,9.5-.8c4.2.1,6.4-1.6,7.1-5.6a23.6,23.6,0,0,1,2.1-5.2c.8-2,1.3-4.2,2.6-5.8a45.72,45.72,0,0,1,8.3-8.7c.9-.7,4,1.1,6.1,1.8-.6.1-1.7.1-1.7.4a21.1,21.1,0,0,0-.9,4.9c0,.3,1.8.7,2.8,1,.3-1.5.6-3,.9-4.6a4.25,4.25,0,0,0-.2-1.1c4,.4,4.9,3.4,5.2,6.3s1.8,3.8,4.3,4.4c5.1,1,9.9,1.3,14.7-1.3a200.59,200.59,0,0,1,40.9-16.3c1.2-.3,2.1-1.2,3.2-1.8,3.2-1.5,6.3-3.6,9.7-4.4,11.3-2.6,20.9-8.2,30.5-14.1,1.7-1.1,3.9-1.4,5.9-2.1.6-.2,1.3,0,1.9-.3,3.9-2.1,7.7-4.3,11.6-6.5a20.16,20.16,0,0,1,3.2-1.8c2.8-1.1,5.6-1.8,5.8,3.4a37.12,37.12,0,0,0,3.2-2.3,28.48,28.48,0,0,0,2.3-2.6l2.7,3.5c3.6-2.8,7.9-.6,13,.4-1.5,7.6,4,14.8,3.4,23.2l-9-3.7c.1.2-.2-.4-.4-.9-2.4-5.1-4-6-9.9-4.9a3.68,3.68,0,0,0-2.5,2.2c-.8,3.8-1.2,7.6-1.7,11.2.7.3.9.6,1.1.6,6.8-.3,7.4.4,4.4,6.2-2,3.6.4,6.6,1.1,9.8.9,4.1,2.1,8.1,3.2,12.4,7,2,5.5,2,7.1,10.6.5,2.6,1.3,5.1,2,7.6.1.4.6.9.4,1.3-2.1,6.1,2.2,10.7,4.2,15.8a31.62,31.62,0,0,0,3.6,7.1,9.84,9.84,0,0,0,4.2,3c3.2,1.4,6.6,2.5,9.9,3.9a32.07,32.07,0,0,1,3.1,1.9c-3.6,2.8-6,.8-9.6-1.5-.4,2-1.1,3.5-1,5,.2,4.5.4,9.1,5.1,11.9a2.33,2.33,0,0,1,.8,1.2c2.8,8.3,7.8,16,7.1,25.2a.85.85,0,0,0,0,.7c1.1,2.4,1.9,5,3.3,7.2,2.6,3.9,4.6-.1,6.7-.8.4.2.8.2.9.4,1,6.3,6.7,4.8,10.7,5.7,3.2.8,8.3-4.7,8.3-8.5,0-8.3.8-16.6-2.2-24.6-3.6-9.5-1.8-19.9-5.5-29.3a65.35,65.35,0,0,0-3-5.9l5.3-23.7c3.8-7.8,12.5-11.1,23.1-11.2V883.5a9.82,9.82,0,0,0-3.4.3c-3.2,1.4-5.6,1.1-8-1.7-1.3-1.6-3.7-3.6-5.4-3.4-4.5.5-9.2,1.3-13,3.5-2,1.1-2.6,5-3.1,7.8-.9,5.1-2.2,10.4-1.5,15.4,1,6.4,2.6,12.3-1.7,18.1a2.63,2.63,0,0,0-.6,2.1c.8,5.4-3.6,7.7-7.1,10.2-2.9,2.2-6.7,3.3-10,4.9H1490.4V940Zm84-28,1.2-1c2.2.3,4.5.5,6.7.8,2,.3,4.1,1.1,5.8.7a10.32,10.32,0,0,1,8.2,1.4c6.2,3.8,16.4,2,19.9-3.5a11.5,11.5,0,0,1,7.8-5.2c2-.4,4.4-1.4,5.4-2.8a23.27,23.27,0,0,0,3.4-8.1c1.2-5.5-3.3-9.2-8.8-7.7a50,50,0,0,0-4.8,2.1,16.26,16.26,0,0,1-3.9,1.3c-2.6.4-5.1.6-7.7.9a30.18,30.18,0,0,1-6.7.4c-6.1-.6-11.9-.6-16.7,4a15.66,15.66,0,0,1-4.7,3c-3.8,1.4-6.3,3.2-4.7,7.6.2.5-.4,1.3-.4,2-.1,1.3,0,2.7,0,4.1Zm-4.2-44.3c-1.2-2-1.9-5-3.7-5.7-4.7-1.9-8.6-4.2-11.5-8.3a4.9,4.9,0,0,0-3.2-1.3,10.83,10.83,0,0,0-4.4.1,14.29,14.29,0,0,0-4.6,2.7c-.2.1,1.2,2,1.9,3,1.1,1.7,2.6,3.2,3.3,5a16.62,16.62,0,0,0,11.9,10.8c4.3.9,9.4-2.3,10.3-6.3Zm6.4-63.1,4,7.9c4.8-3.4,5.8-9.6,1.9-11.4-2.3-1-2.4-2.4-2.5-4.3-.1-2.3-.3-4.5-.5-7-4.6,1.7-10.8,11.6-10.1,15.2.5,2.3,1.8,3.2,4.1,1.6a27,27,0,0,0,3.1-2Zm53.8,45.2c0-9-1.5-13.3-6.2-17.6a103.72,103.72,0,0,1-1.3,11.2c-1,4.4-5.7,4.4-9.1,6.3a18,18,0,0,0,6.1.5c1.6-.2,3.1-.9,4.7-1a29.3,29.3,0,0,1,5.8.6Zm-86.2-114.6,9.6,2.5c-1.5-5.7-3.8-11.3-.2-16.5l-4.6-3.4a53.59,53.59,0,0,0-1.7,5.7c-.3,1.8,0,3.8-.5,5.5-.8,2-1.6,4.1-2.6,6.2Zm7.9,6c-2.4,4.7-4.7,9.4-7.1,14l.9.5a59.74,59.74,0,0,1,4.4-4.3c2-1.4,4-2.6,6.1-3.8-5.8-.1-1.7-4.5-4.3-6.4Zm-6.6,165.1c3.9,3,6.6,2.5,8.8-1.2a7.42,7.42,0,0,0,.5-2.5c-1-.1-2.3-.6-3-.2a41.17,41.17,0,0,0-6.3,3.9Zm-18.1,2.9-1.8-.3a34.53,34.53,0,0,0-1,5.6,4.15,4.15,0,0,0,2.7.7c3.4-2,.1-4,.1-6Zm22.5-138.6,1.5.1q1.2-1.65,2.7-3.6l-3.6-3-1.2.5c.3,1.9.4,3.9.6,6Z" transform="translate(-238.2 -148.4)"/><path class="cls-2" d="M238.2,740c2.9,2,5.3,5.2,9.6,4.3,1.4-.3,2.7-1.3,4.6-2.2a44,44,0,0,1,4.5,6.6,13.22,13.22,0,0,1,.6,6.3c-.2,3.2.7,4.1,4.5,3.2,1,2.8,1.9,5.5,2.9,8.3l-.9.5-1.7-1.5c-4,1.7-1.9,4.6-1.5,7.1.4,2.8.6,5.6.9,8.4a12.59,12.59,0,0,1,.4,2.7c-.2,1.8,0,4-1,5.3-3.1,4-2,8,3.2,9.2,2,.5,2.9,1.1,3.1,3.3.3,4.3,1.7,5,6,3.6,1.5-.5,7.5,1.9,8.3,3.3a5.36,5.36,0,0,0,1.5,1.5c2.5,1.7,5.4,3,7.4,5.1,1.9,1.9,2.8,4.7,4,7,10.1-1.6,7,6.6,9.2,10.8,2.5.2,4.3-.2,3.2-3.3a10.11,10.11,0,0,1,7.9,7.5,17.29,17.29,0,0,0,5.5,8.6c2.7,2.4,4,6.1,6.2,9a7.34,7.34,0,0,0,3.3,1.9c1.3.5,3.8.5,3.8.9a10.71,10.71,0,0,1-.6,5.6c-.8,2-2.3,3.8-3.3,6.9-2.7-.8-5.6-2.6-8.2-2.3-2.9.3-6.4-2.7-8.9,1.7-1.7,2.9-8.6,1.4-10.3-1.8a34.71,34.71,0,0,0-2.9-3.8c-1-1.2-1.9-2.3-3.3-4-3.8-.4-8.6-6.5-7-10.6,1.3-3.4-.8-3.8-3.1-4.1-6.6-.8-11.5,2.2-15.6,6.7-.4.5-.8.9-1.2,1.4-3.7,4.9-4.6,11.4,3.7,13.3,1.2,2.2,1.7,4.4,3.1,5.4,1,.7,3.2-.2,4.9-.5l1,4.5c-3.9,1.9-4.3,3.5-1.5,7.3,3.6,4.8,2.9,10.3-1.4,12.9a39.34,39.34,0,0,0,.6,4.8,25,25,0,0,0,1.5,3.8l-6.6,2.4c-6-3.5-8.9-2.7-13.1,4.5-2.4,4.2-5.4,8.3-4.1,13.7.2.9-.7,2.4-1.6,3.1-3.3,2.5-6.4,4.9-3.8,9.6.3.5-.3,1.4-.5,2.1h-13Z" transform="translate(-238.2 -148.4)"/><path class="cls-2" d="M1570.9,302.5c-4.3-4.3-8.7-8.5-12.9-12.8a140.22,140.22,0,0,1-20-26.1,7.25,7.25,0,0,0-3.5-2.7c-3.9-1.5-5.6-4.5-7.8-7.6-3.4-4.8-7.6-9.1-11.5-13.5-1.2-1.4-3.3-2.4-3.9-4-2.7-7.3-9.2-10.7-15.3-14.7-1.6-1-2.8-3-3.8-4.7a131.26,131.26,0,0,1-7-12.7c-1.2-2.7-1.2-5.9-2-8.8-.8-3.1-1.2-6.5-3-9.1a76.32,76.32,0,0,1-13.8-37h35.3c4.3,5.4,5.9,11.8,6.8,18.3.8,5.5,2.8,7.1,8.4,5.6a2.81,2.81,0,0,1,2.3,1.6c1.1,5.4,5.2,8.7,10.7,7.2,3.5-.9,6-.1,8.8,1.7,3.3,2.2,6.9,4,10.3,6a4.74,4.74,0,0,1,1,1c2.6,3.8,5.2,7.6,7.9,11.3.7.9,2.2,1.1,3.2,1.8,2.1,1.4,4.7,2.6,6.1,4.5,1.7,2.4,2.4,5.5,3.5,8.2C1570.9,244.8,1570.9,273.6,1570.9,302.5Zm-70.3-87.4c2.7-5.1.8-10.2-3.7-10.9C1495.8,207.1,1497.4,211.9,1500.6,215.1Zm51.7,4.4.8-1.1c-1-2.4-2.6-3.6-5.3-2.8l-.7,1.3Z" transform="translate(-238.2 -148.4)"/><path class="cls-2" d="M842.8,148.6c.2,1.2.8,2.6.5,3.7a4.9,4.9,0,0,1-2.5,2.8c-1.5.5-3.3.1-4.9.1-5.8,0-5.8.1-5,6.1l3.2-.2c.2.3.4.6.3.7-2.4,2-1.5,3.6.8,4.8,3.4,1.8,4.5,4.8,5.8,8.1,3,7.3-1.3,11.6-5.5,16.5-2.8,3.3-5.3,6.8-7.9,10.3a55.36,55.36,0,0,1-24.7,18.8c-7.1,2.8-13.6,7.1-20.7,10-4.4,1.8-9.4,2.2-14.1,3.2l-1.2-1.5c2-3.9,3.8-8,6-11.8,2.5-4.1,5.5-7.9,8.1-11.8.6-.9,1.3-2.3.9-3.1-1.9-3.9.1-8.1-1-12a5.67,5.67,0,0,0-1.2-1.8c-9.3-9.2-18.9-17.9-32.8-20.2-6.4-1.1-12.8-2-19.2-2.9-4.4-.6-8.8-1.1-13.2-1.6l-.4-1a26.4,26.4,0,0,1,3.8-1.8c10.3-3.1,20.9-5.5,30.3-11a47.1,47.1,0,0,0,5.6-4.4Z" transform="translate(-238.2 -148.4)"/><path class="cls-2" d="M238.2,375.8c1.6,7.4,3.9,14.8,9.4,20.4A54.18,54.18,0,0,0,262,406.5c5.3,2.6,7.9.8,9.2-4.8.1-.6.2-1.2.3-2,7.7.8,12.8,5.1,17.8,9.9a36.33,36.33,0,0,0,4.7,4.1c4.5,3.3,9.4,6.2,13.7,9.8,5.5,4.7,10.6,9.9,15.8,15,1.4,1.4,2.5,3,4,4.6-4.7,2.4-7.3,5.2-5.3,10.4.4,1-.9,2.6-1.5,3.9-1.2,2.3-1.8,4.3,1,6,4.4,2.9,2.9,7.4,3.1,11.5-.3.1-.7.5-1,.4-3.6-1.3-7.1-2.8-10.8-4-2-.6-4.3-.6-6.4-1-1.2-.2-2.7-.3-3.5-1-4.8-3.9-6.9-4-11.2.2-2.9,2.8-5.9,5.5-6.4,9.9-.1,1.2-3.7,3.4-4.5,3-2.2-1.1-4.8-3.1-5.5-5.2-1.3-3.7-.6-8-2-11.6-1.2-3-4-5.5-6.6-7.8a51.78,51.78,0,0,0-8.9-5.7c-6.6-3.8-10.5-9.1-11.2-16.7a91.87,91.87,0,0,0-3.4-17.2c-.8-2.9-3.3-5.3-5-8Z" transform="translate(-238.2 -148.4)"/><path class="cls-1" d="M1571,215.9c-1.1-2.8-1.8-5.8-3.5-8.2-1.4-1.9-4-3.1-6.1-4.5-1-.7-2.6-.9-3.2-1.8-2.8-3.7-5.3-7.5-7.9-11.3a4.74,4.74,0,0,0-1-1c-3.4-2-7-3.8-10.3-6-2.8-1.8-5.2-2.7-8.8-1.7-5.4,1.4-9.6-1.8-10.7-7.2a2.91,2.91,0,0,0-2.3-1.7c-5.6,1.5-7.6-.1-8.4-5.6-.9-6.5-2.5-12.9-6.8-18.3h54.5l15.3,17.6c1,1,2,1.9,3,2.9v50.5A44.44,44.44,0,0,1,1571,215.9Z" transform="translate(-238.2 -148.4)"/><path class="cls-1" d="M1166.6,940c-2.5-3.2-5.3-6.2-7.3-9.6-.9-1.6-1-4.9,0-5.8,1.7-1.6,4.7-2.2,7.2-2.6,1.3-.2,2.9.8,4.3,1.2,2.4.8,5.3,1.3,1.8,4.5-.5.4.3,2.9,1.2,3.6a38.8,38.8,0,0,0,6.9,3.8c2.6,1.2,3.9,0,3.6-2.8a36.85,36.85,0,0,1,0-4.7c4.8-2.3,12.5,1.1,13.4,5.9.2,1-1.4,2.4-2.4,3.4a46.32,46.32,0,0,1-4.2,3.2Z" transform="translate(-238.2 -148.4)"/><path class="cls-1" d="M1124.4,940c-4.4-2.4-4.5-2.9-2.6-7.5a11.94,11.94,0,0,1,.8-1.6c2.9-5.6,5.1-5.8,11.3-4.4,4.5,1,7,4.5,11,5.7a11,11,0,0,0,5.4.1c3.1-.5,6.8,1.5,10.2,2.6.2.1-.1,1.7-.2,2.5a11.7,11.7,0,0,1-.7,2.5h-35.2v.1Z" transform="translate(-238.2 -148.4)"/><path class="cls-2" d="M272.7,148.6c-.8,1.7-1.2,3.7-2.5,4.9-1.7,1.5-4,2.3-6.1,3.3-1.5.8-1,5.4.8,7.1a15.28,15.28,0,0,0,3,1.9c-1,0-1.6.2-1.8,0-3.5-3.3-8.1-4.8-12.2-7a16,16,0,0,0-2.3-1c-5.4-1.6-9.9-4.3-12.6-9.4h33.7Z" transform="translate(-238.2 -148.4)"/><path class="cls-2" d="M555.9,422.9c3.5-3.9,2.2-7.4-2.2-9.9-3.2-1.9-5.5-5.4-7.9-8.4-.3-.3,1-2.1,1.8-2.9,3.2-3,6.8-5.8,9.8-9,2.8-3.1,2-5.8-1.7-7.8-.6-.3-1.3-1.2-1.2-1.6a4.14,4.14,0,0,1,1.7-2.2,24,24,0,0,1,5.9-1.3c4.6-.1,9.2,1.5,14,.4.8-.1,2.2,1.4,4.2,2.6-7.4.6-13.9.8-19.8,3.9,1.5,2.8,3.1,3.6,6.1,2.7,3.3-1,6.8-1.2,9.1,2.4.4.7,2.1,1,3.1.8,4.4-.6,8.6-2,13.1-.3.9.4,3-1,4-2.1a5.1,5.1,0,0,1,6.1-1.4c1.4.5,3.2.1,4.8.4a21.2,21.2,0,0,1,6,2c3.9,2.3,6.7,1.4,8-2.7.4-.8.8-1.6,1.3-2.4,7,4,13.4,2.1,19.7-1.5a14.57,14.57,0,0,0,9.6,7.8,3.89,3.89,0,0,1,2.2,2.5,24.79,24.79,0,0,1,.1,4.7c0,.9-.3,1.9.1,2.5,2.1,3.3,4.4,6.6,6.5,9.7-.4,2.8,0,6.1-1.4,8.6-2.6,4.5-.4,10.6-5.6,14,.8,3.4-4.7,6.8,1.2,10.8l-8.8,1.5-.1,1.3c4.3,2,8,4.6,12.8,6.2,5.7,2,13.4.9,17,7.5.3.6,1.5.8,2.3,1,4.5,1.4,9.2,2.5,12.4,6.3a9.16,9.16,0,0,0,3.2,1.8c2.9,1.2,4.7.5,4.8-2.8l.8.1c1.8.3,4.1,0,5.3,1s.4,3.9,1.4,4.5c8.7,5.6,13.9,14.8,23.7,19.6,6.3,3,9.5,9.9,12.6,16.1a11.65,11.65,0,0,0,1.7,2.8c2.9,3.2,6,6.2,8.7,9.4a7.54,7.54,0,0,1,1.8,4.3c.2,6.1,4.1,9.6,9.2,12.5a42.4,42.4,0,0,1,7.2,4.7c2.4,2.1,4.4,4.4,8.2,3.8a3,3,0,0,1,2,.8c4,3.8,9.3,3.7,14.3,4.2,3.1.3,6.3-.2,9.4.2,2.2.2,4.4,1.2,6.5,1.8,1.8.5,3.8,1.8,5.3,1.4,3.2-.8,5,.1,6.7,2.5,1.1,1.5,2.9,2.5,3.9,4s2.3,3.6,2.3,5.4c0,2.9,1.5,4.2,3.5,5.9,4.5,3.8,9,7.8,8.2,14.4a54.24,54.24,0,0,1-1.9,8.9,3.61,3.61,0,0,1-2.5,2.3c-3.6.7-7.1,1-10.2,3.4-1.5,1.1-4.6.1-6.9.4-3.3.5-3.8,1.9-2.1,4.7,4.1,6.6,4.1,6.6-2.8,10.8a3.83,3.83,0,0,0-1.1,5.2,3.91,3.91,0,0,0,1.7,1.4,37.57,37.57,0,0,1,9.1,5.7c2.8,2.3,7.3,2.9,11.1,3.8,3.3.8,5.1,2.8,7.4,5,3.1,3,2.5,6,2.9,9.2a4.56,4.56,0,0,0,2.7,3.2c2.4.5,4,1.2,4.3,3.8a3.2,3.2,0,0,0,2.3,1.8c1.7-.5,3.9-1.2,4.7-2.5,1.2-2,1.4-4.5,2-7,3.7.2,4.9-1.4,2.7-4.8a1.93,1.93,0,0,1-.3-1c.8-3.5,1-6.9-3.1-9.6,3-1.4,4.7-2,7.5-.8,1.9.8,5.5.4,6.9-.9a5.81,5.81,0,0,1,6.3-1.3c1.3.4,2.8.2,4.1.5a6.82,6.82,0,0,1,2.6,1.2c1.3,1.2,2.3,2.8,3.7,3.8,2,1.5,2.4,2.7,1.4,5.2-1.5,3.5-3.3,7.4-.5,11.1,3.2,4.2,6.2,4.4,10.8.8a65.35,65.35,0,0,1,3.5,5.6,9.71,9.71,0,0,1,.7,3.7c.1,2-.1,4,.1,5.9.2,2.2-3.3,6.1-6,6.6-8.4,1.4-11.6,4.2-13.5,11.6-.3,1.1-1.3,2.6-2.3,2.8a4.69,4.69,0,0,1-3.5-1.5c-3.7-4-6.9-4.6-11.2-1.4-2.2,1.6-4.2,2.3-6.5.4a4,4,0,0,0-2.1-.9c-6,.2-6.8-4.1-8.2-8-.2-.8-1-2-1.3-2-3.9.4-6.5-3.1-9.5-3.5-3.5-.5-7.6,1.4-11.1,2.9-2.3,1-4.1,3-6.1,4.5l-.7-.8,8.8-7c-3.7-4.3-7.2-3.6-12-1.6-4.6,1.9-1.2,4.2.6,6.6a13.49,13.49,0,0,1-3.5,1.4c-4.1.5-6.2,3.1-7.5,6.4s0,4.3,3.5,4.4c.9,0,2.7,2,2.5,2.5a17.1,17.1,0,0,1-3.1,5.2,11.54,11.54,0,0,0-3.2,8.3c-.2,5.4,3.4,6.4,6.8,8.2,1.3.7,3.2.5,2,2.7-1,1.7.2,5.1-4.1,4.1-2.8-.7-6.4,1.7-6.9,4.4s.2,4.7,3.4,6.1c1.6.7,2.5,3.4,3.2,5.4.5,1.3.1,2.8.1,4.5l-5.5,2.6c-2.2,1-3.4,4.1-1.7,5.5s2,4.8,5.6,3.6a6.19,6.19,0,0,1,1.4,2.8c0,2.4,1,3.6,3.3,4.7a10.07,10.07,0,0,1,6,8.5c.6,5.4,5.3,9.6,9.7,9.1.2,2.6.7,5.3.4,7.9-.2,2.3-1.5,4.6-2,6.9-1.3,5.8-.6,12,2.6,16.6,4.1,6,8.7,12.2,15.6,16,5.9,3.2,11.4,7,17.4,9.9a92.34,92.34,0,0,0,14,4.8c.8.2,2.1-.5,3.1-1,4.8-2.4,7-2,11.5,1.7,1,.8,3.2.7,4.5.2a20.26,20.26,0,0,0,5-3.2c2.9-2.3,5.1-1.4,6.9,1.3a8.11,8.11,0,0,0,8.1,3.9c-2.3-2.5-4.2-5.5-6.9-7.3-4.3-2.8-4.3-7.1-5.3-10.9-.8-3.1,2-4.7,5.2-3,2.4,1.2,4.4,3.2,6.7,4.7,2.8,1.9,5.7,3.8,8.4,5.6a28,28,0,0,0,.9,5.8c.9,2.4.8,4.2-1.4,5.8-.6.5-1.1,1-1.6,1.5-3.4,3.3-3.6,4.8-1.2,8.9l1.6,2.6c-1.1,2.2-2.3,4.4-3.2,6.7-.3.8.5,1.9.5,2.9,0,1.4.1,3-.6,4.2-.4.6-2.3.6-3.5.6-3.1,0-5.1-2-7.4-3.6-8.1-5.7-17.8-6.1-27.2-7.3-12.8-1.7-25.7-3.3-38.6-4.7-5.6-.6-11.3-.3-17-.5a6.15,6.15,0,0,1-3.5-.7c-7.3-4.8-13.7-3.4-20.1-2.5-.2-1.4,0-3.2-.8-4.2-.6-.8-2.7-1-3.8-.7-3,1-5.2.2-6-2.5-1.2-3.9-5.1-2.8-7.6-4.5-.3-.2-2.3,1.1-2.6,2-1.7,4.7-1.6,4.7-7.1,7.8-2-3.3-3.7-6.8-6-9.8-2.8-3.5-5.8-6.8-10.7-8.2a20.76,20.76,0,0,1-7-4.2c-2.2-1.8-3-4.1-2.6-7.3s-3.7-3.1-6.4-3.9c.7-2.5-.5-2.8-2.7-1.3-2.2-3.4-4.2-3.8-7.7-2.1-9.2-1.9-13.8-7.3-14.7-15.7,3-3,2.9-4-1.4-8.1.3-5,2.9-7.5,8.2-8.9,4.4-1.1,4.6-3.1,3-7.5-.8-2.1-2.2-4.2-.5-6.5.4-.5.1-1.7-.4-2.3-2.7-4.1-15.1-8.2-19.3-5.9a10.65,10.65,0,0,0-4.3,5.9c-.6,2.1-1.1,3.2-3.6,3.3-1,.1-2.7,1.6-2.6,2,1,3.1,1.9,6.4,3.7,9.1s2.1,4.1-1.6,6.4l1.4-5c-4.1.8-7.6,4.3-12.1,1l2.8-3c-1.8-3.1-3-1-4.8,1.3.1-2,.2-3.1.2-4.2-5.3-2.9-6.9-2.2-8.3,3.2-.3,1.3-1.6,2.3-2.4,3.4l-3.9-4.2-7.3,6.2c-2-3.4-4-6.5-5.7-9.7-.3-.7.6-1.9.8-2.7-4.1-2.8-8.2-5.5-12.2-8.5-.8-.6-.9-2.2-1.5-3.8l-9.9-1.5c-1.9-2.4-4.7-3.1-9.5-2.7-3.9.4-9.1.6-13.4-3.8a142.28,142.28,0,0,1-10.8-12.5c-.7-.9-3.1-1.2-4.5-.9-4.1.8-9.5-.6-11.7-3.8-.8-1.2-.3-3-.9-4.3-2.7-5.3-5-10.9-12.1-12.7-3.7-.9-8.8-11-8-14.8,1.3-6.6,0-8.1-7.2-8.4-5.6-.3-8.5-4.3-6.6-9.4,1.6-4.4-.5-9.1-5-10s-5.8-3.8-5.8-7.4a8.37,8.37,0,0,0-2.9-6.4c-5.5-5.5-9.5-11.8-8.8-19.9.1-1.6.4-3.4-.2-4.7-2.4-4.8.1-8.9,2.2-12.8,1.1-2,3.8-3.3,6.4-5.4l-3.8-3.8c-.3-2.1-.9-5.4-1.2-8.7a10.74,10.74,0,0,1,.2-4.7c1.6-4-1-6.4-3.7-8.4-1.7-1.2-4.1-1.6-6.2-2.3l-.4.9-3.1-4.6c1.9-2.1.8-4.4-1.6-5.5-6.2-3-6.8-8.8-8.5-14.2a15.92,15.92,0,0,0-2.8-5.5c-2.8-3.3-2.4-6.9-1.7-10.6.1-.5.4-1.1.2-1.4-4.8-4.8-.3-8.5,1.7-12.4.7-1.4,1.4-2.9,2.1-4.2,3-5.5,5.1-5.5,9-.6,1.6,2,4,3.5,6.1,5.1,5.2,4.1,11.5,2.6,17.5,2.8,2.3.1,3.2-.8,3.1-3-.1-4.3.2-8.3,3.2-12,1.9-2.3,2.3-5.8,3.1-8.8.2-.9-.6-2.1-2-3.3-.4.8-1.2,1.5-1.2,2.2-.2,4-2.6,6.5-6.1,7.8-5.4,2-9,5.2-10.6,10.5a12.71,12.71,0,0,1-1.8,2.7c.2-6.7,1.3-13.6-8.7-11-.1-1.1-.3-2.3-.5-3.4-.2-.8-.6-2.2-1-2.2-4.7-.1-6-3.8-8.2-6.6-.7-.9-1.3-2.7-.9-3.4,2.1-3.5,4.1-7.1,7.4-9.9,1.2-1,1.4-3.7,1-5.5-.4-2.2-2-4.2-2.7-6.4-.8-2.5-.8-5.1,2.1-5.8,2.3.4,5.1,1.7,6.7.8s1.9-3.9,2.8-6.1l5.9,3.2c-1.4,1.4-2.7,2.8-4,4.2-2.3,2.7-1.9,4.1,1.2,5.7s3.4,3.8.8,7a38.53,38.53,0,0,1,5.9.1,8.79,8.79,0,0,1,4,1.5c4.4,3.6,4.4,3.7,8.8-.8,1.6,3.5,3,6.9,4.8,10,.8,1.3,2.6,2.1,4.5,3.5-1.4-4.3-2.7-8-3.8-11.8a3.66,3.66,0,0,1-.2-2.3c2.2-3.9-.1-6.8-2.3-9.7a4.59,4.59,0,0,0-3.1-1.5,8.82,8.82,0,0,1-8.3-9.3c0-.4.1-.7.1-1.1a13.56,13.56,0,0,0,.6-2.9c-.1-4.7.3-5,4.7-3,2.8,1.3,5.5,3.3,8.9,1.1.6-.4,1.9.2,2.9.3,3,.3,8-3.3,7.9-6.1,0-.8-1.7-1.6-3.3-3,.3-1.1,1.7-2.1,4.1-2.6a6.68,6.68,0,0,0,3.7-2.4c3-3.7,5.5-7.8,8.6-11.5,1.7-2,2.3-3.8.6-5.8-3-3.4-6.1-6.8-9.2-10.1-1.4-1.5-2.7-1.3-4.2.2m-41.7,4.7c2.5-2.2,5.1-4.5,7.7-6.6m157.6,91.7a53,53,0,0,0-1,5.5,4.47,4.47,0,0,0,.9,2.5c.2.3,1.5.2,1.6.1a4.45,4.45,0,0,0,.3-2.3,38.94,38.94,0,0,0-1.8-5.8c2.7-5.4-4-9.1-2.8-13.1a42.85,42.85,0,0,0-4.5-4,3.86,3.86,0,0,0-2.8-.5,13.9,13.9,0,0,0-2.8,1.2c.6,3.4.4,7.6,6,7.3.1,0,.2.2.3.2C692.1,509.3,694.4,512.2,694.7,516.5Zm22.4,27c3.2-4.5-.1-7.1-2.5-10.1-2.6-3.2-7.7-4.9-11.6-3.5-2.4.8-3.2,3.7-2.1,6,.8,1.8.9,3.8,1.5,5.6.5,1.6.8,3.7,1.9,4.4s3.3-.2,4.8-.9a23.22,23.22,0,0,0,4-3ZM601.6,639.1c3.8,5.8,7.5,11.4,11.2,17l1.3-.4a24,24,0,0,1-1.2-3.8c-.3-1.4-.8-3.1-.3-4.3,1-2.1,2.7-3.9,4.7-6.5l-8.2.8c-3.3-5.4-4.2-12.3-8.9-17.9-1.5,2.4-2.6,4.2-3.4,5.6.4,2,1.5,3.9,1.1,5.4-.8,2.9,1,4.5,2.3,7.3Zm69.8,34.3a59.82,59.82,0,0,1,6,1.4c3.1,1,6.2,2.2,9.3,3.4l.8-1.2c-1.1-2.3-2.8-4.4-3.2-6.8-1.1-6.3-2.8-8.7-8.6-10.3a24.6,24.6,0,0,0-.7,2.9c-.2,1.3-.7,2.9-.2,3.8,1.8,3.1,1.5,4.9-2.3,5.7C672.1,672.5,671.8,673,671.4,673.4ZM611.7,485.3c1-.4,1.4-.8,1.6-.7,3.7,2.3,4,.1,3.9-2.7V479c-.1-3.5-5.9-6.4-9.4-4.7,4.5,5.5,2.9,10.1-1.8,13.3l2,2.8,6.2-2.9ZM691.9,517c-.5-2-1.1-4-1.6-5.9l-5.7,1.7c-.7-5-3.6-9.2-5.1-9.1.5,3,.9,6.1,1.7,9.1.2.9,1.5,1.7,2.5,2,2.4,1,5,1.4,8.2,2.2Zm-77.6,81.3c-1.9-1.6-3.3-3-4.9-4.2-.8-.6-2.1-1.1-2.8-.8s-1.6,1.9-1.3,2.5a77.1,77.1,0,0,0,4.5,8.5c.3.5,1.3.7,1.9,1-.2-2.3-.3-4.2-.5-5.9Zm37.2,114.4c2.2.3,4.9.6,6.5-2,.4-.7.3-2.7,0-2.8a48.07,48.07,0,0,0-6.5-1.8Zm-73-186.8-4.9,3.2c1.3,2,2.4,3.8,3.8,6,1.8-3.5,4.4-5.8,1.1-9.2ZM567.9,664.4c.7.8,1.3,1.9,2.2,2.3,2.2,1.1,2.9,2.4,2.9,4.9,0,1.7,1.5,3.4,2.4,5.1l1.3-.7c-2.5-4.3-1.1-10.5-8.8-11.6Zm216.2-96.7-1.1-1.1a25.42,25.42,0,0,0-4.6,3.5c-.6.7-.2,2.2-.3,3.3,1.4-.3,3.2-.3,4-1.1,1.1-1.2,1.4-3,2-4.6Zm-91.5-29.5-1.2.3c0,1.6-.3,3.3.1,4.8.2.8,1.7,1.3,2.6,2,.4-1.1,1.3-2.3,1-3.2-.4-1.5-1.5-2.6-2.5-3.9Zm5.3,68.4c-.4,2.5.3,4.4,3,4.9.6.1,2-1.2,2-1.9-.1-2.9-2.3-3.1-5-3Zm-17.6-83.3-.8,1c-.1,1.4-.3,2.7-.5,4.1,2.3,1,4.4.8,4.5-1.6.2-1.2-1.9-2.3-3.2-3.5Zm195.3,320,1.9-.9a9.88,9.88,0,0,0-1.5-3.3c-.2-.3-1.8.4-2.7.7Z" transform="translate(-238.2 -148.4)"/><path class="cls-2" d="M1495.1,549.5a51.7,51.7,0,0,0-4.9-5.6c-.6-.5-3.1-.4-3.2,0-2.6,7.9-11.6,10.2-15.9,16.4-5.3,7.6-14.8,9.2-21.2,15-3.3,3-4.1,5.3-1.7,8.8,4.5-1.7,10.6-.5,12.3-6.1,3.8,1.1,6.8,2.2,10,2.9,3.7.9,5.6,2.5,5.4,6.6-.2,5.5-.5,10.9-3.1,15.8-1.4,2.6-3.4,3.8-7.2,3s-7.8-2.3-11.8.6c-1.2.9-3.9.8-5.6.2a13,13,0,0,0-12.2,2.2c-5.5,4.2-12,4.1-18.3,5.4a47.91,47.91,0,0,0-8.9,2.7c-2.2.9-7.9.1-10.3-1.9s-1.7-4.3-1-7c1.3-5.5,2-11-1.2-16.4a15.33,15.33,0,0,1-1.5-7.9,47.41,47.41,0,0,1,2.1-10.6,56.86,56.86,0,0,1,4.2-11.3c5.3-9.4,2.1-9.1-3.9-14.8a13.26,13.26,0,0,0-5.6-3,8.11,8.11,0,0,0-5.1.4c-2,.9-3,.9-4.6-.7a16.94,16.94,0,0,0-5.3-3.9,15.33,15.33,0,0,1-8.2-9.1c-.7-2.2-1.5-4.4-2.4-6.5-2.2-4-1.5-7.9,0-11.6,2.7-6.9,2.2-13.3-2.1-19.5-2.2-3.2-2-3.6,2-5,5.7-2,11.8-3,16-8,1.6-1.9,1.5-3.1.8-5.4-.9-2.9-.3-6.2-.1-9.3a48.78,48.78,0,0,1,1.2-5.5c2.8-1.2,5.9-2.2,8.5-3.9,2-1.3,3.4-3.1,1.5-6.1a15.87,15.87,0,0,1-2-8.8c.2-3,2.6-5.1,6-5.9,3.6-.9,6.9-2.2,6.4-6.8-.1-.4.5-1.1,1-1.4a61.06,61.06,0,0,1,6.7-3.5c3.5-1.4,5.2-.6,6.4,2.9a3.64,3.64,0,0,0,1.4,1.6,46.37,46.37,0,0,0,7.4,5.1c3.3,1.6,4.5,4.2,6.1,7.1a13.51,13.51,0,0,0,5.4,5.2c3.1,1.6,5.4,3.3,6.2,6.8.5,2.1.8,5.1,4.8,4.3.7-.2,1.8,1.5,2.8,2.4a32.78,32.78,0,0,0-3.2,4.4c-1.2,2.6.8,4.5,2.2,6.4.5.6,1.6.9,2.2,1.5,1.3,1.4,2.4,2.9,3.6,4.3a19.09,19.09,0,0,1-4.1,1.1c-2.3.2-4.8.4-4.9-3,0-.7-1.6-1.9-1.7-1.8a11.33,11.33,0,0,0-3.7,2.8,2.8,2.8,0,0,0,0,2.8c2.2,2.7,4.6,5.2,6.9,7.8,4.4,4.9,9.2,9.5,13,14.7a28.32,28.32,0,0,0,16,11.1c3.5,1,5.2,3,6.8,6.1,3.3,6.3,7.9,11.9,11,18.3,1.6,3.4,1.2,7.7,1.4,11.6C1497.8,548,1496.1,548.8,1495.1,549.5Zm-68.9-79.7c-.8-5.4-1.8-6.8-5-5.9a4.06,4.06,0,0,0-2.3,3.1C1419.2,470.2,1421.1,470.8,1426.2,469.8Zm-10.5,30.7c-1.5,2.3-2.5,3.1-2.7,4.2-.3,1.7,5.7,5.4,7.2,4.5.5-.3,1.1-1.4.9-1.7A83.79,83.79,0,0,0,1415.7,500.5Zm-7.9-6.6v5.5l4.2-1.3Z" transform="translate(-238.2 -148.4)"/><path class="cls-2" d="M1563,655.6c-9.2,1.3-16.3-3-23-8.1a10,10,0,0,1-3.5-5.1c-2-7.9-4.6-15.8-5.2-23.8-.6-8.5-.5-17.5,1.7-25.8,2.4-8.8,4.6-18.3,12.6-24.8,5.1-4.1,3.2-9.7,2.6-14.7-.7-5.8-3.8-10.7-7.8-15.2a17.72,17.72,0,0,1-4.4-16.7c2.3-8.7.2-17.1-.3-25.6-.3-5.6,1.6-10.1,4.8-14.2,2.3-3,10.2-2.8,13,.3,5.2,5.7,11,11.3,11.5,19.6.4,6.9,5,11.7,9.6,16.5a7.27,7.27,0,0,1,2,2.6c1.7,6.2,7,9.2,11.7,13,4.9,3.9,9.1,8.5,14.1,12.3,4.5,3.4,8.8,6.8,12.2,11.4,2,2.6,5.8,4.6,9.2,5.5,7,1.8,11.2,7,15.9,11.4,2.2,2,3.9,3.5,7.1,4.2,8.8,1.8,17.6,4.1,24.9,9.5,2.2,1.6,4.1,3.5,2.8,6.8-.3.9.6,2.6,1.4,3.5,6.2,6.3,6.6,14.7,8.5,22.4.7,2.9-1.5,6.5-2.7,9.7-1,2.7-1,4.4,2.4,5.5,3.9,1.2,6.2,6.8,5.2,10.6-.7,2.7-2.4,2.8-4.2,1.6-3.9-2.8-7.6-5.9-11.4-8.8-1-.7-2.5-1.5-3.6-1.3-5.9,1.3-11.9-2.5-12.7-8.1-.2-1.2-2-2.7-3.4-3-12.8-3.5-23.9.2-34.6,6.8a270.1,270.1,0,0,1-24.1,13.5c-6.1,2.9-12.9,4.7-19.4,6.7-4.2,1.3-8.5,2-12.8,3C1563.1,656.2,1563,655.9,1563,655.6Z" transform="translate(-238.2 -148.4)"/><path class="cls-2" d="M932,483c4-.4,7.4-1.1,10.7-.9a107.07,107.07,0,0,1,14.9,2.2c1.2.2,2.4,1.7,3.2,2.9,1.5,2.2,3,2.9,5,.9a37.11,37.11,0,0,1,2.2,5.5,5.14,5.14,0,0,1-.7,3c-.2.4-1.1.6-1.6.9-4.9,2.6-5.5,5.8-2.2,10.1,1.5,2,2.7,4.2,4.1,6.2l-.8.7,6.8.6c-.1,1-.5,2.1-.2,3,.8,1.8,1.5,4.2,3,5,4.2,2.1,8.1-.1,11.8-2.1a6.18,6.18,0,0,0,3.4-6.8,7.89,7.89,0,0,0-1.2-3c-1.5-2.8-3-5.5-4.5-8.2,3.6-2,6.6-3.7,4.3-7.8-.3-.5.4-1.6.7-2.5,3.1,1.2,3-5,6.7-2.5a5.81,5.81,0,0,0,8.1-1.6c.1-.2.3-.4.4-.6a32.14,32.14,0,0,0,1.6-3.7c2.3,1.9,4,3.7,6,4.9a47.3,47.3,0,0,0,9,4.5c5.2,1.9,10.6,3.2,15.8,5.3,3.4,1.4,4.3,6.5,2.5,9.5a22.26,22.26,0,0,0-1.6,4.3c-.9,2.4-1.2,5.3-2.9,6.9-2.3,2-4,3.8-4.6,6.7a4.29,4.29,0,0,1-2.4,2.7c-3.4,1.5-4.7,4.5-6.7,7.2a74.15,74.15,0,0,1-9.8,11.1c-2.3,2-4.1-.6-5.6-2.5-1-1.2-3-2.9-4-2.6-1.6.4-3,2.2-4.1,3.7s0,2.5,1.7,3.2a45.69,45.69,0,0,1,5.9,3.9l-4.9,1.2c-5.8-7.1-13.8-6.2-21.6-5.6-3.6.2-7.7.8-9.5,5-1.1,2.5-1.1,4.2,1.2,6s4.1,4.1,1.8,7c-2.4-.5-4.8-.6-6.7-1.4-2.6-1.1-5.2-2.2-4.6-6.1.5-3.4-1.6-4.5-5.1-3.4s-7.4,1.6-8.9,6c3.1,1.3,6.4,2.7,9.6,4,2.4,1,3.8,2.1,3.7,5.2-.1,1.9,2.2,4.1,3.8,5.9,3.5,4,3.6,6.8-.2,10.8-.2.3-6.5,8.5-6.5,8.8-1.2,5.8,0,0-6.2,1-5.2-4.6-10.7-11.1-20.7-7.4-.3-.7-1.2-1.8-.9-2.5.9-2.4-.7-3.2-2.3-3.1-1.2,0-3.2,1.2-3.5,2.2-.7,2.3-2.2,3.7-4.3,3.2-1.2-.3-2.6-2.1-3-3.5-1-3.6-1.5-7.4-2.3-11.1-.1-.6-.5-1.7-.9-1.7a2.72,2.72,0,0,0-2.3.6c-1.1,1.3-1.7,3-4,2.4a2.09,2.09,0,0,0-.6.4c-.9,6.5-7.5,4.9-11.5,7.9-1-3.6-4.7-5.2-4.4-9.5.2-2.3-2.6-4.3-5.7-3.5-2.4.6-3.3-.3-4.4-2.2s-2.9-3.7-5-6.4v-6.2c4-2.2,13.2.1,15.7,4.2a3.4,3.4,0,0,1,.3,2c0,3.5,1.3,4.6,5,4.3a5.34,5.34,0,0,1,2.2.2c.7.2,1.4.5,2-.1l7.7-2.5-8.5-8.4c-.9-1.4-2.5-3.9-4.2-6.4-.9-1.3-2.4-2.4-2.9-3.8a18.83,18.83,0,0,1-1.1-6.2c0-2,.2-4,.4-6l-1.5-.4-6.8,8.3-2.4-4c3.1-3,2.7-4.7-1.3-5.8-.9-.2-2.2-.5-2.5-1.1-1.8-3.2-3.3-6.6-4.9-9.9-.5-1-.5-2.6-1.2-2.8-6.8-2.6-9.1-10-15.4-12.8,1.5-4.8.4-6.6-4.4-7-.8-.1-2.6,1.3-2.5,1.9.7,4-2.6,3.2-4,2.5-2.9-1.3-4.9-.8-7.4.8-.8.5-3.1.1-3.9-.7-2.8-2.6-3.3-2.7-5.3.3a20.28,20.28,0,0,1-1.3,1.8,26.4,26.4,0,0,0-3.8-1.8,23.2,23.2,0,0,0-3.8-.5c1.8-4.3,1.8-4.2,6.2-2.6.6.2,2.3-.8,2.6-1.6,1.5-3.5-1.6-5.9-2.9-8.7a39.92,39.92,0,0,0-2.7-4.4l9.8-.5v5.8c2.5.6,4.9,1.7,7.1,1.4s4.4-2,6.5-3.2c1.8-1.1,3.6-2.4,4.7-.6,2.8-2.1,5.5-4.2,8.4-6.1.7-.5,1.9-.4,2.8-.7a18.59,18.59,0,0,0,4.6-1.9,28.52,28.52,0,0,0,5.3-5.1c2.7-3.4,5.7-3.3,9.4-1.7,2.8,1.2,4.9.8,7.1-2,1.2-1.5,5.2-1.9,7.8-1.5,4.1.7,8,2.7,12.1,3.7,1.8.5,5.2.5,5.4-.1.8-2.1.6-4.6.6-7,0-.4-.5-.8.2-.5l2.7-3.6c.5,2.1,1.9,3.8-.8,5.9-2.5,2,.1,8.1,3.3,8.7a30.74,30.74,0,0,0,5.3.7C930.2,477.5,932.4,478.6,932,483Zm-17.3,68.8-7.3-.8C909.6,555.7,912.2,556.1,914.7,551.8Z" transform="translate(-238.2 -148.4)"/><path class="cls-2" d="M1221,485.5l-7.1,1.5c2.1-3.1,4.4-4.9,7.5-5.6,2.9-.7,5,.5,6.8,3,1,1.3,2.9,2,4.5,2.9s3.6,1.6,5.3,2.6c3,1.6,5.8,3.5,8.8,4.9,3.7,1.8,6.8,4.8,11.4,5,1.1.1,2.4,1.3,3.2,2.3,6,8,12,16,17.8,24.2,4,5.6,7.4,11.6,11.3,17.3,1.8,2.7,3.8,5.5,6.5,7.3,5,3.2,6,8,5.6,12.7a97.5,97.5,0,0,1-3.6,17.7,10.86,10.86,0,0,1-3.7,5.2c-5,3.7-9.4,7.5-12.6,13-1.9,3.3-6.6,5.1-9.8,7.9-1.6,1.4-2.6,3.6-4,5.3a5.07,5.07,0,0,1-2.4,1.7c-5.8.1-6.9,1.4-7.6,6.6-.2,1.4-3.1,2.5-4.7,3.8l-.3-1.5c-1.6-.9-4-2.9-4.6-2.5-2.1,1.4-4.3,3.4-5,5.6-.8,2.4.1,5.1-4.4,4.3-2.6-.4-3.4,2.4-1.5,4.7,2.3,2.8,1.8,3.8-1.8,4.3a7.57,7.57,0,0,1-1.5.1c-3.5.4-7.6,3.3-10.1-1.5-1.6-3-2.6-6.4-4.1-9.5a20.09,20.09,0,0,0-3.9-5.6c-4.1-3.8-6.2-8.5-8-13.5a23.15,23.15,0,0,0-4.6-7.3c-1.5-1.7-2.5-3.4-1.1-5.2,2.2-2.8,4.7-5.4,7.1-8.1,1.5-1.6,3.7-2.9,4.5-4.8,1.1-2.6-6.6-9.1-9.4-8.1a6.23,6.23,0,0,0-2.1,1.5c-1.8,1.9-3.9,3.7-6.6,2.3a8.09,8.09,0,0,1-5-7.2c-.1-1.8-.2-3.7-.4-5.5a35.87,35.87,0,0,0-3-11.1c-1.3-3.2-.6-7.5.4-11.1,1.8-7-.4-12.9-4.5-18.6a17.38,17.38,0,0,1,1.3-1.5c5.9-4.5,7.7-9.7,3.8-16.3-1.4-2.3-.9-4.4,1.2-6.2a36.22,36.22,0,0,0,3.6-4.2c2-2.3,4.4-3.6,7.6-3,5.4,1,9.1-1.1,11.4-5.7C1216.7,491.5,1218.1,490.8,1221,485.5Zm-4.1,51v6.7c2.5-3.4,5.6-2.8,8.6-2,1.1-2.7,2.1-5.2,3.2-8-1.1-.7-2.9-1.4-4.1-2.7-3-3.3-6.5-3.3-9.2.3a17.42,17.42,0,0,1-2.6,1.9c-2.4,1.9-5.6,3.4-7,5.9-2.8,4.9-3.3,8,3.1,10.1-1.6-5.8.9-10,8-12.2Zm24.5,42.8c3.2-2.8,4-5.7,3.1-9.2-.5-1.8-.4-3.9-1.1-5.6a12.25,12.25,0,0,0-3.1-3.7c-.1-.1-2.2,1.2-2.2,1.7.4,3.3-1.9,5-3.8,7.2s-3.5,4.5-5.1,6.8l-2.9-3.8-4.9,5.9.4.6,4.8-1.5,1.4,4.2,11.2-4.9Z" transform="translate(-238.2 -148.4)"/><path class="cls-2" d="M1209.2,783.3c-1.3-2-2.6-4-3.7-6.1a46.08,46.08,0,0,1-1.5-5.3c-1.4-5.7-.4-7.3,5.4-8.5,1-.2,2.8-.8,2.8-1.3.2-4.4,4.2-7.8,3-12.7-1-4.1-1-8.5-1.2-12.7-.3-4.9-1.4-6.2-6.3-6.1a5.34,5.34,0,0,1-5.2-2.9c-2.1-3.7-4.4-6.7-8.9-8.9-3.2-1.5-5-6.5-6.3-10.2-1.4-4-4.9-7.1-9.4-6.5l-4.1.7c-4.5.7-7.3-2.1-6.1-6.3,1.1-3.8,2.5-7.5,3.8-11.3l1.7-.4c1.6,2.3,3.1,4.6,4.8,6.8.6.8,1.6,2.2,2.2,2.1,1.1-.2,2.9-1.1,3-1.9.2-2-.5-4-.5-6a25.47,25.47,0,0,1,.6-7.3,30.25,30.25,0,0,1,3.6-8,11.08,11.08,0,0,1,4.5-4.1c8.4-3.3,17.1-5.7,26.4-4.7a6.08,6.08,0,0,1,1.9.1c6.9,3.3,14.4.2,21.4,1.7a3.18,3.18,0,0,0,2-.8c2.9-2.3,6.1-2.3,9.6-1.9,4.6.5,9.2.5,13.8.9a3.19,3.19,0,0,1,2.4,2.1,4,4,0,0,1-1.6,2.8c-1.9,1.3-3.9,2.4-5.9,3.5a21.15,21.15,0,0,1-3.7,1.8c-4.4,1-6,2.7-6.3,6.9-.3,2-.8,4-1.3,6a6.54,6.54,0,0,0-.2,3.1c3,8.7,8.2,15.1,18.2,16.3-2.7,2.7-5.6,5.2-7.7,8.2a13,13,0,0,0-2.6,7.4c.1,4.9-1.8,9-4.4,13-1.8,2.7-3.7,5.2-5.3,8-2.5,4.5-7.2,6.3-11.3,9-7.3,4.7-14.8,9.1-21.9,14a8.75,8.75,0,0,0-3.2,4.8C1210.8,772.9,1210.2,777.5,1209.2,783.3Z" transform="translate(-238.2 -148.4)"/><path class="cls-2" d="M401,227.4c3-3.5,2.8-5.2-.6-7.7-3.9-2.8-7.8-5.7-12.1-8.8l3-2.5c-.6-3.9-1.2-7.4-1.8-10.8,4.9-1,9.2-2.4,13.7-2.8,4.9-.4,9.9.1,14.8.1,2.5,0,5.2.5,7.5-.3,6.8-2.3,13.3-.3,19.4,1.4,3.8,1,9.3,2.4,9.3,8.9a40.21,40.21,0,0,0-5,1c-2,.6-5,1-5.5,2.2-.6,1.6.5,4.1,1.4,5.8,1.2,2.1,2.5,3.7,2,6.6-.6,3.3,3.4,3.3,5.6,4.1,1.5.5,3.4-.2,4.9.2a20.67,20.67,0,0,1,4.5,2.7c1.2.8,2.2,1.9,3.5,2.3a97.7,97.7,0,0,0,10.7,2.5c5.6.9,9.7,5,15,6.3,2.1.5,4.6-.1,6.8-.6.4-.1.6-2.3.4-3.5-.1-.9-1.1-1.5-1.7-2.1,3.8-3.8,7.4-7.6,11.1-11.2,1.9-1.8,6.5-.7,8.2,2.1,2.1,3.4,3.8,7,5.9,10.4,1.6,2.5,3.6,4.4,7.2,3.2,1-.4,2.5.6,3.9.9-1.2,3-2.6,4.1-5.2,2-2.3-1.9-4.1-.4-5.5,1.2-2,2.3-1.6,6.1.5,8.6a27.76,27.76,0,0,1,4.1,5.6c2.2,4.1,1,8-2,11.5-.7,0-1.6-.1-2.5-.1-4.7-.1-4.1,0-3.5-4.7.3-2.8-1.2-6.2-3-8.6-2-2.5-5.1-4.3-8-5.9-1.4-.8-3.6-.4-5.2-1-3.5-1.2-6.8-2.8-10.4-4-5.8-1.9-11.7-3.7-17.6-5.2-2.1-.6-4.5,0-6.5-.7-3.9-1.3-7.5-3.4-11.4-4.8-2.5-.9-5-.5-5.1,2.8a3.7,3.7,0,0,0,1.4,2.9,95.77,95.77,0,0,0,9.9,5.5c2.8,1.3,4.9,2.8,6.1,5.6.5,1.1,2.2,2.6,3.3,2.5,5.6,0,9.6,2,11.3,5.7l16.6,4.3c-.5,5.9-1,11.7-1.6,17.8l-3.2-.9a20.13,20.13,0,0,1-1.4,2.5c-2.2,3-3.9,3-6.1.1-2.5-3.2-4.9-6.3-10.2-5.8-2.7.3-5.6-1-8.4-1.7-.6-.1-1.4-.5-1.5-1-.8-3.3-3.9-3-6.1-3.2-4-.2-7.1-1.8-10.4-4-7.2-4.8-14.7-9.2-22.2-13.5-4-2.3-7.8-4-7.3-9.8.4-4.2-4.9-7.9-11.1-8.8A15.72,15.72,0,0,1,401,227.4Z" transform="translate(-238.2 -148.4)"/><path class="cls-2" d="M1445.1,399c-.5-2.9-1.1-5.5-1.4-8.1-.5-4,.5-7.7,5.6-9.8,8.7-3.6,16.7-8.8,25.3-12.7,4.7-2.1,10-3.1,15.2-4.3,2.8-.7,3.7,1.3,4.3,3.5s1.7,4.2,1.8,6.3c.5,7.2,6.7,9.9,11.8,12.2,5.5,2.5,6.2,6.2,6.4,10.8.2,2.9,0,5.9,0,8.8.1,2.4.8,4.1,3.7,4.7a8.74,8.74,0,0,1,4.6,2.5,11.1,11.1,0,0,1,2.2,5.4c0,.7-2.4,1.6-3.7,2.3-3.9,2.1-8.3,2.5-12.6,3-1.2.1-2.5-.7-3.7-1.2-.9-.4-1.9-1.6-2.5-1.4-3.2,1-5.9-.3-8.7-1.3-6.9-2.4-14-4.4-20.7-7.2-2.4-1-3.6-4.2-5.9-5.7-3.2-2-5-6.1-9.5-6.3a2.61,2.61,0,0,1-1.8-.6c-2.7-4.5-6.1-1.9-9.4-1A1.18,1.18,0,0,1,1445.1,399Zm47-28.8,1.1-1c-.9-1.9-.9-4.7-5.7-4Z" transform="translate(-238.2 -148.4)"/><path class="cls-2" d="M487.4,452.9l2.2-1.3,7.7,4.8c1.2-5.4,1.8-11.4,6.1-16a7.47,7.47,0,0,1,4.2-2.2,12.82,12.82,0,0,1,12.6,7.2c-3.7,2.1-7.3,4.3-11.2,6.2-5.3,2.7-6.1,8.4-9.6,12.3-.5.5.4,2.8,1.2,3.8,2.7,3.5,5.7,6.7,4,11.8-.5,1.4,1.1,3.6,2,5.3,1.3,2.5,1.5,4.3-1.9,5.3a6.51,6.51,0,0,0-3.2,2.7c-1.5,2.6-3.9,3.2-5.4.6-2.5-4.5-4.5-9.4-6.7-14.1-.2-.4-.4-1.2-.2-1.4,3.1-2.6,3.4-6.3,4.1-9.8a16.13,16.13,0,0,0-.1-4.4c0-.4-.6-.9-.5-1.2,2.1-4.3-2-4.4-4.2-5-3-.8-6.8-1.9-7.8,2.9-.4,2-.4,4-1.1,5.8a5.48,5.48,0,0,1-3,2.8c-4.1,1.5-5.6,3.6-3.8,7.8a8,8,0,0,1,.4,5.3c-1.1,4-5.6,5.5-9.9,3.7-4.8-2-6-6.1-6.4-10.4a88.15,88.15,0,0,1-.8-14.5c.2-2.7,2-5.3,3.3-7.9,2.1-4.3,4.6-8.4,6.5-12.8,1.7-3.8,2.8-7.8,4.2-11.7.1-.4.7-1,1.1-.9,4.8.3,5.4-3,5.8-6.6,6,.6,8.5-3,10.4-7.5.6-1.4,1.2-3.1,2.4-4,4.6-3.5,7-8.2,8.9-13.4a16.37,16.37,0,0,0,.4-3.8,20.66,20.66,0,0,1,1.1-5.5c1.1,3.8,4.4,4.3,7.2,5.5,2.1.9,4.2,1.8,1.6,4.4a3.2,3.2,0,0,0-.3,3c4.1,10.6,1,10.2-4.8,15.8a53.84,53.84,0,0,0-6.6,6.9c-.6.7,0,2.5.5,3.7.3.6,1.6.8,2.5,1,1.2.3,2.5.5,3.8.7-.4,1.5-.3,3.4-1.3,4.2-1.8,1.6-4.4,3.6-6.5,3.5-4.8-.2-6.3,3.3-8.5,5.8-.8.8-.6,3.3.1,4.2C490.1,448,490.6,450.3,487.4,452.9Z" transform="translate(-238.2 -148.4)"/><path class="cls-2" d="M532.7,310.9c5.9-.8,11.2-3.2,17.7.5,7.8,4.5,16.3,7.7,24.8,10.9,3.4,1.3,7.4,1,11,1.6,6.2.9,13.5.4,18.4,3.3,7.3,4.3,16,7.2,21.2,14.9,2.1,3.1,7.9,3.8,12,5.6,2.2,1,4.4,2.2,6.5,3.4.2.1-.1,1.8-.6,2-2.2.9-4.6,2.6-6.4-.9a3.45,3.45,0,0,0-2.8-1.2c-3.8.6-7.6,1.7-11.4,2.4a8.63,8.63,0,0,1-4.5.1c-15.6-5.8-31.8-10.8-44.7-21.6-7.8-6.5-17.5-9.3-26.4-13.8-2.5-1.3-5.7-1.3-8.4-2.3-2.4-1-4.8-2.1-7.1-3.3Z" transform="translate(-238.2 -148.4)"/><path class="cls-2" d="M1452.9,799.1c-1.5,3.9-4,5.4-8.4,4.1a19.39,19.39,0,0,0-7.2-.2c-8.4,1.3-14.6-3.9-21.6-6.6-2.7-1-2.3-3.8,0-5.7a12.25,12.25,0,0,0,2.6-3.8c1.1-2.3,1.9-4.7,3.1-7,1.8-3.3,5.7-4.8,9.5-4.5a72.35,72.35,0,0,0,9.3-.4,18.21,18.21,0,0,0,5.2-.8,84.09,84.09,0,0,0,9.7-4.3c2.8-1.5,5.2-4,8-5.3s4.8.5,3.8,3.2a36.4,36.4,0,0,1-5,8.8c-1.9,2.5-2,4.4-.1,6.9,3,4,2,8.5-.6,12-1.5,2.1-4.9,2.9-7.5,4.3Z" transform="translate(-238.2 -148.4)"/><path class="cls-2" d="M1218.5,809l-13.2,30.7-16.9-12c.2-2.6.6-5.6.7-8.6,0-.5-1.2-1.5-2-1.5s-1.4.9-2.2,1.3c-1.4.6-2.8,1.2-4.2,1.7-.3-1.6-1.3-3.5-.7-4.7a37.55,37.55,0,0,1,5.7-8,125.5,125.5,0,0,1,11.2-10.7c2.5-2,5.6-3.3,9.1-5.4C1208.6,798.4,1211,805,1218.5,809Z" transform="translate(-238.2 -148.4)"/><path class="cls-2" d="M1447.8,830.5c5.2,7,1.2,12.1-4.2,16.8-1.5,1.3-3,2.8-5,.4-.5-.6-1.9-.4-2.8-.7-2.4-.6-4.6-.7-5.1-4.1-.3-2-1.7-5.2-5.8-3.7-1.3.4-4.2-.7-4.8-1.9a44.32,44.32,0,0,1-4-11.6c-.7-4,1.3-5.2,5.3-4.2.7.2,2,.7,2.1.4,2.6-3.6,7.3-2.2,10.6-4.2,5.2-3.2,8.9-1.6,9.6,4,.2,2,.2,4,1,5.8C1445.1,828.7,1446.7,829.5,1447.8,830.5Z" transform="translate(-238.2 -148.4)"/><path class="cls-2" d="M1010.8,669l-8.6,1.6-.5,1.5,8.3,5.1-3,4.9c1.3-.2,2.3-.6,3-.3a13.5,13.5,0,0,1,3.3,1.9c-1,.7-2,1.8-3.2,2-3.7.5-5,2.6-4.7,5.8.2,3-1.2,4.9-3.8,6.2-1.5.7-2.9,1.5-4.4,2.2-6.8,3.3-12.8,7-13.6,15.3-.2,1.5-2,2.9-3.6,4.1,4-5.2,3.6-11.2,4-17,.2-2.7-.4-5.5-.5-8.2a14.89,14.89,0,0,1,.3-4.2c.6-2.4,1.6-4.7,2.4-7,0-.1,0-.3.1-.3,3.5-3.4,6.7-7.2,10.6-10A17.17,17.17,0,0,1,1010.8,669Z" transform="translate(-238.2 -148.4)"/><path class="cls-2" d="M542.9,243.5l23.5,14.8c-2.1,1.4-3.7,1.9-4.1,2.9s-.1,3.1.6,3.6c1.5.9,3.5,1,5.3,1.3.8.1,1.9-.5,2.4-.1a34.86,34.86,0,0,1,6.3,5.2c1.4,1.6,1.9,4,2.5,5.1,3.1.6,5.8,1,8.5,1.7.7.2,1.1,1.4,1.6,2.1a21.16,21.16,0,0,1-2.1,1.1c-3,1.2-5.3.5-7.8-1.5-1.7-1.3-4.4-1.3-6.6-2.2a18,18,0,0,1-5-2.5c-7.4-5.6-13.5-13-23.7-14.4-.5-.1-1.3-.2-1.4-.5-1.2-3.8-5-4-8-5.5-2.7-1.4-1.9-2.9-.5-5.3C536.3,246.1,540.7,247.4,542.9,243.5Z" transform="translate(-238.2 -148.4)"/><path class="cls-2" d="M1201.2,482.1c.6-2.6,1.1-4.5,1.4-6.4a6.49,6.49,0,0,1,4.9-5.9c2.9-.9,3.6-2.8,3.8-5.6s1.5-5.3,2.1-8,1-5.3,1.7-7.9c.2-.9.9-2.3,1.4-2.3,1.7.1,4.2.1,4.9,1.1,2.9,4.2,7.2,5,11.8,5.7,2.9.5,3.1,2.8,2.5,5.7-1.3,5.5-5.7,7.5-10.1,10-3.2,1.9-6.1,4.3-9.2,6.5-.5.4-1.1,1.1-1.5,1C1208.7,474.1,1205.7,478.9,1201.2,482.1Z" transform="translate(-238.2 -148.4)"/><path class="cls-2" d="M1197.4,756.6c.2,4.7-3.8,9.3-7.9,11-2.1.9-3.9,2.4-6,3.5-1.3.7-3.1,1.9-4.2,1.6s-2.2-2.3-2.6-3.7a65,65,0,0,1-2.7-12.2c-.3-2.7-.1-6.3,1.6-8,1.5-1.4,5.3-.8,8.1-.7,4.9.3,9.5,1.5,12.3,5.9A26.49,26.49,0,0,1,1197.4,756.6Z" transform="translate(-238.2 -148.4)"/><path class="cls-2" d="M1103.7,582.5c.5-1.9,1.5-3.8,1.3-5.6-.4-3.3-1.5-6.5-2.2-9.8-1.5-6.2-.3-12.1,2.6-17.8a3.16,3.16,0,0,1,2.8-.8c4.1,2,7.6,4.7,7.6,9.5,0,3.4-.5,6.7-.8,10.1a3.06,3.06,0,0,0,.3,2.3c2.1,2.7,1.4,5-.8,7.5-3.4-2.1-6.1-1.4-8,2.1-.6,1-1.9,1.6-2.8,2.5Z" transform="translate(-238.2 -148.4)"/><path class="cls-2" d="M475.4,210.2c6-5,9.6-4.1,18.5.8-2.4,1.6-4.7,3.1-6.8,4.7-.8.6-1.8,1.8-1.7,2.4.7,3,1.8,6,2.8,9.4l-8-3.1.8-2.6-9.7-2.4c1-1.3,1.8-2,1.9-2.7.1-1.3.2-3.1-.6-3.9s-2.7-.5-4-.2a19,19,0,0,0-4,1.4l-.8-.9c1.4-2.1,2.5-5.4,4.3-5.9S472.7,209,475.4,210.2Z" transform="translate(-238.2 -148.4)"/><path class="cls-3" d="M1478.8,707.7a3.59,3.59,0,0,1,.2,1.1c-.3,1.5-.6,3-.9,4.6-1-.3-2.8-.7-2.8-1a20.18,20.18,0,0,1,.9-4.9c.1-.3,1.1-.3,1.7-.4Z" transform="translate(-238.2 -148.4)"/><path class="cls-4" d="M1154,315.1c-3,1.5-6.8-2.3-8,3.1-1.4-1.3-2.8-2.1-3.5-3.2-2.8-4.5-8.1-5.4-12.2-8.1-3.3-2.2-3.2,1.5-5.4,2-1.8-2.6-4.2-4.7-8.3-3v-1.2l11.3-2.6a3.56,3.56,0,0,0-1.2-1.3c-3.2-1.2-5.2-4-4.2-6.5,1.2-2.9,4.1-5.4,6.7-7.4,1.9-1.4,4.4-.8,5.9,1.6.4.7,1.1,1.8,1.7,1.8,5.6.5,6.1,4.8,7.3,8.5a14,14,0,0,0,4.3,6.4C1151.1,307.7,1152.2,311.7,1154,315.1Z" transform="translate(-238.2 -148.4)"/><path class="cls-4" d="M1287.4,266.2l2.3-4.1,3.1,1.9c4.3-2.4,4.3-2.4,10.2,2l-2.8,2.3-4-3.5Z" transform="translate(-238.2 -148.4)"/><path class="cls-4" d="M1178.5,247.8l-4.1,1.4c-.5-2.5-1.6-4.9-1.2-7.1s2.4-4.1,4.2-5.9C1178.7,240.1,1173.4,244,1178.5,247.8Z" transform="translate(-238.2 -148.4)"/><path class="cls-4" d="M1122.9,195.9l3.2.2,1.6-2.9c3,.9,2.7,3.2,1.8,4.7-.6,1-2.9,1.7-4.3,1.6-1.1-.1-2-1.7-3.1-2.6Z" transform="translate(-238.2 -148.4)"/><path class="cls-4" d="M1043.8,354.2l12.8,3.6C1055.2,361.7,1053.5,361.3,1043.8,354.2Z" transform="translate(-238.2 -148.4)"/><path class="cls-4" d="M1140.7,184.1c-1.4-2.5-1.4-4.6,2.5-5.7,3.1-.9,3.3,1,4,2.4Z" transform="translate(-238.2 -148.4)"/><path class="cls-4" d="M983.3,221.1c2.9-.6,6.9,1.3,7.2,3.4a2.81,2.81,0,0,1-1,2.1,2.1,2.1,0,0,1-2-.4A54.34,54.34,0,0,1,983.3,221.1Z" transform="translate(-238.2 -148.4)"/><path class="cls-4" d="M1110.2,280.2c-1.9,1.1-3.3,2.4-3.7,2.1a11.5,11.5,0,0,1-3.2-3.4c-.1-.1,1.7-1.9,2.1-1.8A30.26,30.26,0,0,1,1110.2,280.2Z" transform="translate(-238.2 -148.4)"/><path class="cls-4" d="M855.3,303.8l-6.3,3.8-.8-.7,4.8-7.3Z" transform="translate(-238.2 -148.4)"/><path class="cls-4" d="M1206.2,218.8c1.6,2.3,2.8,4,3.9,5.7.1.1-1,.9-1.6,1.4-1.4-1.6-2.8-3.2-4.1-4.9C1204.2,221,1205.2,220.1,1206.2,218.8Z" transform="translate(-238.2 -148.4)"/><path class="cls-4" d="M1209.4,399l4.2-7.6,1.7.9-5,7.2Z" transform="translate(-238.2 -148.4)"/><path class="cls-4" d="M819.6,396.6c-2.9-2-2.4-3.8.8-5.1C820.1,393.2,819.9,394.9,819.6,396.6Z" transform="translate(-238.2 -148.4)"/><path class="cls-4" d="M1071.2,679.9c-5.9-.6-10.9-4.5-9.4-7,1.3-2.2,4.7-3.6,7.5-4.4,2.1-.6,5.8,5.4,5,8C1073.8,678,1072,679.1,1071.2,679.9Z" transform="translate(-238.2 -148.4)"/><path class="cls-1" d="M1570.2,867.7c-.9,4.1-6,7.3-10.3,6.2a16.26,16.26,0,0,1-11.9-10.8c-.7-1.8-2.2-3.3-3.3-5a20.31,20.31,0,0,1-1.9-3,13.31,13.31,0,0,1,4.6-2.7,9.33,9.33,0,0,1,4.4-.1c1.1.2,2.7.5,3.2,1.3,2.9,4.1,6.8,6.4,11.5,8.3C1568.3,862.6,1569,865.7,1570.2,867.7Z" transform="translate(-238.2 -148.4)"/><path class="cls-1" d="M1544.2,735.2a43.85,43.85,0,0,0,2.6-6.3c.5-1.8.2-3.7.5-5.5.5-1.9,1-3.8,1.7-5.7l4.6,3.4c-3.5,5.2-1.2,10.9.2,16.5Z" transform="translate(-238.2 -148.4)"/><path class="cls-3" d="M1552.1,741.2c2.6,2-1.4,6.3,4.3,6.4-2.1,1.2-4.1,2.4-6.1,3.8a59.29,59.29,0,0,0-4.4,4.3l-.9-.5C1547.4,750.5,1549.7,745.9,1552.1,741.2Z" transform="translate(-238.2 -148.4)"/><path class="cls-3" d="M1545.5,906.3a68.94,68.94,0,0,1,6.4-4c.8-.4,2,.1,3,.2a7,7,0,0,1-.5,2.5C1552.1,908.8,1549.4,909.2,1545.5,906.3Z" transform="translate(-238.2 -148.4)"/><path class="cls-3" d="M1527.4,909.2c0,2,3.3,4-.1,6a4,4,0,0,1-2.7-.7,50.41,50.41,0,0,1,1.1-5.6Z" transform="translate(-238.2 -148.4)"/><path class="cls-3" d="M1500.6,215.1c-3.2-3.2-4.7-8-3.7-10.9C1501.4,204.9,1503.3,210,1500.6,215.1Z" transform="translate(-238.2 -148.4)"/><path class="cls-5" d="M717.1,543.5l-4-1.4a23.22,23.22,0,0,1-4,3c-1.5.7-3.7,1.5-4.8.9s-1.5-2.8-1.9-4.4c-.6-1.9-.7-3.9-1.5-5.6-1.1-2.4-.3-5.2,2.1-6,3.8-1.3,9,.3,11.6,3.5C717,536.3,720.4,539,717.1,543.5Z" transform="translate(-238.2 -148.4)"/><path class="cls-5" d="M601.6,639.1l-1.4,3.2c-1.2-2.8-3-4.3-2.3-7.3.4-1.5-.6-3.5-1.1-5.4.8-1.4,1.9-3.2,3.4-5.6,4.7,5.5,5.6,12.4,8.8,17.9l8.2-.8c-2,2.7-3.7,4.5-4.7,6.5-.5,1.2,0,2.9.3,4.3a24,24,0,0,0,1.2,3.8l-1.3.4C609.1,650.5,605.4,644.9,601.6,639.1Z" transform="translate(-238.2 -148.4)"/><path class="cls-5" d="M671.4,673.4c.4-.4.7-1,1.1-1.1,3.8-.8,4.2-2.7,2.3-5.7-.6-.9,0-2.5.2-3.8.2-1,.4-1.9.7-2.9,5.8,1.6,7.5,4,8.6,10.3.4,2.4,2.1,4.5,3.2,6.8l-.8,1.2c-3.1-1.2-6.2-2.4-9.3-3.4A59.82,59.82,0,0,0,671.4,673.4Z" transform="translate(-238.2 -148.4)"/><path class="cls-5" d="M611.7,485.3l2.6,2.2-6.2,2.9-2-2.8c4.6-3.1,6.3-7.8,1.8-13.3,3.5-1.7,9.3,1.3,9.4,4.7v2.9c.1,2.8-.2,4.9-3.9,2.7C613.2,484.5,612.7,484.9,611.7,485.3Z" transform="translate(-238.2 -148.4)"/><path class="cls-5" d="M694.7,516.5c-.3-4.2-2.6-7.1-6.6-8.9-.1,0-.2-.2-.3-.2-5.5.4-5.3-3.8-6-7.3a9.87,9.87,0,0,1,2.8-1.2,4,4,0,0,1,2.8.5,42.85,42.85,0,0,1,4.5,4c-1.2,4,5.5,7.7,2.8,13.1Z" transform="translate(-238.2 -148.4)"/><path class="cls-5" d="M691.9,517c-3.2-.8-5.8-1.3-8.2-2.1a4,4,0,0,1-2.5-2c-.8-3-1.2-6.1-1.7-9.1,1.5-.1,4.4,4,5.1,9.1l5.8-1.7C690.8,513,691.3,515,691.9,517Z" transform="translate(-238.2 -148.4)"/><path class="cls-5" d="M614.3,598.3l-3.2,1c.1,1.6.3,3.6.5,5.9-.6-.3-1.6-.5-1.9-1a86,86,0,0,1-4.5-8.5c-.3-.6.6-2.1,1.3-2.5a3.42,3.42,0,0,1,2.8.8A58.17,58.17,0,0,1,614.3,598.3Z" transform="translate(-238.2 -148.4)"/><path class="cls-5" d="M651.5,712.7V706c2.2.5,4.4,1.1,6.5,1.8.4.2.5,2.1,0,2.8C656.4,713.4,653.7,713.1,651.5,712.7Z" transform="translate(-238.2 -148.4)"/><path class="cls-5" d="M578.5,525.8c3.3,3.4.8,5.7-1.1,9.2-1.4-2.2-2.5-4-3.8-6Z" transform="translate(-238.2 -148.4)"/><path class="cls-5" d="M567.9,664.4c7.7,1,6.3,7.4,8.8,11.6l-1.3.7c-.8-1.7-2.4-3.4-2.4-5.1,0-2.5-.7-3.8-2.9-4.9C569.2,666.2,568.6,665.1,567.9,664.4Z" transform="translate(-238.2 -148.4)"/><path class="cls-5" d="M784.1,567.7c-.6,1.5-.9,3.4-2,4.5-.8.8-2.6.8-4,1.1.1-1.1-.3-2.7.3-3.3a26.57,26.57,0,0,1,4.6-3.5Z" transform="translate(-238.2 -148.4)"/><path class="cls-5" d="M692.6,538.2c.9,1.3,2.1,2.5,2.5,3.9.3.9-.6,2.1-1,3.2-.9-.7-2.4-1.2-2.6-2-.4-1.5-.1-3.2-.1-4.8Z" transform="translate(-238.2 -148.4)"/><path class="cls-5" d="M698,606.6c2.6-.1,4.9.1,5,3,0,.6-1.4,2-2,1.9C698.2,611,697.6,609.1,698,606.6Z" transform="translate(-238.2 -148.4)"/><path class="cls-5" d="M680.3,523.3c1.2,1.2,3.3,2.4,3.3,3.5-.1,2.4-2.2,2.6-4.5,1.6.2-1.3.3-2.7.5-4.1Z" transform="translate(-238.2 -148.4)"/><path class="cls-5" d="M694.7,516.5c.6,1.9,1.4,3.8,1.9,5.8a4.45,4.45,0,0,1-.3,2.3c0,.1-1.4.2-1.6-.1a3.84,3.84,0,0,1-.9-2.5,31.58,31.58,0,0,1,.9-5.5Z" transform="translate(-238.2 -148.4)"/><path class="cls-6" d="M875.6,843.3l-2.3-3.5c1-.3,2.5-1,2.7-.7a9.88,9.88,0,0,1,1.5,3.3Z" transform="translate(-238.2 -148.4)"/><path class="cls-4" d="M1426.2,469.8c-5.1,1-7,.4-7.3-2.8a4,4,0,0,1,2.3-3.1C1424.4,463,1425.5,464.5,1426.2,469.8Z" transform="translate(-238.2 -148.4)"/><path class="cls-4" d="M1415.7,500.5c2.2,2.7,3.9,4.8,5.4,6.9.2.3-.4,1.4-.9,1.7-1.5.9-7.6-2.8-7.2-4.5C1413.2,503.6,1414.2,502.8,1415.7,500.5Z" transform="translate(-238.2 -148.4)"/><path class="cls-4" d="M1407.8,494l4.2,4.2-4.2,1.3Z" transform="translate(-238.2 -148.4)"/><path class="cls-4" d="M914.7,551.8c-2.5,4.3-5.1,3.9-7.3-.8Z" transform="translate(-238.2 -148.4)"/><path class="cls-4" d="M1216.9,536.6c-7.1,2.1-9.7,6.4-7.9,12.1-6.4-2.1-6-5.3-3.1-10.1,1.4-2.4,4.6-4,7-5.9a15.72,15.72,0,0,0,2.6-1.9c2.7-3.6,6.2-3.6,9.2-.3,1.2,1.3,3,2,4.1,2.7-1.1,2.8-2.1,5.3-3.2,8-2.9-.7-6.1-1.3-8.6,2l-.1-6.6Z" transform="translate(-238.2 -148.4)"/><path class="cls-5" d="M1241.4,579.3l-2.2-2.4-11.2,4.9-1.5-4.2-4.8,1.5-.4-.6,4.9-5.9,2.9,3.8q2.4-3.6,5.1-6.9c1.9-2.1,4.2-3.9,3.8-7.1-.1-.5,2.1-1.8,2.1-1.7a12.25,12.25,0,0,1,3.1,3.7c.7,1.8.6,3.8,1.1,5.6C1245.5,573.6,1244.6,576.5,1241.4,579.3Z" transform="translate(-238.2 -148.4)"/><path class="cls-7" d="M1492.1,370.2l-4.7-5c4.8-.7,4.8,2.1,5.7,4Z" transform="translate(-238.2 -148.4)"/><rect class="cls-8" x="426.6" y="607" width="216.8" height="38.9"/><text class="cls-9" transform="translate(426.58 621.2)"><tspan class="cls-10">Y</tspan><tspan x="6.66" y="0">ou Are Here</tspan></text></g></g><g id="Train"><path class="cls-11" d="M677.1,720.7V652.8s-1.8-41.5,27.8-41.5h103" transform="translate(-238.2 -148.4)"/><path class="cls-11" d="M677.2,643.8V556.9s-2.4-20.8-18.2-20.8H621.1s-17.4-3.7-17.4-16.3V443.3" transform="translate(-238.2 -148.4)"/><path class="cls-11" d="M596,442.8V627.7s2.1,21.5-3.5,21.5l-14.6,1.4" transform="translate(-238.2 -148.4)"/></g><g id="Ferry"><line class="cls-12" x1="577.9" y1="462" x2="581.7" y2="462"/><path class="cls-13" d="M827.8,610.4l76.9.1c59.9,1.4,99.7-3.3,110.4,34.2l13.9,52.6" transform="translate(-238.2 -148.4)"/><line class="cls-12" x1="792" y1="553.1" x2="793.1" y2="557.2"/><path class="cls-13" d="M807.7,384.5V513.8a53,53,0,0,0,13.1,34.9l35.5,40.6,5.9,19.3c19.8-1.9-15.3-70.4,43.3-68.6" transform="translate(-238.2 -148.4)"/><path class="cls-13" d="M530.2,406.3l9.6-13.6s7.6-16.2,18.9-19.1c9.8-2.5,244.5,2.8,244.5,2.8" transform="translate(-238.2 -148.4)"/><path class="cls-13" d="M598.7,438.4c-41.3,1.2-84.2-32.6-85.3-76.5-1.1-41.7-69.6-105-69.6-105" transform="translate(-238.2 -148.4)"/><path class="cls-13" d="M566,652.1l-68.1-35.9s-37.1-16.5-51-68.5c-5.7-21.4-3.7-289.4-3.7-289.4" transform="translate(-238.2 -148.4)"/></g><g id="Flight"><path class="cls-14" d="M808.1,607.9C792.6,746.6,682,734,682,734s22.7-434.4,166.1-427" transform="translate(-238.2 -148.4)"/><path class="cls-14" d="M682.1,733.9S673,476.2,601.7,437.3" transform="translate(-238.2 -148.4)"/><path class="cls-14" d="M407.3,218.5s-183,488.1,271.5,517.2" transform="translate(-238.2 -148.4)"/></g><g id="Points"><circle class="cls-15" cx="571.2" cy="465.5" r="9.6"/><circle class="cls-15" cx="329.8" cy="504.2" r="9.6"/><circle class="cls-15" cx="362.1" cy="288.7" r="9.6"/><circle class="cls-15" cx="668.9" cy="390.8" r="9.6"/><circle class="cls-15" cx="567.8" cy="233.1" r="9.6"/><circle class="cls-15" cx="207.3" cy="104.1" r="9.6"/><circle class="cls-15" cx="614.7" cy="160.6" r="9.6"/><circle class="cls-16" cx="443.8" cy="581" r="16.5"/><circle class="cls-15" cx="173.1" cy="66.9" r="9.6"/><circle class="cls-15" cx="794.6" cy="566.5" r="9.6"/></g></g><g id="Islands"><rect class="cls-8" x="704.7" y="101.5" width="63.4" height="42.6"/><g class="cls-17"><text class="cls-18" transform="translate(704.75 115.73)">O<tspan class="cls-19" x="8.52" y="0">r</tspan><tspan x="13.84" y="0">cas </tspan></text><text class="cls-18" transform="translate(704.75 139.73)">Island</text></g><rect class="cls-8" x="647.8" y="335" width="90.2" height="54.3"/><g class="cls-17"><text class="cls-18" transform="translate(647.81 349.29)">Sh<tspan class="cls-20" x="15.9" y="0">a</tspan><tspan x="23.18" y="0">w </tspan></text><text class="cls-18" transform="translate(647.81 373.29)">Island</text></g><rect class="cls-8" x="794.4" y="642.7" width="90.2" height="54.3"/><g class="cls-17"><text class="cls-18" transform="translate(794.44 656.9)">Lopez </text><text class="cls-18" transform="translate(794.44 680.9)">Island</text></g><rect class="cls-8" x="230.9" y="44.1" width="90.2" height="54.3"/><g class="cls-17"><text class="cls-18" transform="translate(230.87 58.37)">Stuart </text><text class="cls-18" transform="translate(230.87 82.37)">Island</text></g></g><g id="Harbour_Airport" data-name="Harbour+Airport"><rect class="cls-8" x="627.6" y="153.9" width="98.6" height="20.4"/><text class="cls-21" transform="translate(627.64 163.87)">O<tspan class="cls-22" x="8.54" y="0">r</tspan><tspan x="13.73" y="0">cas Airport</tspan></text><rect class="cls-8" x="218.9" y="98.1" width="98.6" height="20.4"/><text class="cls-21" transform="translate(218.89 108.11)">Stuart Harbour</text><rect class="cls-8" x="70.4" y="61.1" width="98.6" height="20.4"/><text class="cls-21" transform="translate(70.37 71.08)">Stuart Airport</text><rect class="cls-8" x="579.6" y="225.4" width="98.6" height="20.4"/><text class="cls-21" transform="translate(579.64 235.39)">O<tspan class="cls-22" x="8.54" y="0">r</tspan><tspan x="13.73" y="0">cas Harbour</tspan></text><rect class="cls-8" x="374.9" y="278.9" width="98.6" height="20.4"/><text class="cls-21" transform="translate(374.92 288.83)">Roche Harbour</text><rect class="cls-8" x="681.6" y="383" width="98.6" height="20.4"/><text class="cls-21" transform="translate(681.62 393)">Shaw Harbour</text><rect class="cls-8" x="808.7" y="560.9" width="98.6" height="20.4"/><text class="cls-21" transform="translate(808.71 570.87)">Lopez Harbour</text><rect class="cls-8" x="580.9" y="466.1" width="98.6" height="20.4"/><text class="cls-21" transform="translate(580.88 476.02)"><tspan class="cls-22">F</tspan><tspan x="7.27" y="0">rid</tspan><tspan class="cls-23" x="23.34" y="0">a</tspan><tspan x="30.26" y="0">y Harbour</tspan></text><rect class="cls-8" x="340.7" y="506" width="98.6" height="20.4"/><text class="cls-21" transform="translate(340.66 515.95)"><tspan class="cls-24">Y</tspan><tspan x="5.71" y="0">acht Hea</tspan><tspan class="cls-23" x="56.77" y="0">v</tspan><tspan x="62.9" y="0">en</tspan></text></g></svg>